<svg xmlns="http://www.w3.org/2000/svg">
<defs>
<font id="UTMSwashes" horiz-adv-x="1767" >
  <font-face 
    font-family="UTM Swashes"
    font-weight="400"
    font-stretch="normal"
    units-per-em="2048"
    panose-1="2 4 6 3 5 5 6 2 2 4"
    ascent="1638"
    descent="-410"
    x-height="729"
    cap-height="1550"
    bbox="-323 -436.001 4942 2161.91"
    underline-thickness="109"
    underline-position="-251"
    unicode-range="U+0020-2026"
  />
<missing-glyph horiz-adv-x="5040" 
d="M3351 2045h9.99805c24.667 -6.66699 37 -24 37 -52c0 -8 -10.667 -27 -32 -57h-28c0 16 9.33301 34 28 54l2 10c-3.33301 8.66699 -6.66602 13.667 -9.99902 15h-9c-5.33301 0 -8.66602 -6.33301 -9.99902 -19h-30c4 32.667 18 49 42 49zM2019 2016l29.001 -31
c0 -10.667 -13.333 -20.667 -40 -30h-19l-59 12l-11 -12l-28 25c7.33301 19.333 21.666 29 42.999 29h11l42 -11h2c6.66699 0 16.667 6 30 18zM467.999 1980h142v-60h-94v-75h89v-59h-89v-129l-5 -5h-49v323zM1155 1980h43l6 -5v-78h30v-52h-30v-188l-6 -5h-49v193h-25v52
h25v78zM1621 1980h41.999l4 -5v-94h3c15.333 16 33.333 24 54 24h2c38.667 0 66.334 -23.667 83.001 -71l2 -39v-143h-52v115c0 53.333 -14 80 -42 80h-7c-28.667 0 -43 -28.667 -43 -86v-109h-51v323zM2200 1980l48.999 -0.000976562l5 -5v-222
c6.66699 -34 21.667 -51 45 -51c29.333 4.66699 44 24.334 44 59.001v214l5 5h49v-216c0 -56.667 -22 -94 -66 -112c-10 -5.33301 -21.667 -8 -35 -8c-31.333 0 -58.666 18.333 -81.999 55c-9.33301 16 -14 35 -14 57v224zM2435 1980h159v-60h-56v-268h-53v268h-55v55z
M2621 1980l70.999 0.000976562c4.66699 -2.66699 32.334 -86.334 83.001 -251.001h2l80 251h73v-328h-54v242h-2l-74 -242h-44c-2.66699 0 -22 60.667 -58 182l-19 60h-3v-242h-55v328zM3760 1980l52 -0.000976562v-328h-45l-5 5v11l3 2l-3 14
c-19.333 -26.667 -45.333 -40 -78 -40c-44.667 0 -78 30.333 -100 91l-5 39v3c0 62.667 30.667 104.334 92 125.001l23 3c23.333 0 44.333 -10.667 63 -32h3v107zM2057 1928l36 0.00195312l4 -6v-49h-45v-221h-48v23c-15.333 -20.667 -35 -31 -59 -31

<glyph glyph-name=".notdef" horiz-adv-x="5040" 
d="M3351 2045h9.99805c24.667 -6.66699 37 -24 37 -52c0 -8 -10.667 -27 -32 -57h-28c0 16 9.33301 34 28 54l2 10c-3.33301 8.66699 -6.66602 13.667 -9.99902 15h-9c-5.33301 0 -8.66602 -6.33301 -9.99902 -19h-30c4 32.667 18 49 42 49zM2019 2016l29.001 -31
c0 -10.667 -13.333 -20.667 -40 -30h-19l-59 12l-11 -12l-28 25c7.33301 19.333 21.666 29 42.999 29h11l42 -11h2c6.66699 0 16.667 6 30 18zM467.999 1980h142v-60h-94v-75h89v-59h-89v-129l-5 -5h-49v323zM1155 1980h43l6 -5v-78h30v-52h-30v-188l-6 -5h-49v193h-25v52
h25v78zM1621 1980h41.999l4 -5v-94h3c15.333 16 33.333 24 54 24h2c38.667 0 66.334 -23.667 83.001 -71l2 -39v-143h-52v115c0 53.333 -14 80 -42 80h-7c-28.667 0 -43 -28.667 -43 -86v-109h-51v323zM2200 1980l48.999 -0.000976562l5 -5v-222
c6.66699 -34 21.667 -51 45 -51c29.333 4.66699 44 24.334 44 59.001v214l5 5h49v-216c0 -56.667 -22 -94 -66 -112c-10 -5.33301 -21.667 -8 -35 -8c-31.333 0 -58.666 18.333 -81.999 55c-9.33301 16 -14 35 -14 57v224zM2435 1980h159v-60h-56v-268h-53v268h-55v55z
M2621 1980l70.999 0.000976562c4.66699 -2.66699 32.334 -86.334 83.001 -251.001h2l80 251h73v-328h-54v242h-2l-74 -242h-44c-2.66699 0 -22 60.667 -58 182l-19 60h-3v-242h-55v328zM3760 1980l52 -0.000976562v-328h-45l-5 5v11l3 2l-3 14
c-19.333 -26.667 -45.333 -40 -78 -40c-44.667 0 -78 30.333 -100 91l-5 39v3c0 62.667 30.667 104.334 92 125.001l23 3c23.333 0 44.333 -10.667 63 -32h3v107zM2057 1928l36 0.00195312l4 -6v-49h-45v-221h-48v23c-15.333 -20.667 -35 -31 -59 -31
c-59.333 9.33301 -89 41.666 -89 96.999v156h51v-104c0 -52.667 8.66699 -81.334 26 -86.001l18 -5h6c17.333 0 30.333 12 39 36l3 26v133h53v25zM3476 1928v-55h-31v-221h-47v25h-2c-10 -22 -29 -33 -57 -33c-45.333 0 -74 26 -86 78l-3 29v146h52v-120
c0 -33.333 6.33301 -56 19 -68l21 -7h9c28 0 42 23 42 69v126h27c2.66699 0 4 9.33301 4 28l3 3h49zM757.996 1905c45.333 0 79.667 -25.667 103 -77c6 -12 10 -30 12 -54c0 -58.667 -30 -101 -90 -127l-32 -3c-42 0 -75.667 24.333 -101 73c-8 14.667 -12 32 -12 52v10
c0 62.667 33.667 104.667 101 126h19zM1011 1905h3c49.333 0 77 -33.667 83 -101v-152h-51v119c0 50.667 -14 76 -42 76h-5c-29.333 0 -44 -25.333 -44 -76v-119h-52v245h46v-21c20 19.333 40.667 29 62 29zM1466 1905l7 -0.000976562c48 0 83 -29.667 105 -89h-60
c-10.667 20.667 -24.667 31 -42 31h-17c-35.333 -9.33301 -53 -29.666 -53 -60.999l-3 -15c8 -46 28.333 -69 61 -69h9c14.667 0 30.334 9 47.001 27h40l2 3h3l2 -3l2 3l3 -3l2 3l2 -7c-22 -54 -58.667 -81 -110 -81c-50.667 0 -87.334 31.333 -110.001 94l-4 36v3
c0 56.667 25.667 96.667 77 120c10 5.33301 22.333 8 37 8zM3141 1905h1.99902c32.667 0 56 -20 70 -60v-14h-52c0 10.667 -5.33301 16 -16 16h-4c-9.33301 0 -15.666 -4.33301 -18.999 -13v-13c0 -6 22.667 -17.667 68 -35c20 -12.667 30 -32.334 30 -59.001
c0 -38.667 -20.333 -65.334 -61 -80.001l-23 -3c-50.667 8 -76 35.667 -76 83h54c0 -13.333 9 -21.666 27 -24.999h4c12.667 0 20.667 7.66699 24 23c0 14.667 -22.667 29.334 -68 44.001c-22.667 18 -34 37.667 -34 59c0 44 24.667 69.667 74 77zM4203 1905
c36.667 0 62.333 -21 77 -63c4.66699 -12 7 -33.667 7 -65v-125h-52v112c0 55.333 -13.333 83 -40 83h-11c-22 0 -35.333 -18 -40 -54v-141h-52v5h-2l2 2v238h47v-21c16.667 19.333 38 29 64 29zM4432 1905h5.00098c26.667 0 49.667 -13.333 69 -40v18l-3 3l3 11h47v-208
c0 -64.667 -28.333 -108.667 -85 -132l-33 -4h-7c-46.667 0 -81.334 26.667 -104.001 80h59c16 -14.667 31 -22.334 45 -23.001h13c14.667 0 29 7.33301 43 22c10 8.66699 17.333 26 22 52h-3c-21.333 -26.667 -45.666 -40 -72.999 -40c-38 0 -70 23.333 -96 70
c-6.66699 12 -11.334 33 -14.001 63c0 58.667 29 100.334 87 125.001zM3851 1897l53 -0.000976562v-136c4 -39.333 17.333 -59 40 -59h7c30.667 0 46 31 46 93v102h51v-245h-47l-3 10h3l-3 3v5l3 2v3h-4c0 -15.333 -19 -25.666 -57 -30.999h-3c-39.333 0 -67.333 25 -84 75
l-2 85v93zM689.996 1771c6.66699 -46 27.6689 -69 63.002 -69h7c39.333 9.33301 59 31 59 65v15c-8.66699 43.333 -28.334 65 -59.001 65h-5c-38.667 0 -60.334 -25.333 -65.001 -76zM3630 1774c8.66699 -48 29.001 -72 61.001 -72h5c38.667 0 60.667 25 66 75
c0 32.667 -17 56 -51 70h-22c-24.667 0 -43.334 -19 -56.001 -57zM4374 1774c5.33301 -48 27 -71.999 65 -71.999h5c39.333 8 59 32 59 72c0 40.667 -19.667 65 -59 73h-14c-37.333 -10.667 -56 -31.334 -56 -62.001v-11zM3928 1620h52v-57h-52v57zM1054 1402
c28.667 -7.33301 43 -23.667 43 -49v-4c0 -11.333 -10.667 -31.333 -32 -60h-28c0 16.667 10.333 35.667 31 57v7c0 8 -2.33301 13 -7 15h-12c-6.66699 -2.66699 -10 -9 -10 -19h-28v6c0 21.333 11 36 33 44zM3349 1339c61.333 0 107.334 -33.001 138.001 -99.001h-60
c-24.667 28 -51.334 42 -80.001 42c-36.667 0 -65.667 -22.667 -87 -68c-6.66699 -14.667 -10 -30.334 -10 -47.001c0 -52 27 -88.667 81 -110l18 -1c24 0 49 13 75 39h61c-29.333 -64.667 -75.333 -97 -138 -97c-62 0 -109 37.333 -141 112
c-6.66699 20.667 -10 41.334 -10 62.001c0 64.667 30 115.334 90 152.001c19.333 10 40.333 15 63 15zM3664 1339c38 0 72.334 -15.666 103.001 -46.999c30.667 -34 46 -72.333 46 -115v-20c0 -59.333 -30.333 -108 -91 -146c-22 -8.66699 -43 -13 -63 -13
c-59.333 0 -105.333 33.667 -138 101c-8.66699 22 -13 42 -13 60v18c0 65.333 32.667 115.666 98 150.999c19.333 7.33301 38.666 11 57.999 11zM2261 1337h2l47 -11h3c7.33301 0 16 3.66699 26 11l18 -36c-12 -12.667 -23.667 -19 -35 -19h-3l-54 10l-20 -7l-20 36
c12 10.667 24 16 36 16zM716.001 1334h19c78.667 0 121.667 -8.66699 129 -26c16.667 -17.333 25 -38 25 -62c-6.66699 -38 -16.667 -57 -30 -57v-6c31.333 -15.333 47 -37.333 47 -66v-18c0 -42 -23 -71.333 -69 -88l-54 -5h-67v328zM2550 1334h53v-217
c4 -40.667 19 -61 45 -61c19.333 0 34 13 44 39l3 30v203l4 6h45l5 -6v-171c0 -78.667 -13.333 -123 -40 -133c-16 -17.333 -37.333 -26 -64 -26c-36.667 0 -67 25.333 -91 76l-4 54v206zM2805 1334h58.999c2.66699 0 43.334 -79 122.001 -237h4v237h50l4 -6v-322h-58
c-19.333 32 -61 111.333 -125 238h-3v-238h-53v328zM3101 1334h54v-328h-54v328zM3859 1334l8 0.000976562c103.333 0 161.333 -13.333 174 -40c15.333 -7.33301 31 -32.333 47 -75l4 -36v-11l3 -2c0 -62.667 -27.333 -112.334 -82 -149.001
c-23.333 -10 -56.333 -15 -99 -15h-55v328zM4141 1334h153v-60h-103v-75h101v-57h-101v-74l4 -5h99v-57h-157v322zM3563 1175v-10c0 -50.667 26.333 -86.667 79 -108l19 -1c45.333 0 77.333 28.667 96 86l3 20v15c0 40.667 -20 72 -60 94c-8 5.33301 -21 9 -39 11
c-44 0 -76 -27.667 -96 -83zM770 1274v-67h9c36 0 54 9.33301 54 28l3 14c-7.33301 16.667 -17 25 -29 25h-37zM3912 1274v-206.001l2 -3v-2c69.333 0 110 25.333 122 76l2 15v29c0 22.667 -10.667 45.334 -32 68.001c-16.667 15.333 -42.667 23 -78 23h-16zM1041 1259h5
c25.333 0 49 -13.333 71 -40v32h49v-245h-49v32c-24 -26.667 -50.667 -40 -80 -40c-50 0 -83.667 32.333 -101 97l-5 36c0 59.333 28.333 101 85 125zM1314 1259h3c49.333 0 77 -34 83 -102v-151h-51v128c0 44.667 -14 67 -42 67h-10c-22.667 0 -35.667 -20.667 -39 -62
v-133h-52v245h47v-21c18.667 19.333 39 29 61 29zM1543 1259h5c30 0 53.667 -13.333 71 -40v32h47v-219c0 -63.333 -34.667 -105.333 -104 -126h-16c-49.333 0 -85.333 27.333 -108 82h59c17.333 -16.667 32 -25 44 -25h14c34.667 0 56 25.667 64 77
c-22 -28 -47.333 -42 -76 -42c-40 0 -73.667 27 -101 81l-7 44v16c0 52.667 28.333 91.667 85 117zM1912 1259l2 0.000976562c28.667 0 49 -12.333 61 -37h2c21.333 24.667 44.333 37 69 37h4c38 0 64.333 -18.333 79 -55c5.33301 -16.667 8 -31.667 8 -45v-153h-52v138
c0 29.333 -7.66699 47.666 -23 54.999l-12 2h-15c-21.333 0 -33.333 -21.667 -36 -65v-130h-52v136c0 39.333 -14.333 59 -43 59h-8c-21.333 0 -33.333 -19 -36 -57v-138h-54v245h50v-21h2c4 16 22 25.667 54 29zM2282 1259c31.333 0 56.333 -14 75 -42v34h47v-245h-47v32
c-24 -26.667 -50 -40 -78 -40c-49.333 0 -83.333 30.667 -102 92l-6 41c0 60 28.333 101.667 85 125zM985 1117c0 -32 20.333 -52.333 61 -61h4c30 0 50.667 15.333 62 46l3 15v22c-8 41.333 -27 62 -57 62h-14c-27.333 0 -47 -19 -59 -57v-27zM1487 1128
c0 -32 14.332 -54.667 42.999 -68l18 -4h5c31.333 0 52.333 19 63 57v23c-7.33301 43.333 -26.666 65 -57.999 65h-12c-33.333 0 -53 -24.333 -59 -73zM2225 1131v-14.001c10 -40.667 29 -61 57 -61h14c38.667 8 58 29.333 58 64v11c0 30 -12.333 51.667 -37 65l-18 5h-10
c-42.667 -5.33301 -64 -28.666 -64 -69.999zM769.999 1150v-82c0 -3.33301 2.33301 -5 7 -5c51.333 0 77 15 77 45c0 22.667 -15.667 36.667 -47 42h-37zM2966 752.999l24 -28l-51 -55c-12 8 -21 16.667 -27 26zM1524 726.999l85 -54c0 -10 -7 -24 -21 -42l-87 54
c12 27.333 19.667 41.333 23 42zM2850 692.999h38l55 -60h-54l-21 26l-23 -26h-54c36 40 55.667 60 59 60zM3422 692.999h40l56 -60h-54l-24 26h-1c0 -3.33301 -6.33301 -12 -19 -26h-54zM621.999 684.999l52 0.00195312c5.33301 -2.66699 21 -48.334 47 -137.001l34 -110
c6 5.33301 17.333 38.666 34 99.999l48 147h54v-2l-112 -326h-44zM1159 685.001h51v-54h-51v54zM1354 685.001h46l6 -5v-323h-52v328zM2317 685.001h45l4 -5v-78h31v-52h-31v-193h-53v193h-26v52h26v78zM2425 685.001h52v-98h2c15.333 15.333 33.333 23 54 23h3
c38 0 65 -23.667 81 -71l3 -38v-144h-52v115c0 54 -13 81 -39 81h-10c-28 0 -42 -29 -42 -87v-109h-52v328zM2664 685.001h52v-54h-52v54zM3028 685.001h44l6 -5v-78h29v-52h-29v-193h-54v193h-27v52h27v78zM3234 685.001h52v-328h-52v328zM3957 685.001h52v-328h-52v328z
M4316 685.001h51v-54h-51v54zM1555 610.001h5c55.333 0 92 -34 110 -102l3 -23v-11c0 -55.333 -28.333 -95.333 -85 -120l-35 -5c-50.667 0 -87.667 32.333 -111 97l-4 32c0 64.667 31 108 93 130zM1811 610.001h4c35.333 0 61.333 -20 78 -60
c4.66699 -16.667 7 -43.667 7 -81v-112h-54v146c-4.66699 33.333 -17 50 -37 50h-10c-25.333 0 -39.333 -19 -42 -57v-139h-54v245h49v-21c17.333 19.333 37 29 59 29zM2046 610.001h4.00098c30 0 51 -13 63 -39h3v31h49v-206c0 -68 -29.667 -113 -89 -135l-28 -3h-5
c-48.667 0 -84 27 -106 81h52l37 -20l15 -3h14c33.333 0 53.666 24 60.999 72c-22 -26 -46.333 -39 -73 -39c-41.333 0 -74 25.333 -98 76c-7.33301 15.333 -11.333 35.333 -12 60c0 56.667 28.667 97.667 86 123zM2866 610.001l2.00098 -0.000976562
c54.667 0 91.667 -34.667 111 -104l2 -25l-2 -27h-172c10 -30 25 -45 45 -45l14 -3c19.333 0 35.666 7.33301 48.999 22h57v-3c-23.333 -50.667 -59.333 -76 -108 -76c-51.333 0 -88.333 32.333 -111 97l-1 28v8c0 32.667 10.667 62.334 32 89.001c22.667 26 50 39 82 39z
M3429 610h5.00098c27.333 0 50.666 -13 69.999 -39h2v31h47v-245h-47v31h-2c-23.333 -26 -49 -39 -77 -39c-47.333 0 -81 29.667 -101 89l-5 36v14c0 57.333 28 97.333 84 120zM3711 610l6.99902 -0.000976562c58.667 0 94.334 -42.667 107.001 -128l-2 -1v-15
c0 -43.333 -22 -78.666 -66 -105.999c-14 -7.33301 -29.333 -11 -46 -11c-22.667 0 -44 10.667 -64 32v-99l-5 -5h-49v325h49v-28c20.667 24 43.667 36 69 36zM4151 609.999c29.333 0 54.333 -13 75 -39v31h49v-245h-49v31c-23.333 -26 -49 -39 -77 -39
c-61.333 0 -97.333 44 -108 132c0 56 24.333 96.333 73 121c10 5.33301 22.333 8 37 8zM922.001 601.999h50v-136c2 -40 16 -60 42 -60h5c29.333 0 44 29 44 87v109h52v-245h-47v24h-5c0 -15.333 -18.667 -26 -56 -32h-3c-36.667 0 -64 22.667 -82 68
c-2.66699 23.333 -4 56.333 -4 99v81zM1159 601.999h51v-245h-51v245zM2664 601.999h52v-245h-52v245zM4316 601.999h51v-245h-51v245zM1492 487.999v-15.999c8.66699 -44 28.334 -66 59.001 -66h4c39.333 0 61.333 25.333 66 76c-8.66699 47.333 -28.334 71 -59.001 71h-11
c-39.333 -10.667 -59 -32.334 -59 -65.001zM1987 472c10 -44 29.668 -66 59.001 -66h11c32 0 51.667 25 59 75v1c-8.66699 47.333 -28.334 71 -59.001 71h-14c-26 0 -44.667 -19 -56 -57v-24zM2805 506h122.001v2c-10.667 30 -30.334 45 -59.001 45h-7
c-23.333 0 -42 -15.667 -56 -47zM3373 474c8.66699 -45.333 28.999 -68 60.999 -68h5c34.667 0 56.334 21 65.001 63v12c-6.66699 48 -25.667 72 -57 72h-16c-37.333 -9.33301 -56 -30.333 -56 -63zM3642 478c8 -48 28.332 -72.001 60.999 -72.001h3c33.333 0 55 20 65 60
v22c0 28.667 -16.333 50.334 -49 65.001h-22c-31.333 0 -50.666 -24 -57.999 -72v-3zM4095 471.999c6.66699 -44 28.667 -66 66 -66c28.667 0 49 16 61 48l2 15v16c0 36 -17.333 58.667 -52 68h-18c-28 0 -47.667 -20 -59 -60v-21zM3416 320.999h51v-52h-51v52z
M4137 320.999h51v-52h-51v52zM2733 132.999h4.00098c23.333 0 37.666 -16.667 42.999 -50v-2c0 -10.667 -8 -24.334 -24 -41.001l-10 -17h-28c0 16.667 9.33301 35.334 28 56.001l3 2v2c-2 12.667 -5 19 -9 19h-10c-5.33301 0 -8.33301 -6.33301 -9 -19h-30
c4 33.333 18 50 42 50zM1546 115.999l52 -60l-26 -19l-52 52zM352.002 78.999h4c50 -32 78.333 -52 85 -60l-20 -37c-58.667 32.667 -88 52 -88 58zM3490 78.999l86 -58l-18 -39c-6.66699 0 -37 18.333 -91 55c10 24 17.667 38 23 42zM4578 75.999l19 -42l-91 -52l-20 39
l92 58v-3zM1204 52.999h51v-19l5 -5h14v-36h-14l-5 -5v-279h-46v31c-22.667 -26.667 -49.667 -40 -81 -40c-48 0 -82 35 -102 105l-3 26c0 68 33.667 111.667 101 131h14c22 0 44 -11 66 -33v59l-6 5h-43v36h49v24zM1480 44.999h40l56 -61h-53l-23 27l-23 -27h-53z
M2641 44.999h33c8 0 29 -20.333 63 -61h-54l-23 27c-12.667 -14 -19 -23 -19 -27h-58v4zM49.002 36.999h160v-60h-56v-268h-50l-4 5v245l2 3v2l-2 2l2 3l-2 2l2 3l-2 3h-54v54zM699.002 36.999h47v-73l2 -2l-2 -3v-3l2 -2l-2 -3v-3l2 -2v-2l-2 -3l2 -3h3
c11.333 16 28.333 24 51 24h3c35.333 0 61 -19.333 77 -58c4.66699 -11.333 7 -25.333 7 -42v-153h-52v127c0 45.333 -13.333 68 -40 68h-8c-28.667 0 -43 -28.667 -43 -86v-109h-52v322zM1297 36.999h47l5 -6v-49h-52v55zM1987 36.999h52.001v-198l70 115h62l-78 -118
l90 -125v-2h-70c-6.66699 14.667 -31.334 53 -74.001 115v-115h-52v328zM2271 36.999v-98.999c16 16 33.667 24 53 24c38 0 64.667 -18.667 80 -56c6.66699 -12.667 10 -38.334 10 -77.001v-120h-54v133c0 41.333 -13.667 62 -41 62h-11c-20.667 0 -33 -18.333 -37 -55v-140
h-53v314l-1 3v3l1 2l-1 3l1 3h53zM2458 37h51v-55h-51v55zM3148 37h51v-108c18 22 40.667 33 68 33h3c50 0 85 -31.333 105 -94l5 -37c0 -50 -21.333 -90 -64 -120c-20 -7.33301 -36.333 -11 -49 -11c-27.333 0 -51.333 13.333 -72 40v-31h-47v328zM4275 37h52v-99h2
c15.333 16 33.333 24 54 24h3c40 0 67.333 -24.667 82 -74l2 -41v-138h-52v111c0 54.667 -10.667 82 -32 82l-10 2h-12c-24.667 0 -37 -26.667 -37 -80v-115h-52v328zM329.003 -38h3v-58h-5c-28 0 -42 -19 -42 -57v-138h-53v245h47v-21c12 19.333 28.667 29 50 29z
M564.003 -38c47.333 0 75.999 -29 85.999 -87v-166h-51v136c-4 39.333 -17.667 59 -41 59h-6c-30 0 -45 -28 -45 -84v-111h-52v245h50v-21c16.667 19.333 36.334 29 59.001 29zM1504 -38c48 0 83 -31.333 105 -94l5 -39c-1.33301 -16 -3.66602 -24 -6.99902 -24h-169
c11.333 -31.333 32 -47 62 -47c16 0 32 7 48 21h57c-22 -52.667 -58 -79 -108 -79c-54.667 0 -92.334 35 -113.001 105v37c0 54 29.667 93 89 117zM2657 -38h5c51.333 0 87 -32.333 107 -97l3 -26v-21l-3 -13h-170c12 -31.333 29.667 -47 53 -47h12c14 0 28 7 42 21h59
c-22.667 -52.667 -57.667 -79 -105 -79c-56 0 -94.333 34 -115 102l-2 29c0 62 30.333 104.667 91 128zM2915 -38h3.99902c36 0 62 -20 78 -60c4.66699 -16.667 7 -44 7 -82v-111h-54v138c0 32 -11.667 51 -35 57h-11c-25.333 0 -39.666 -19 -42.999 -57v-138h-54v245h50
v-21c16.667 19.333 36 29 58 29zM3508 -38h6c26.667 0 50 -13.333 70 -40h2v32h47v-245h-47v31h-2c-22.667 -26.667 -48.667 -40 -78 -40c-47.333 0 -81 30 -101 90l-4 37v12c0 54.667 25.667 93.667 77 117c7.33301 4 17.333 6 30 6zM3781 -38h4.00098
c41.333 0 68.666 -26 81.999 -78l3 -84v-91h-54v138c0 32 -12.667 51 -38 57h-9c-25.333 0 -39.333 -17.333 -42 -52v-143h-54v245h49v-21c17.333 19.333 37 29 59 29zM4133 -38h1c49.333 0 84 -31 104 -93l4 -40c0 -58.667 -28 -100.667 -84 -126l-25 -3
c-27.333 0 -50 11.333 -68 34v-106h-52v326h47v-29c20 24.667 44.333 37 73 37zM4714 -38h5c22.667 0 43.667 -12.333 63 -37c18 24.667 41 37 69 37h6c37.333 0 63.666 -22 78.999 -66l6 -51v-136h-52v122c0 48.667 -13 73 -39 73h-7c-23.333 0 -37 -16.667 -41 -50v-140
l-5 -5h-48v140c0 28 -10.333 46.333 -31 55h-17c-26.667 0 -40 -25.667 -40 -77v-118h-51v245h47v-21c14.667 19.333 33.334 29 56.001 29zM359.002 -46h49l5 -6v-234l-5 -5h-49v245zM1297 -46h52v-245h-52v245zM1649 -46h52v-136c2.66699 -40 17 -60 43 -60h4
c29.333 0 44 27 44 81v115h52v-245h-47v24h-5c-8 -22 -27.667 -33 -59 -33c-34.667 0 -61 21 -79 63c-3.33301 8 -5 19.333 -5 34v157zM2458 -46h51v-245h-51v245zM4515 -46h51v-245h-51v245zM1077 -169c0 -35.333 16.999 -59.666 50.999 -72.999h12c36 0 58 22 66 66v10
c0 35.333 -18 58.666 -54 69.999h-17c-25.333 0 -44.666 -19 -57.999 -57v-16zM1438 -143h122.001c-12 31.333 -29.667 47 -53 47h-7c-28.667 0 -49.334 -14.667 -62.001 -44v-3zM2599 -143h122c-14 31.333 -32 47 -54 47h-7c-30.667 0 -51 -15.667 -61 -47zM3196 -158v-11
c6.66699 -48.667 27 -73 61 -73h5c42.667 5.33301 64 29 64 71v5c0 30 -12.667 51.667 -38 65l-18 5h-14c-40 -9.33301 -60 -30 -60 -62zM3452 -173c9.33301 -46 30 -69 62 -69h11c27.333 0 47 20 59 60v13c-5.33301 48.667 -24 73 -56 73h-17
c-31.333 0 -51 -24.333 -59 -73v-4zM4062 -158l0.000976562 -22c0 -31.333 19.667 -52 59 -62h9c33.333 0 53.666 25.333 60.999 76c-8.66699 46.667 -28 70 -58 70h-15c-37.333 -11.333 -56 -32 -56 -62z" />
    <glyph glyph-name="space" unicode=" " horiz-adv-x="512" 
 />
    <glyph glyph-name="exclam" unicode="!" horiz-adv-x="419" 
d="M547 1204l-336 -860c-4 -10.667 -8.5 -21.5 -13.5 -32.5s-12.167 -16.5 -21.5 -16.5c-18 0 -27 6.66699 -27 20l4 18c1.33301 6 4 13.667 8 23l7 13l262 751l14 49c0 4.66699 -2 9 -6 13c-2.66699 0 -4.66699 0.666992 -6 2c-5.33301 -2.66699 -11.166 -5.5 -17.499 -8.5
s-23.166 -13.167 -50.499 -30.5c-2.66699 -2.66699 -9.33398 -5.33398 -20.001 -8.00098c-12.667 0 -19 6 -19 18c0 5.33301 2.83301 10.833 8.5 16.5s28.167 22.167 67.5 49.5l76 49c12 8 24.167 14.667 36.5 20s21.166 8.66602 26.499 9.99902
c19.333 3.33301 29 -6 29 -28c0 -5.33301 -2.33301 -14.166 -7 -26.499s-9.66699 -26.166 -15 -41.499zM131 193c4 0 8.33398 -3.50098 13.001 -10.501s9.66699 -18.833 15 -35.5l11 -22l4 -21c0 -9.33301 -15.667 -25.666 -47 -48.999l-15 -10
c-2.66699 -1.33301 -5.33398 -2.33301 -8.00098 -3s-5.33398 -1.66699 -8.00098 -3c-6.66699 0 -15 13 -25 39l-16 47c0 6.66699 7.83301 16.5 23.5 29.5s27.334 21.833 35.001 26.5s13.5 8.66699 17.5 12z" />
    <glyph glyph-name="quotedbl" unicode="&#x22;" horiz-adv-x="450" 
d="M425 1087l-97.999 -229l-6 -14c-5.33301 -15.333 -12.333 -23 -21 -23c-13.333 0 -20 5 -20 15c1.33301 4 2.66602 9 3.99902 15s4 14.667 8 26l47 149l11 35c0 2.66699 -1.16699 5 -3.5 7s-4.16602 3.66699 -5.49902 5l-10 -4c-10.667 -8 -22.334 -14 -35.001 -18
l-12 12c0 6.66699 15 21 45 43c50.667 34 80.667 51 90 51c14 0 21 -6.66699 21 -20l-6 -25zM616.001 1087l-98 -229l-7 -14c-5.33301 -15.333 -12 -23 -20 -23c-14 0 -21 5 -21 15l9 30l4 11l47 149l12 35c0 2.66699 -1 5 -3 7l-5 5l-10 -4c-18 -12 -30.333 -18 -37 -18
l-12 12c0 4 1.66699 8 5 12s16.833 14.167 40.5 30.5s43.5 29 59.5 38s26 13.5 30 13.5c14.667 0 22 -6.66699 22 -20c0 -6 -5.33301 -22.667 -16 -50z" />
    <glyph glyph-name="numbersign" unicode="#" horiz-adv-x="956" 
d="M231 391l-120.997 0.000976562c-38 0 -57 9.66699 -57 29c0 13.333 3.33301 22.166 10 26.499s23 6.5 49 6.5h146l129 286h-125c-38 0 -57 9.66699 -57 29c0 13.333 3.33301 22.166 10 26.499s23 6.5 49 6.5h151l123 272c20.667 46.667 33.667 73.334 39 80.001
s14.333 10 27 10c18 0 27 -6 27 -18c-3.33301 -12.667 -6.33301 -21 -9 -25l-8 -20l-131 -299h326l123 272l8 17l12 28c12.667 30 27.667 45 45 45c18 0 27 -6 27 -18c-2.66699 -14 -5.33398 -22.333 -8.00098 -25l-11 -20l-129 -299h144c32.667 0 49 -9.66699 49 -29
c0 -22 -20.667 -33 -62 -33h-159l-125 -286h145c32.667 0 49 -9.66699 49 -29c0 -22 -20.333 -33 -61 -33h-160l-147 -336c-12.667 -27.333 -21.334 -44 -26.001 -50s-13.334 -9 -26.001 -9c-22.667 0 -34 9.66699 -34 29c0 8 6 24.333 18 49l6 16l135 301h-319l-146 -336
c-10.667 -24.667 -19 -40.667 -25 -48s-14.667 -11 -26 -11c-24.667 0 -37 9.66699 -37 29c0 8 6.33301 24.333 19 49l6 16zM456.003 739.001l-124 -286h319l129 286h-324z" />
    <glyph glyph-name="dollar" unicode="$" horiz-adv-x="956" 
d="M744 1188l-13.001 -49.002l62 -21c28.667 -13.333 47.667 -20 57 -20c12.667 0 21.667 7.83301 27 23.5s12.666 23.5 21.999 23.5c19.333 0 38.166 -28 56.499 -84s27.5 -110.667 27.5 -164c0 -40.667 -10.333 -61 -31 -61c-16 0 -27.333 12.667 -34 38
c-15.333 56 -38.333 100.167 -69 132.5s-74.667 57.833 -132 76.5l-107 -413c94.667 -80.667 162.834 -154.167 204.501 -220.5s62.5 -135.5 62.5 -207.5c0 -116 -45.167 -219.167 -135.5 -309.5s-194.166 -135.5 -311.499 -135.5l-43 2l-33 -127
c-8 -30 -20.667 -45 -38 -45c-20.667 0 -31 10.333 -31 31l8 43l27 106c-246 64.667 -369 196 -369 394c0 73.333 22.5 141.833 67.5 205.5s94.167 95.5 147.5 95.5c34 0 51 -16.333 51 -49c0 -20.667 -8 -34.334 -24 -41.001
c-1.33301 -1.33301 -26.666 -9.66602 -75.999 -24.999c-31.333 -9.33301 -57.333 -30.166 -78 -62.499s-31 -68.833 -31 -109.5c0 -70.667 31.5 -136.167 94.5 -196.5s143.5 -101.166 241.5 -122.499l178 696c-74.667 64 -126 117.5 -154 160.5s-42 88.5 -42 136.5
c0 72 28 134 84 186s124.333 78 205 78l49 -2l14 51c6.66699 28.667 19 43 37 43c22 0 33 -11.667 33 -35zM554.999 722.998l94 371c-64 0 -114.333 -16.5 -151 -49.5s-55 -76.167 -55 -129.5c0 -61.333 37.333 -125.333 112 -192zM577.999 540.998l-170 -654.001h43
c92.667 0 172.5 30.833 239.5 92.5s100.5 134.834 100.5 219.501c0 102 -71 216 -213 342z" />
    <glyph glyph-name="percent" unicode="%" horiz-adv-x="940" 
d="M933 1094l-751.001 -1061c-18 -24.667 -33 -37 -45 -37c-22 0 -33 10.333 -33 31c0 6.66699 1.33301 12.667 4 18s10.334 17 23.001 35l747 1046c18 26 33 39 45 39c6.66699 0 13.5 -2.66699 20.5 -8s10.5 -12.666 10.5 -21.999c0 -8.66699 -7 -22.334 -21 -41.001z
M412.999 1153c40 0 72.501 -14.6689 97.501 -44.002s37.5 -68.666 37.5 -117.999c0 -86 -29 -168.167 -87 -246.5s-119 -117.5 -183 -117.5c-40.667 0 -73.334 14.333 -98.001 43s-37 67.334 -37 116.001c0 88 29 171.167 87 249.5s119 117.5 183 117.5zM389 1087
c-44 0 -83.667 -27.833 -119 -83.5s-53 -119.167 -53 -190.5c0 -78 30.667 -117 92 -117c40.667 0 78.167 28 112.5 84s51.5 119 51.5 189c0 78.667 -28 118 -84 118zM811 538.998c39.333 0 71.668 -14.668 97.001 -44.001s38 -68.666 38 -117.999
c0 -84.667 -29.333 -166.667 -88 -246s-120.334 -119 -185.001 -119c-40.667 0 -73.334 14.333 -98.001 43s-37 67.667 -37 117c0 86 29.333 168.667 88 248s120.334 119 185.001 119zM786.002 472.997c-45.333 0 -85.667 -28 -121 -84s-53 -119.333 -53 -190
c0 -78 30.667 -117 92 -117c42.667 0 81 28 115 84s51 118.667 51 188c0 79.333 -28 119 -84 119z" />
    <glyph glyph-name="ampersand" unicode="&#x26;" horiz-adv-x="1249" 
d="M770 201c40.667 -61.333 89.666 -92 146.999 -92c64.667 0 124.334 22.333 179.001 67c12 9.33301 24.333 19.666 37 30.999c4 2.66699 8 4 12 4c12 0 18 -5.33301 18 -16c0 -7.33301 -6.5 -17.5 -19.5 -30.5s-29.5 -26.167 -49.5 -39.5
c-89.333 -58.667 -172 -88 -248 -88c-32.667 0 -61.334 6.83301 -86.001 20.5s-52.667 38.834 -84 75.501c-61.333 -34 -116 -58.167 -164 -72.5s-96.333 -21.5 -145 -21.5c-82 0 -149.333 24.833 -202 74.5s-79 113.5 -79 191.5c0 92.667 40 185.167 120 277.5
s194.333 176.833 343 253.5c26 132 71.333 242 136 330s133.334 132 206.001 132c32.667 0 58.5 -8.83301 77.5 -26.5s28.5 -41.5 28.5 -71.5c0 -35.333 -12.5 -73.5 -37.5 -114.5s-59.833 -80 -104.5 -117s-113.334 -80.5 -206.001 -130.5
c-5.33301 -37.333 -8 -68.333 -8 -93c0 -90 11 -192.333 33 -307c13.333 -70.667 36.333 -134.667 69 -192c142 122.667 213 239.334 213 350.001c0 28.667 -7.5 52.834 -22.5 72.501s-33.833 29.5 -56.5 29.5l-25 -4l-10 -2l-8 8c0 11.333 7.33301 24.333 22 39
c24.667 24.667 52.667 37 84 37c28.667 0 52.834 -11.5 72.501 -34.5s29.5 -51.833 29.5 -86.5c0 -66.667 -23.167 -138.834 -69.5 -216.501s-113.833 -156.834 -202.5 -237.501zM652.999 891c174.667 84.667 262.001 178 262.001 280c0 19.333 -6 35.833 -18 49.5
s-27.667 20.5 -47 20.5c-42.667 0 -82.334 -32.333 -119.001 -97s-62.667 -149 -78 -253zM543 778c-229.333 -124 -344.001 -270 -344.001 -438c0 -65.333 21.833 -120.666 65.5 -165.999s98.167 -68 163.5 -68c76.667 0 150.334 23.333 221.001 70
c-72 131.333 -108 306.666 -108 525.999z" />
    <glyph glyph-name="quotesingle" unicode="'" horiz-adv-x="272" 
d="M439 1087l-97.999 -229l-6 -14c-5.33301 -15.333 -12.333 -23 -21 -23c-13.333 0 -20 5 -20 15c1.33301 4 2.66602 9 3.99902 15s4 14.667 8 26l47 149l11 35c0 2.66699 -1.16699 5 -3.5 7s-4.16602 3.66699 -5.49902 5l-10 -4c-10.667 -8 -22.334 -14 -35.001 -18
l-12 12c0 6.66699 15 21 45 43c50.667 34 80.667 51 90 51c14 0 21 -6.66699 21 -20l-6 -25z" />
    <glyph glyph-name="parenleft" unicode="(" horiz-adv-x="575" 
d="M366 -141c12 0 17.999 -6.33203 17.999 -18.999c0 -8 -10.167 -20.167 -30.5 -36.5s-39.5 -30.833 -57.5 -43.5c-47.333 -32.667 -82.666 -49 -105.999 -49c-36 0 -62.667 33.667 -80 101c-23.333 92.667 -35 199 -35 319c0 190 45.333 378.167 136 564.5
s214 343.5 370 471.5c60 49.333 126.167 94.166 198.5 134.499s122.833 60.5 151.5 60.5c16.667 0 25 -6.33301 25 -19c0 -5.33301 -3.5 -10 -10.5 -14s-22.167 -10.667 -45.5 -20c-68 -26 -143.667 -72.833 -227 -140.5s-154.333 -139.834 -213 -216.501
c-84.667 -110.667 -151.5 -238 -200.5 -382s-73.5 -286.333 -73.5 -427c0 -90 8.16699 -167 24.5 -231s36.166 -96 59.499 -96c12 0 22.667 2.66699 32 8c16.667 10.667 30.334 19.334 41.001 26.001z" />
    <glyph glyph-name="parenright" unicode=")" horiz-adv-x="575" 
d="M398 1257c-12 0 -23.001 -2.66797 -33.001 -8.00098c-16 -10.667 -29.667 -19.334 -41 -26.001l-22 -9c-12.667 0 -19 6.33301 -19 19c0 8 10.333 20.167 31 36.5s39.667 30.833 57 43.5c48 32.667 83.667 49 107 49c35.333 0 62 -33.333 80 -100
c23.333 -93.333 35 -200 35 -320c0 -190 -45.5 -378.167 -136.5 -564.5s-214.167 -343.5 -369.5 -471.5c-60 -49.333 -126.167 -94.166 -198.5 -134.499s-122.833 -60.5 -151.5 -60.5c-16.667 0 -25 6.33301 -25 19c0 5.33301 3.33301 10 10 14s21.667 10.667 45 20
c68.667 26 144.667 72.833 228 140.5s154.333 139.834 213 216.501c84.667 110.667 151.5 238 200.5 382s73.5 286.333 73.5 427c0 90 -8.16699 167 -24.5 231s-36.166 96 -59.499 96z" />
    <glyph glyph-name="asterisk" unicode="*" horiz-adv-x="956" 
d="M823 1145l55 -92c11.333 -18 17 -30.333 17 -37c0 -22 -11.667 -33 -35 -33c-14 0 -27 11 -39 33l-60 98l-79 -90c-11.333 -10.667 -20 -18.5 -26 -23.5s-12.667 -7.5 -20 -7.5c-20 0 -30 12.333 -30 37c0 8 8.66699 22.333 26 43l74 84l-88 37c-30 12 -45 25.667 -45 41
c0 22 9.66699 33 29 33c6.66699 0 16 -2.66699 28 -8l17 -7l98 -39l27 105c8 31.333 20.333 47 37 47c22.667 0 34 -10.333 34 -31l-4 -24l-22 -101l110 27l33 6c20.667 0 31 -11 31 -33c-1.33301 -10.667 -4.83301 -18 -10.5 -22s-19.167 -8.66699 -40.5 -14z" />
    <glyph glyph-name="plus" unicode="+" horiz-adv-x="956" 
d="M573 604l274.001 0.000976562c26 0 41.5 -2.33301 46.5 -7s7.5 -12 7.5 -22c0 -17.333 -18 -26 -54 -26h-274v-254c0 -36.667 -9.66699 -54.334 -29 -53.001c-17.333 0 -26 20.333 -26 61v246h-275c-36.667 0 -54.334 9.66699 -53.001 29c0 17.333 20.333 26 61 26h267
v254c0 16.667 1 29.667 3 39s9 14 21 14c20.667 0 31 -17.667 31 -53v-254z" />
    <glyph glyph-name="comma" unicode="," horiz-adv-x="239" 
d="M45 135c26 0 38.999 -18.334 38.999 -55.001c0 -48 -23.333 -92.333 -70 -133c-39.333 -37.333 -68.666 -56 -87.999 -56c-9.33301 0 -14 5.66699 -14 17c0 6.66699 5.33301 13.334 16 20.001c36 23.333 54 51.333 54 84c0 15.333 -4.5 26 -13.5 32
s-16.167 13.333 -21.5 22c0 6.66699 7.33301 14.667 22 24l29 19c23.333 17.333 39 26 47 26z" />
    <glyph glyph-name="hyphen" unicode="-" horiz-adv-x="272" 
d="M199 317l-152 0.00195312c-24 0 -40.167 2.16699 -48.5 6.5s-12.5 13.166 -12.5 26.499c0 22 15.667 33 47 33h25h141c23.333 0 39 -2 47 -6s12 -13 12 -27c0 -14.667 -5.33301 -23.834 -16 -27.501s-25 -5.5 -43 -5.5z" />
    <glyph glyph-name="hyphen" unicode="&#x2010;" horiz-adv-x="272" 
d="M199 317l-152 0.00195312c-24 0 -40.167 2.16699 -48.5 6.5s-12.5 13.166 -12.5 26.499c0 22 15.667 33 47 33h25h141c23.333 0 39 -2 47 -6s12 -13 12 -27c0 -14.667 -5.33301 -23.834 -16 -27.501s-25 -5.5 -43 -5.5z" />
    <glyph glyph-name="period" unicode="." horiz-adv-x="186" 
d="M29 123l6.99805 -21l8 -26c0 -10 -11.667 -23 -35 -39l-16 -10c-7.33301 -4.66699 -15 -9 -23 -13c-1.33301 0 -2.66602 -0.666992 -3.99902 -2c-9.33301 0 -17.666 9.66699 -24.999 29l-16 57l9 13.5c3.33301 5 11.333 11.5 24 19.5l8 8c20.667 15.333 33.667 23 39 23
c9.33301 0 17.333 -13 24 -39z" />
    <glyph glyph-name="slash" unicode="/" horiz-adv-x="681" 
d="M957 1288l-1063 -1497c-18 -24.667 -33 -37 -45 -37c-22 0 -33 10.333 -33 31c0 8 0.666992 13.667 2 17s9.66602 15.333 24.999 36l1058 1483c19.333 26 34.333 39 45 39c7.33301 0 14.333 -2.83301 21 -8.5s10 -13.167 10 -22.5c0 -8 -6.66699 -21.667 -20 -41z" />
    <glyph glyph-name="zero" unicode="0" horiz-adv-x="956" 
d="M690 1135c95.333 0 171.334 -29.834 228.001 -89.501s85 -138.5 85 -236.5c0 -86 -17.667 -176.167 -53 -270.5s-85.666 -183.166 -150.999 -266.499c-124.667 -162 -259.334 -243 -404.001 -243c-92.667 0 -166.334 28.667 -221.001 86s-82 136.333 -82 237
c0 79.333 17.667 166.833 53 262.5s84 184.5 146 266.5c125.333 169.333 258.333 254 399 254zM645.001 1049c-114.667 0 -218.501 -65.3311 -311.501 -195.998s-139.5 -277 -139.5 -439c0 -192.667 90.333 -289 271 -289c94 0 175.667 41 245 123
c53.333 61.333 97.833 140.166 133.5 236.499s53.5 186.166 53.5 269.499c0 94 -22.167 166.667 -66.5 218s-106.166 77 -185.499 77z" />
    <glyph glyph-name="one" unicode="1" horiz-adv-x="956" 
d="M440 125l341.999 812.999c-68 -46.667 -115 -77.834 -141 -93.501s-61.667 -33.5 -107 -53.5c-92.667 -42.667 -165.667 -64 -219 -64c-31.333 0 -45.666 13.667 -42.999 41c0 27.333 24 41 72 41c212.667 0 403 110 571 330c11.333 14.667 21 22 29 22
c10.667 0 16 -4.66699 16 -14c0 -1.33301 -0.333008 -3.66602 -1 -6.99902s-9.66699 -19.333 -27 -48c-46.667 -79.333 -93.334 -179.666 -140.001 -300.999l-202 -539l-19 -62c0 -10.667 4.66699 -16 14 -16c12.667 4 22.334 8 29.001 12l27 9c10.667 0 16 -6.33301 16 -19
c0 -6.66699 -9.16699 -17.5 -27.5 -32.5s-50 -36.5 -95 -64.5s-76.5 -42 -94.5 -42c-16.667 0 -25 6 -25 18c0 4 2.5 12.5 7.5 25.5s10.833 27.833 17.5 44.5z" />
    <glyph glyph-name="two" unicode="2" horiz-adv-x="956" 
d="M344 156c62.667 -15.333 118.159 -28.498 166.492 -39.498s85.5 -16.5 111.5 -16.5c41.333 0 81 9 119 27s71.333 42.667 100 74c16.667 17.333 28.334 26 35.001 26c11.333 0 17 -5.33301 17 -16c0 -6.66699 -8.66699 -19.334 -26 -38.001s-39.333 -38.667 -66 -60
c-83.333 -70 -168.666 -105 -255.999 -105c-29.333 0 -52 2 -68 6c-27.333 10 -50.666 17.667 -69.999 23c-77.333 23.333 -136 35 -176 35c-27.333 0 -45.666 -1.33301 -54.999 -4l-19 -2c-12 0 -18 4.66699 -18 14c0 8 4 14.667 12 20c14 6 25 11 33 15
c49.333 21.333 114.5 63.166 195.5 125.499s148.167 122.166 201.5 179.499c143.333 154 215 296.667 215 428c0 72 -19.667 131 -59 177s-90.666 69 -153.999 69c-83.333 0 -160.5 -34.833 -231.5 -104.5s-106.5 -146.834 -106.5 -231.501c0 -56 14.833 -101.5 44.5 -136.5
s67.5 -52.5 113.5 -52.5c42.667 0 82.334 14.333 119.001 43c8 7.33301 14.167 12.333 18.5 15s8.5 4.66699 12.5 6c8 -6.66699 12 -11.667 12 -15c0 -13.333 -17 -31 -51 -53c-53.333 -36.667 -110.666 -55 -171.999 -55c-53.333 0 -98.166 18 -134.499 54
s-54.5 80.667 -54.5 134c0 110.667 52.667 215.167 158 313.5s218 147.5 338 147.5c78 0 141.5 -25.167 190.5 -75.5s73.5 -116.5 73.5 -198.5c0 -78 -23.833 -161 -71.5 -249s-115.167 -172.333 -202.5 -253c-34 -31.333 -72.667 -63.666 -116 -96.999
s-103 -76.666 -179 -129.999z" />
    <glyph glyph-name="three" unicode="3" horiz-adv-x="956" 
d="M665 692c132.667 -47.333 198.999 -141.333 198.999 -282c0 -130 -51.833 -246.833 -155.5 -350.5s-221.834 -155.5 -354.501 -155.5c-79.333 0 -155.166 19.833 -227.499 59.5s-108.5 81.167 -108.5 124.5c0 36.667 17 55 51 55c22 0 44.667 -19 68 -57
c28.667 -46.667 62.5 -81.167 101.5 -103.5s84.833 -33.5 137.5 -33.5c94.667 0 180.834 43 258.501 129s116.5 182.333 116.5 289c0 66.667 -17.667 123.167 -53 169.5s-79 69.5 -131 69.5l-35 -2l-20 -2c-15.333 0 -23 6.33301 -23 19c0 10.667 10.333 19.334 31 26.001
c56 18 104.5 54 145.5 108s61.5 108.333 61.5 163c0 43.333 -15.833 80.666 -47.5 111.999s-69.834 47 -114.501 47c-83.333 0 -161.333 -45.667 -234 -137c-5.33301 -8 -9.66602 -13 -12.999 -15s-5.66602 -3 -6.99902 -3c-14 0 -21 5.33301 -21 16c0 8 9 24 27 48
s37.667 46.333 59 67c38.667 36.667 77 63.834 115 81.501s80.333 26.5 127 26.5c61.333 0 112.166 -19.5 152.499 -58.5s60.5 -87.833 60.5 -146.5c0 -44.667 -12.333 -86.834 -37 -126.501s-67.667 -85.5 -129 -137.5z" />
    <glyph glyph-name="four" unicode="4" horiz-adv-x="956" 
d="M675 283l-32.998 -94.999l-12 -45c0 -10.667 5.33301 -16 16 -16c3.33301 0 8.66602 1.33301 15.999 4s18 6.66699 32 12l16 4c9.33301 0 14 -4.66699 14 -14c0 -8 -4.33301 -15.833 -13 -23.5s-28 -18.834 -58 -33.501c-54.667 -28.667 -98.334 -43 -131.001 -43
c-19.333 0 -29 6.66699 -29 20c0 10 4.66699 27 14 51l6 15l60 162c-37.333 8 -62 13.333 -74 16c-38 12 -75 23.667 -111 35c-84.667 26 -156.334 39 -215.001 39c-17.333 0 -38.333 -3 -63 -9l-19 -4c-13.333 0 -20 6.33301 -20 19c0 9.33301 4.66699 21.666 14 36.999
c6 9.33301 35.333 52.333 88 129c106.667 154 234.834 290 384.501 408s270.167 177 361.5 177c26 0 39 -8.66699 39 -26c0 -12.667 -2 -25.667 -6 -39c-10 -26 -19 -50.667 -27 -74l-225 -635c34 5.33301 63 12.5 87 21.5s47.333 22.5 70 40.5
c8.66699 6.66699 15.667 11 21 13s9.33301 3.66699 12 5c12.667 0 19 -6 19 -18c0 -11.333 -21.333 -31.333 -64 -60c-53.333 -35.333 -110 -59.666 -170 -72.999zM601.002 356.001l212.999 574c16.667 47.333 25 78 25 92c0 12 -6.66699 18 -20 18
c-24.667 0 -65 -17 -121 -51s-112.667 -75.667 -170 -125c-143.333 -125.333 -258.666 -262.333 -345.999 -411c46 0 86.167 -3.83301 120.5 -11.5s99.833 -27.167 196.5 -58.5z" />
    <glyph glyph-name="five" unicode="5" horiz-adv-x="956" 
d="M483 1026l-97.0039 -214.999l70 6c104 0 190.833 -35.5 260.5 -106.5s104.5 -159.167 104.5 -264.5c0 -130.667 -48.5 -247.167 -145.5 -349.5s-207.833 -153.5 -332.5 -153.5c-72 0 -142.5 19.667 -211.5 59s-103.5 81 -103.5 125c0 32.667 15.667 49 47 49
c19.333 0 38.333 -14.333 57 -43c62 -96.667 136 -145 222 -145c92.667 0 176.5 43 251.5 129s112.5 181.333 112.5 286c0 90.667 -28 166 -84 226s-125 90 -207 90c-44.667 0 -82.667 -11.667 -114 -35c-12.667 -9.33301 -23 -14 -31 -14c-10.667 0 -16 5.33301 -16 16
c1.33301 4 3.33301 9.16699 6 15.5s9.33398 18.833 20.001 37.5c16.667 28.667 44.834 84.667 84.501 168s68.834 149.666 87.501 198.999c5.33301 13.333 13 20 23 20h16c23.333 -2.66699 43.5 -4 60.5 -4h58.5l127 4c32.667 0 63.334 9 92.001 27l29 12l14 -12
c0 -8 -19 -34 -57 -78c-24.667 -26 -45.5 -41 -62.5 -45s-71.5 -6 -163.5 -6z" />
    <glyph glyph-name="six" unicode="6" horiz-adv-x="956" 
d="M809 1135c42 0 77.333 -6.83203 106 -20.499s43 -30.834 43 -51.501c0 -26 -15 -39 -45 -39c-6.66699 0 -23 6.16699 -49 18.5s-48.5 20.5 -67.5 24.5s-41.5 6 -67.5 6c-128 0 -241.167 -62.833 -339.5 -188.5s-147.5 -270.834 -147.5 -435.501
c0 -105.333 20.5 -189.5 61.5 -252.5s96.167 -94.5 165.5 -94.5c84.667 0 161.167 43.833 229.5 131.5s102.5 185.834 102.5 294.501c0 64.667 -16.5 118.167 -49.5 160.5s-75.167 63.5 -126.5 63.5c-40 0 -78 -14 -114 -42s-65.667 -66 -89 -114c-8 -18 -17 -27 -27 -27
c-10.667 0 -16 5.66699 -16 17c0 9.33301 4.83301 23.5 14.5 42.5s21.834 39.5 36.501 61.5c70 101.333 155.333 152 256 152c62.667 0 113.167 -24 151.5 -72s57.5 -110.667 57.5 -188c0 -134 -51.833 -259.667 -155.5 -377s-215.834 -176 -336.501 -176
c-78.667 0 -144 34 -196 102s-78 155.333 -78 262c0 198 68 371.167 204 519.5s294.667 222.5 476 222.5z" />
    <glyph glyph-name="seven" unicode="7" horiz-adv-x="956" 
d="M897 1053c-34.667 -7.33301 -65.6689 -10.998 -93.002 -10.998h-65c-22 4.66699 -38.333 7.66699 -49 9l-152 10c-44.667 0 -85.834 -10.333 -123.501 -31s-67.5 -49.334 -89.5 -86.001c-12 -22 -23 -33 -33 -33c-10.667 0 -16 5 -16 15c0 9.33301 8.5 28.333 25.5 57
s35.167 54.667 54.5 78c56 69.333 120.667 104 194 104c38.667 0 94 -6 166 -18c26 -5.33301 53 -9.83301 81 -13.5s49 -5.5 63 -5.5c43.333 0 88.333 11.667 135 35l12 4l12 -12c-1.33301 -2.66699 -2.66602 -6 -3.99902 -10s-6 -12.333 -14 -25
c-57.333 -87.333 -138.666 -251 -243.999 -491c-54.667 -124.667 -102.334 -243.667 -143.001 -357c-6.66699 -21.333 -13.167 -41.333 -19.5 -60s-9.5 -30 -9.5 -34c0 -14.667 7 -22 21 -22c4 0 9.66699 1.66699 17 5s16.833 8.66602 28.5 15.999
s20.334 11.833 26.001 13.5s9.83398 3.16699 12.501 4.5c9.33301 0 14 -6.33301 14 -19c0 -8 -4.5 -15.833 -13.5 -23.5s-30.5 -23.167 -64.5 -46.5c-68 -44.667 -120.333 -67 -157 -67c-24.667 0 -35.667 11 -33 33c0 22.667 30.667 102.334 92 239.001
c100.667 221.333 223.667 468.666 369 741.999z" />
    <glyph glyph-name="eight" unicode="8" horiz-adv-x="956" 
d="M650 752c80.667 -83.333 137.5 -153.332 170.5 -209.999s49.5 -113.667 49.5 -171c0 -102.667 -48.167 -194 -144.5 -274s-207.5 -120 -333.5 -120c-102 0 -187.167 26.667 -255.5 80s-102.5 121 -102.5 203c0 121.333 72.333 234.666 217 339.999
c53.333 36.667 136 81 248 133c-71.333 76.667 -107 139.667 -107 189c0 27.333 14 57.333 42 90s64 60.667 108 84c50.667 27.333 97 41 139 41c49.333 0 96.5 -20.5 141.5 -61.5s67.5 -83.5 67.5 -127.5c0 -35.333 -29.333 -73.333 -88 -114
c-13.333 -10 -29 -19.667 -47 -29s-53 -27 -105 -53zM622 784.001c58.667 24.667 101.667 49.667 129 75s41 54.333 41 87c0 34 -16 65.333 -48 94s-67.333 43 -106 43c-34 0 -65 -12.5 -93 -37.5s-42 -52.5 -42 -82.5s15 -64.333 45 -103l43 -47zM530 705.001
c-126 -52 -223.833 -116.334 -293.5 -193.001s-104.5 -156.667 -104.5 -240c0 -73.333 26.667 -133.166 80 -179.499s123 -69.5 209 -69.5c96.667 0 178.5 30 245.5 90s100.5 133.667 100.5 221c0 72 -37.333 152.333 -112 241l-84 93z" />
    <glyph glyph-name="nine" unicode="9" horiz-adv-x="956" 
d="M178 139c9.33301 0 15.501 -0.332031 18.501 -0.999023s20.833 -8.83398 53.5 -24.501s69.334 -23.5 110.001 -23.5c131.333 0 246.166 63.5 344.499 190.5s147.5 275.833 147.5 446.5c0 100 -20.833 181 -62.5 243s-95.834 93 -162.501 93
c-86.667 0 -164.334 -44 -233.001 -132s-103 -186 -103 -294c0 -65.333 16.333 -119.166 49 -161.499s75.667 -63.5 129 -63.5c82 0 149 51.667 201 155c10.667 19.333 20 29 28 29c12.667 0 19 -6 19 -18c0 -14 -11 -38.667 -33 -74
c-71.333 -120 -163.666 -180 -276.999 -180c-60 0 -109.833 23.167 -149.5 69.5s-59.5 105.5 -59.5 177.5c0 139.333 51.333 268.5 154 387.5s214 178.5 334 178.5c84.667 0 152.167 -34.167 202.5 -102.5s75.5 -159.833 75.5 -274.5c0 -187.333 -68.167 -356 -204.5 -506
s-289.833 -225 -460.5 -225c-49.333 0 -89 6.16699 -119 18.5s-45 29.166 -45 50.499c0 27.333 14.333 41 43 41z" />
    <glyph glyph-name="colon" unicode=":" horiz-adv-x="313" 
d="M110 119l6.99805 -21l8 -26c0 -10 -11.667 -23 -35 -39l-16 -10c-7.33301 -4.66699 -15 -9 -23 -13c-1.33301 0 -2.66602 -0.666992 -3.99902 -2c-9.33301 0 -17.666 9.66699 -24.999 29l-16 57l9 13.5c3.33301 5 11.333 11.5 24 19.5l8 8c20.667 15.333 33.667 23 39 23
c9.33301 0 17.333 -13 24 -39zM212.998 639c9.33301 0 17.3311 -13.001 23.998 -39.001l7 -16l8 -31c0 -9.33301 -11.667 -22.333 -35 -39l-16 -10c-7.33301 -4 -15 -8 -23 -12c-1.33301 0 -2.66602 -1 -3.99902 -3c-9.33301 0 -17.666 9.66699 -24.999 29l-16 57
c2.66699 4.66699 5.66699 9.33398 9 14.001s11.333 11 24 19l8 8c20.667 15.333 33.667 23 39 23z" />
    <glyph glyph-name="semicolon" unicode=";" horiz-adv-x="366" 
d="M291 598l6 -16.001l8 -31c0 -9.33301 -11.667 -22.333 -35 -39l-16 -10c-6.66699 -4 -14.334 -8.33301 -23.001 -13c-1.33301 0 -2.66602 -0.666992 -3.99902 -2c-9.33301 0 -17.333 9.66699 -24 29l-17 57c2.66699 4.66699 5.83398 9.33398 9.50098 14.001
s11.5 11 23.5 19l8 8c20.667 15.333 33.667 23 39 23c9.33301 0 17.666 -13 24.999 -39zM139 134.999c26 0 38.999 -18.334 38.999 -55.001c0 -48 -23.333 -92.333 -70 -133c-39.333 -37.333 -68.666 -56 -87.999 -56c-9.33301 0 -14 5.66699 -14 17
c0 6.66699 5.33301 13.334 16 20.001c36 23.333 54 51.333 54 84c0 15.333 -4.5 26 -13.5 32s-16.167 13.333 -21.5 22c0 6.66699 7.33301 14.667 22 24l29 19c23.333 17.333 39 26 47 26z" />
    <glyph glyph-name="less" unicode="&#x3c;" horiz-adv-x="1024" 
d="M1038 1235v-53l-699 -459l699 -463v-139l-840 555v12z" />
    <glyph glyph-name="equal" unicode="=" horiz-adv-x="956" 
d="M847 453h-604c-23.333 0 -38 1.66699 -44 5s-9 11 -9 23c0 18 20.333 27 61 27h596c26 0 41.5 -2.33301 46.5 -7s7.5 -12 7.5 -22c0 -17.333 -18 -26 -54 -26zM847 643h-604c-23.333 0 -38 1.66699 -44 5s-9 11.333 -9 24c0 17.333 20.333 26 61 26h596
c26 0 41.5 -2.33301 46.5 -7s7.5 -11.667 7.5 -21c0 -18 -18 -27 -54 -27z" />
    <glyph glyph-name="greater" unicode="&#x3e;" horiz-adv-x="1024" 
d="M198 121v53l698 459l-698 463v139l840 -555v-12z" />
    <glyph glyph-name="question" unicode="?" horiz-adv-x="712" 
d="M546 420c11.333 0 17 -6.33301 17 -19c0 -9.33301 -15.667 -26.333 -47 -51l-31 -24c-15.333 -12.667 -27 -21.334 -35 -26.001s-16 -7 -24 -7c-3.33301 0 -7.66602 2 -12.999 6c-9.33301 8 -23.833 26 -43.5 54s-30.667 43.333 -33 46s-3.5 7 -3.5 13
c0 12 11 25.667 33 41c94 66.667 173.833 153.5 239.5 260.5s98.5 204.5 98.5 292.5c0 62.667 -15 114.5 -45 155.5s-69 61.5 -117 61.5c-60 0 -118.667 -32.833 -176 -98.5s-86 -132.5 -86 -200.5c0 -19.333 3.33301 -44.666 10 -75.999l4 -31c0 -13.333 -6 -20 -18 -20
c-13.333 0 -24.166 11.167 -32.499 33.5s-12.5 52.166 -12.5 89.499c0 87.333 38.833 172.5 116.5 255.5s157.5 124.5 239.5 124.5c67.333 0 120.666 -22.5 159.999 -67.5s59 -106.167 59 -183.5c0 -87.333 -31.333 -185 -94 -293s-144.334 -203.667 -245.001 -287
c-19.333 -15.333 -29 -27.666 -29 -36.999c0 -6.66699 4.66699 -17.667 14 -33c8 -9.33301 16.333 -14 25 -14c8 0 13 0.666992 15 2s14.667 10.333 38 27zM368 193c6.66699 0 11.168 -1.16699 13.501 -3.5s7.5 -15.5 15.5 -39.5l14 -41c0 -7.33301 -1.66699 -13.333 -5 -18
s-11.5 -11.834 -24.5 -21.501s-26.833 -18.5 -41.5 -26.5c-2 -1.33301 -5 -2.66602 -9 -3.99902c-6.66699 0 -12.667 9 -18 27l-12 30l-9 31c0 5.33301 2.5 10.5 7.5 15.5s17.5 15.5 37.5 31.5c8.66699 6.66699 15.667 11 21 13s8.66602 4 9.99902 6z" />
    <glyph glyph-name="at" unicode="@" horiz-adv-x="1382" 
d="M1066 739l-71 -192.001l-11 -35c0 -24.667 20 -37 60 -37c28.667 0 60 8.83301 94 26.5s65.333 41.5 94 71.5c71.333 72.667 107 175.334 107 308.001c0 128 -34.833 228.833 -104.5 302.5s-166.167 110.5 -289.5 110.5c-177.333 0 -334.166 -78.5 -470.499 -235.5
s-204.5 -337.833 -204.5 -542.5c0 -131.333 37.5 -235.833 112.5 -313.5s175.167 -116.5 300.5 -116.5c149.333 0 295.666 58.667 438.999 176c28.667 22 46.334 33 53.001 33l12 -12c0 -14 -19 -37.333 -57 -70c-147.333 -126.667 -320 -190 -518 -190
c-142 0 -253 38.5 -333 115.5s-120 185.833 -120 326.5c0 244 78.833 453.167 236.5 627.5s347.167 261.5 568.5 261.5c143.333 0 260.333 -44.833 351 -134.5s136 -203.834 136 -342.501c0 -128.667 -45 -238 -135 -328s-200 -135 -330 -135c-62.667 0 -94 21.667 -94 65
l4 29c-86 -64 -165 -96 -237 -96c-38.667 0 -70.167 11.5 -94.5 34.5s-36.5 54.5 -36.5 94.5c0 43.333 12.167 84.5 36.5 123.5s65.166 81.167 122.499 126.5c0 62.667 21.167 113.834 63.5 153.501s97.833 59.5 166.5 59.5c53.333 0 96.333 -13.667 129 -41s49 -63 49 -107
c0 -24.667 -9.66699 -63.667 -29 -117zM1017 839.999l6 37c0 25.333 -10.5 47.333 -31.5 66s-47.833 28 -80.5 28c-36 0 -68.333 -11.667 -97 -35s-43 -49.333 -43 -78l2 -16c44 23.333 88.667 35 134 35c38 0 74.667 -12.333 110 -37zM892 841.999
c-61.333 0 -122.332 -30.499 -182.999 -91.499s-91 -122.167 -91 -183.5c0 -30 9.5 -53.833 28.5 -71.5s44.167 -26.5 75.5 -26.5c61.333 0 120.666 30.667 177.999 92s86 127.666 86 198.999c0 24.667 -8.16699 44.5 -24.5 59.5s-39.5 22.5 -69.5 22.5z" />
    <glyph glyph-name="A" unicode="A" horiz-adv-x="2115" 
d="M1735 201l95.9971 243.001c-52 -18.667 -127.667 -33.667 -227 -45l-101 -10l-149 -10c-131.333 -246 -292.666 -414.667 -483.999 -506c53.333 -54.667 121 -82 203 -82c97.333 0 178.666 29.333 243.999 88c6.66699 6.66699 12 10.834 16 12.501s6.66699 3.16699 8 4.5
c11.333 0 17 -5.66699 17 -17c0 -10.667 -15.667 -27 -47 -49c-80.667 -56 -164 -84 -250 -84c-102.667 0 -184.667 34.667 -246 104c-46.667 -14.667 -83.167 -24.667 -109.5 -30s-56.166 -8 -89.499 -8c-83.333 0 -163.5 20.833 -240.5 62.5s-115.5 85.5 -115.5 131.5
c-1.33301 11.333 2.16699 20.666 10.5 27.999s18.5 11 30.5 11c15.333 0 31 -11.667 47 -35c40 -56 82.833 -97 128.5 -123s98.5 -39 158.5 -39c24.667 0 48.167 2.5 70.5 7.5s50.5 14.167 84.5 27.5c-6.66699 15.333 -10.667 24.333 -12 27
c-5.33301 10.667 -12.666 32.334 -21.999 65.001c-50.667 -20 -98 -30 -142 -30c-40.667 0 -77 8.83301 -109 26.5s-48 38.167 -48 61.5c0 20 10 30 30 30c12.667 0 28.334 -9.33301 47.001 -28c34.667 -34 73.667 -51 117 -51c31.333 0 65 8.66699 101 26l-2 37
c0 80.667 29.333 152.334 88 215.001s142.334 111.334 251.001 146.001c3.33301 4 8.66602 11.833 15.999 23.5s15.666 26.167 24.999 43.5c62 118.667 131 260 207 424c57.333 125.333 106.5 217.5 147.5 276.5s103.833 128.5 188.5 208.5c-125.333 52 -261 78 -407 78
c-37.333 0 -76.333 -3.33301 -117 -10c84.667 -96.667 127 -208 127 -334c0 -156.667 -60.167 -301.334 -180.5 -434.001s-251.5 -199 -393.5 -199c-88.667 0 -163 32.167 -223 96.5s-90 143.5 -90 237.5c0 90 25 179.167 75 267.5s118 163.166 204 224.499
c46 32.667 95.667 62 149 88s115.333 49.667 186 71c-81.333 59.333 -170.666 89 -267.999 89c-98 0 -185.667 -31.833 -263 -95.5s-116 -135.834 -116 -216.501c0 -17.333 2.83301 -31.833 8.5 -43.5s17.167 -25.834 34.5 -42.501c-13.333 -12 -26.333 -18 -39 -18
c-20 0 -35.5 7.5 -46.5 22.5s-16.5 36.167 -16.5 63.5c0 95.333 48.5 182 145.5 260s205.5 117 325.5 117c135.333 0 248.666 -36.333 339.999 -109c84.667 18 168.667 27 252 27c151.333 0 281 -25.333 389 -76c100.667 75.333 216.667 113 348 113
c61.333 0 120.666 -13.667 177.999 -41s86 -56 86 -86c0 -23.333 -11.667 -35 -35 -35c-9.33301 0 -17.333 2.66699 -24 8s-15 13.666 -25 24.999c-53.333 57.333 -126.333 86 -219 86c-90 0 -179.333 -29.333 -268 -88c22 -12.667 43.667 -25 65 -37
c3.33301 -1.33301 15.666 -10.333 36.999 -27c37.333 18 71.666 31 102.999 39s61.333 12 90 12c44.667 0 84.834 -8.16699 120.501 -24.5s53.5 -35.5 53.5 -57.5c0 -24.667 -12.333 -37 -37 -37c-10.667 0 -23 6.33301 -37 19c-43.333 36.667 -89 55 -137 55
c-39.333 0 -79.666 -11.667 -120.999 -35c102.667 -94 154 -208 154 -342c0 -95.333 -16.333 -193.666 -49 -294.999l-48 -137c26 11.333 50.333 24.5 73 39.5s47.667 34.833 75 59.5c4 4 7.66699 6.66699 11 8s6.33301 2.66602 9 3.99902
c8.66699 -6.66699 13 -11.667 13 -15c0 -6.66699 -6.83301 -18.167 -20.5 -34.5s-32.167 -34.833 -55.5 -55.5c-34 -28.667 -78.333 -56.667 -133 -84l-10 -22l-9 -23l-10 -22c-16 -34 -26.333 -56.667 -31 -68l-32 -82l-27 -65c-9.33301 -22 -14 -39 -14 -51
c0 -19.333 8 -29 24 -29c18 0 40 9.66699 66 29c14.667 10.667 24.167 17.334 28.5 20.001s8.5 4 12.5 4c10.667 0 16 -5.33301 16 -16c0 -14 -19 -34.667 -57 -62c-57.333 -44.667 -106.666 -67 -147.999 -67c-42 0 -63 19 -63 57c0 10.667 2.33301 24 7 40
s13.334 40.333 26.001 73zM1491 676.001l-33 -73.999l-70 -151l164 10c66 0 121.167 4 165.5 12s90.166 21 137.499 39c48 122.667 81.5 219.167 100.5 289.5s28.5 132.166 28.5 185.499c0 116 -47.667 214.333 -143 295c-39.333 -30 -72.666 -62 -99.999 -96
s-55.333 -77.667 -84 -131c-11.333 -23.333 -28.5 -61 -51.5 -113s-40.833 -92.333 -53.5 -121l-30 -71zM1317 723.002l-34.998 -78.0039c-13.333 -31.333 -29.333 -65.166 -48 -101.499s-37.334 -70.166 -56.001 -101.499l-11 -16l72 10l51 8l84 181
c101.333 225.333 179 381 233 467s120.333 159 199 219c-8 6.66699 -20.833 15.834 -38.5 27.501s-36.834 22.167 -57.501 31.5c-66.667 -53.333 -131.667 -132.333 -195 -237c-38 -67.333 -81 -152.666 -129 -255.999l-34 -78zM1253 370.998l-14.0039 0.00292969l-76 -6
l-39 -7c-95.333 -162 -203.666 -282.667 -324.999 -362c8 -31.333 22.333 -61.333 43 -90c58.667 27.333 107.334 57.666 146.001 90.999s81.334 82.666 128.001 147.999c19.333 27.333 42.333 62.166 69 104.499s49.334 82.833 68.001 121.5zM1055 342.001
c-80.667 -20.667 -145.666 -56.168 -194.999 -106.501s-74 -105.5 -74 -165.5l4 -37c42.667 26 88.167 67.333 136.5 124s91.166 118.334 128.499 185.001zM1049 1432c-164 -27.333 -301.668 -94.667 -413.001 -202s-167 -226 -167 -356c0 -90 27.333 -164.333 82 -223
s123 -88 205 -88c122.667 0 229.334 50.833 320.001 152.5s136 221.5 136 359.5c0 70 -19 142.333 -57 217c-23.333 44 -49.333 81.667 -78 113z" />
    <glyph glyph-name="B" unicode="B" horiz-adv-x="1910" 
d="M1738 825c78 -83.333 116.998 -178.001 116.998 -284.001c0 -157.333 -70.333 -295.333 -211 -414s-305.334 -178 -494.001 -178c-72 0 -132.333 7.83301 -181 23.5s-133 54.167 -253 115.5c-108 -70.667 -209 -106 -303 -106c-65.333 0 -123.333 12.167 -174 36.5
s-76 52.833 -76 85.5c0 23.333 11.667 35 35 35c12 0 23.5 -2.66699 34.5 -8s28.833 -17.666 53.5 -36.999c50.667 -39.333 107.334 -59 170.001 -59c65.333 0 136.333 25.333 213 76l-23 12c-34 18 -65.333 27 -94 27c-20.667 0 -31 6 -31 18
c0 6.66699 2.16699 11.334 6.5 14.001s15.166 7.66699 32.499 15c34.667 13.333 74.834 47 120.501 101s80.167 108.333 103.5 163l-91 -4c-134.667 0 -244.667 37.833 -330 113.5s-128 174.167 -128 295.5c0 183.333 87.667 341.166 263 473.499s384 198.5 626 198.5
c36.667 0 65.834 -0.666992 87.501 -2s57.167 -4.66602 106.5 -9.99902c110.667 80.667 234.334 121 371.001 121c79.333 0 153.333 -15.833 222 -47.5s103 -65.834 103 -102.501c0 -28.667 -13 -43 -39 -43c-13.333 0 -24.833 2.66699 -34.5 8s-23.834 19 -42.501 41
c-63.333 68.667 -148.666 103 -255.999 103c-53.333 0 -99.5 -6.16699 -138.5 -18.5s-85.167 -35.5 -138.5 -69.5c147.333 -34.667 263 -92.167 347 -172.5s126 -173.833 126 -280.5c0 -46.667 -7.5 -87.667 -22.5 -123s-40.833 -74.333 -77.5 -117zM1246 1466
c-69.333 14 -133.333 21 -192 21c-198 0 -368.333 -58.333 -511 -175s-214 -255.667 -214 -417c0 -106.667 39.167 -198.5 117.5 -275.5s171.5 -115.5 279.5 -115.5l80 6c18 45.333 32.333 84.333 43 117s25 81 43 145c49.333 183.333 97.5 321 144.5 413
s116.833 185.667 209.5 281zM686.998 257.999l-39 -39c23.333 -6.66699 43.5 -12.667 60.5 -18s34.5 -13 52.5 -23c44 44 81.667 90.5 113 139.5s60 110.5 86 184.5l-60 -19l-55 -12c-16.667 -35.333 -38.167 -70.833 -64.5 -106.5s-57.5 -71.167 -93.5 -106.5z
M1640 796.999c-67.333 78.667 -139 118 -215 118c-75.333 0 -113 -27 -113 -81c0 -64.667 49.667 -97 149 -97c38.667 0 68.5 3.5 89.5 10.5s50.833 23.5 89.5 49.5zM1701 859.999c18 27.333 30.9961 54.332 38.9961 80.999s12 54.334 12 83.001
c0 94 -43.333 181.333 -130 262s-199 138 -337 172c-42 -38 -75.667 -74.5 -101 -109.5s-51.666 -83.167 -78.999 -144.5c-45.333 -96.667 -89.666 -216.667 -132.999 -360l-61 -213c-6 -18 -12 -35.167 -18 -51.5s-14.333 -36.833 -25 -61.5
c40.667 6.66699 77.334 17 110.001 31c56 148.667 99.333 272.5 130 371.5s48.667 157.5 54 175.5c1.33301 5.33301 2 10 2 14c0 8 -6.66699 17.667 -20 29l-2 8c0 10.667 11.333 25.334 34 44.001s53 39.334 91 62.001c80.667 49.333 136 74 166 74
c4 0 9.33301 -3.33301 16 -10c0 -1.33301 0.666992 -2.66602 2 -3.99902c0 -10 -8.66699 -19 -26 -27c-40 -17.333 -71.5 -44.833 -94.5 -82.5s-55.167 -111.834 -96.5 -222.501l-74 -199l-71 -188l73 45c6 4 11.333 6.66699 16 8s7.66699 2.66602 9 3.99902l12 -12
c0 -10.667 -11.5 -24 -34.5 -40s-55.167 -33.333 -96.5 -52c-39.333 -91.333 -77.833 -165 -115.5 -221s-86.5 -111.333 -146.5 -166l160 -74c121.333 -52 221 -78 299 -78c118.667 0 227.834 51.833 327.501 155.5s149.5 218.5 149.5 344.5c0 54.667 -5.5 99.667 -16.5 135
s-31.5 75.666 -61.5 120.999c-82 -50.667 -162.333 -76 -241 -76c-56 0 -100.167 11.667 -132.5 35s-48.5 56 -48.5 98c0 40 17.833 72.167 53.5 96.5s83.5 36.5 143.5 36.5c86 0 173.333 -31.333 262 -94z" />
    <glyph glyph-name="C" unicode="C" horiz-adv-x="1492" 
d="M818 1434l0.00195312 19.999c-166.667 -57.333 -307 -173 -421 -347s-171 -360.667 -171 -560c0 -184.667 53 -338 159 -460s239 -183 399 -183c125.333 0 236.5 36.167 333.5 108.5s167.167 171.833 210.5 298.5c15.333 42.667 34.666 64 57.999 64
c22.667 0 34 -11.667 34 -35c0 -19.333 -9.5 -46.666 -28.5 -81.999s-44.167 -72.333 -75.5 -111c-170.667 -208.667 -374.667 -313 -612 -313c-173.333 0 -313.666 60.5 -420.999 181.5s-161 278.833 -161 473.5c0 216 67.667 421 203 615s303.333 325.667 504 395
c20 64 60.167 115.167 120.5 153.5s131.166 57.5 212.499 57.5c100 0 183.5 -32 250.5 -96s100.5 -144.667 100.5 -242c0 -72 -19.333 -133.333 -58 -184c-10.667 -12.667 -19.334 -19 -26.001 -19c-16.667 0 -25 15 -25 45c0 74 -38.5 139.333 -115.5 196
s-163.5 85 -259.5 85c-26 0 -49.5 -1.33301 -70.5 -4s-46.5 -8 -76.5 -16l-6 -31c0 -35.333 15 -57.333 45 -66c0 -27.333 -13 -41 -39 -41c-18 0 -33.167 9.33301 -45.5 28s-18.5 41.667 -18.5 69zM888.002 1518c27.333 5.33301 54.668 10.333 82.001 15s56.666 7 87.999 7
c94 0 170.333 -16.333 229 -49s112.667 -88.667 162 -168c8 36.667 12 62 12 76c0 73.333 -31.333 137.333 -94 192s-137 82 -223 82c-61.333 0 -114.5 -13.667 -159.5 -41s-77.167 -65.333 -96.5 -114zM1042 1255c-148 0 -282.002 -69.501 -402.002 -208.501
s-180 -295.167 -180 -468.5c0 -131.333 36.833 -239.666 110.5 -324.999s167.167 -128 280.5 -128c50.667 0 103.667 14 159 42s99.333 61.667 132 101c14.667 19.333 25.667 29 33 29c10.667 0 16 -5.33301 16 -16c-1.33301 -20.667 -28.666 -54.334 -81.999 -101.001
c-99.333 -86 -208.666 -129 -327.999 -129c-118.667 0 -216.167 44.333 -292.5 133s-114.5 202 -114.5 340c0 196.667 69.333 373.834 208 531.501s294 236.5 466 236.5c106 0 193.167 -32 261.5 -96s102.5 -147.333 102.5 -250c0 -69.333 -17 -133 -51 -191
s-81.667 -105 -143 -141c-23.333 -12 -45 -22.167 -65 -30.5s-34.667 -12.5 -44 -12.5c-8 0 -20.333 9 -37 27l-18 25c8 5.33301 14.667 8 20 8c72.667 0 138.667 33.833 198 101.5s89 142.167 89 223.5c0 83.333 -31 154 -93 212s-137.333 87 -226 87z" />
    <glyph glyph-name="D" unicode="D" horiz-adv-x="1906" 
d="M1885 952c10 -54.667 14.998 -109.999 14.998 -165.999c0 -214 -76.667 -399 -230 -555c-77.333 -80 -165.166 -143.333 -263.499 -190s-194.833 -70 -289.5 -70c-54.667 0 -100.667 6.16699 -138 18.5s-113.333 45.833 -228 100.5c-106.667 -66.667 -209 -100 -307 -100
c-67.333 0 -131 15 -191 45s-90 61.333 -90 94c0 26 13.667 39 41 39c13.333 0 29 -9.66699 47 -29c36.667 -38 72.167 -65.167 106.5 -81.5s72.5 -24.5 114.5 -24.5c74 0 147.667 28.667 221 86c-62.667 28.667 -112.334 43 -149.001 43c-15.333 0 -25.333 1 -30 3
s-7 7 -7 15c0 11.333 16.333 22.333 49 33s67.834 34.167 105.501 70.5s70.834 79.833 99.501 130.5l-66 -2c-146 0 -264 40.833 -354 122.5s-135 189.5 -135 323.5c0 110.667 36.833 218.5 110.5 323.5s169.834 188.5 288.501 250.5c128.667 65.333 270.667 98 426 98
c87.333 0 168.666 -9.66699 243.999 -29c71.333 52 134.5 88.167 189.5 108.5s117.5 30.5 187.5 30.5c113.333 0 206.833 -34 280.5 -102s110.5 -154.667 110.5 -260c0 -122.667 -52.667 -231.334 -158 -326.001zM1181 850.001l-16.999 -51.002l-34 -101l-52 -141
c44 20.667 85 49.334 123 86.001c4 4 7.83301 6.33301 11.5 7s6.16699 1.66699 7.5 3l10 -10c0 -14.667 -14.667 -34 -44 -58s-72.666 -51.667 -129.999 -83c-60 -128.667 -130.333 -238.667 -211 -330c91.333 -50.667 164 -85.5 218 -104.5s106.333 -28.5 157 -28.5
c74.667 0 151.667 23.5 231 70.5s148.333 110.167 207 189.5c44 58.667 78.833 127.334 104.5 206.001s38.5 155.334 38.5 230.001c0 41.333 -5.33301 90 -16 146c-80.667 -45.333 -165.334 -68 -254.001 -68c-35.333 0 -53 7.66699 -53 23c0 9.33301 7.33301 14 22 14h11
l38 -2c78 0 153.333 23.333 226 70c-71.333 238.667 -247.666 404.334 -528.999 497.001c-69.333 -76.667 -126.666 -172.334 -171.999 -287.001l-75 -215l-23 -63l-20 -64l-21 -63l-16 -45l-17 -47l-14 -45c-8 -26 -14 -43 -18 -51
c-12.667 -24.667 -23 -45.334 -31 -62.001c39.333 0 80.333 9 123 27l71 205l76 227l21 59c9.33301 31.333 14 51.333 14 60c0 9.33301 -4.66699 20 -14 32l-2 7c0 8 9.16699 19.167 27.5 33.5s46.666 32.333 84.999 54s74.166 40 107.499 55s56.666 22.5 69.999 22.5
c12.667 0 19 -4 19 -12c0 -9.33301 -6.33301 -16.666 -19 -21.999c-52.667 -31.333 -92 -63.833 -118 -97.5s-53.333 -90.167 -82 -169.5c-4 -10.667 -6.66699 -17.334 -8 -20.001c-6 -12.667 -15.667 -40.667 -29 -84zM944.999 452.999
c-8 -2.66699 -26.3359 -7.83301 -55.0029 -15.5s-54.667 -13.5 -78 -17.5c-43.333 -64 -93.666 -124 -150.999 -180c22.667 -4.66699 37.5 -8 44.5 -10s28.167 -9.66699 63.5 -23l19 -6c36.667 40.667 67.334 80.5 92.001 119.5s46.334 83.167 65.001 132.5zM748.996 469
l41 0.00292969c16 35.333 31.667 75.666 47 120.999l108 340c40 125.333 77 222.166 111 290.499s81.667 137.166 143 206.499c-73.333 22 -155 33 -245 33c-183.333 0 -338.5 -53.167 -465.5 -159.5s-190.5 -236.833 -190.5 -391.5c0 -132 41 -238.333 123 -319
s191.333 -121 328 -121zM1326 1489c152 -57.333 268.833 -122.832 350.5 -196.499s146.5 -172.834 194.5 -297.501c65.333 66 98 145.333 98 238c0 102 -35.167 187.5 -105.5 256.5s-157.833 103.5 -262.5 103.5c-97.333 0 -189 -34.667 -275 -104z" />
    <glyph glyph-name="E" unicode="E" horiz-adv-x="1523" 
d="M849 1409l-0.00292969 41.002c-118.667 -71.333 -186.334 -181.333 -203.001 -330c56 10 100.333 15 133 15c93.333 0 170 -21.833 230 -65.5s90 -99.167 90 -166.5c0 -57.333 -20.833 -106.166 -62.5 -146.499s-92.5 -60.5 -152.5 -60.5
c-139.333 0 -244.666 74.667 -315.999 224c-52.667 -36 -95.5 -87.333 -128.5 -154s-49.5 -138.334 -49.5 -215.001c0 -131.333 43 -244 129 -338s189.333 -141 310 -141c86 0 158 27.333 216 82s92.333 127 103 217c6.66699 54.667 21.667 82 45 82c26 0 39 -15.667 39 -47
c0 -26 -6.16699 -55.833 -18.5 -89.5s-29.5 -65.5 -51.5 -95.5c-39.333 -57.333 -93.5 -103.666 -162.5 -138.999s-140.167 -53 -213.5 -53c-135.333 0 -248.166 45.667 -338.499 137s-135.5 206.666 -135.5 345.999c0 178.667 82 326 246 442c-8 30 -12 61.667 -12 95
c-110.667 -56 -197 -135 -259 -237s-93 -214.333 -93 -337c0 -162.667 57.333 -297.834 172 -405.501s257.334 -161.5 428.001 -161.5c148.667 0 278.334 51.833 389.001 155.5s166 225.167 166 364.5c0 40.667 -3.66699 76.334 -11 107.001l-6 45c0 39.333 17.333 59 52 59
c42 0 63 -32 63 -96c0 -192.667 -73 -357.334 -219 -494.001s-322.333 -205 -529 -205c-182.667 0 -331.334 54 -446.001 162s-172 248.667 -172 422c0 139.333 41 267 123 383s196.667 207.333 344 274c13.333 92 45 171 95 237s122 125 216 177
c22 65.333 60.667 117.5 116 156.5s119 58.5 191 58.5c96 0 177 -29.667 243 -89s99 -131.333 99 -216s-27 -154.334 -81 -209.001c-20.667 -23.333 -40 -35 -58 -35c-13.333 0 -20 7 -20 21l6 22l6 49c0 64.667 -33.5 121.5 -100.5 170.5s-144.167 73.5 -231.5 73.5
c-35.333 0 -75.666 -6.66699 -120.999 -20l-6 -41c0 -40 11.667 -67.333 35 -82c10.667 -8 19.667 -16.333 27 -25c1.33301 -4 0 -8 -4 -12c-10 -9.33301 -21 -14 -33 -14c-22 0 -40.5 9.5 -55.5 28.5s-22.5 43.5 -22.5 73.5zM643.997 1079l0.000976562 -39.001l4 -45
c45.333 12.667 85.666 19 120.999 19c52 0 97.5 -11.667 136.5 -35s58.5 -50.666 58.5 -81.999c0 -30 -14.333 -45 -43 -45c-12.667 0 -19 4 -19 12l2 8l2 19c0 20.667 -17.333 40.5 -52 59.5s-71 28.5 -109 28.5c-23.333 0 -53 -6 -89 -18
c50.667 -148 133.334 -222 248.001 -222c41.333 0 75.666 13 102.999 39s41 58 41 96c0 60.667 -29 111 -87 151s-132.333 60 -223 60c-38 0 -69.333 -2 -94 -6zM1427 1329c16 31.333 24 59.999 24 85.999c0 72.667 -29.333 134.834 -88 186.501s-129.667 77.5 -213 77.5
c-109.333 0 -186.333 -51.667 -231 -155c54.667 14.667 103 22 145 22c180 0 301 -72.333 363 -217z" />
    <glyph glyph-name="F" unicode="F" horiz-adv-x="1740" 
d="M1415 795l34.0059 0.00390625c70 0 126 17.667 168 53l23 12c9.33301 0 14 -4.66699 14 -14c1.33301 -12.667 -8.83398 -27.834 -30.501 -45.501s-48.834 -33.834 -81.501 -48.501c-23.333 -10 -48 -17.667 -74 -23s-55.333 -8 -88 -8
c-58.667 -131.333 -107.834 -234.5 -147.501 -309.5s-84.834 -148.833 -135.501 -221.5c-143.333 -208.667 -323.333 -313 -540 -313c-139.333 0 -255 38.333 -347 115c-40.667 35.333 -61 64.666 -61 87.999c0 31.333 16.333 47 49 47c19.333 0 39.333 -13.667 60 -41
c87.333 -109.333 198.333 -164 333 -164c188.667 0 343 95 463 285c41.333 64 79.666 130.833 114.999 200.5s84.333 174.167 147 313.5l-102 4c-57.333 -116 -103 -205.333 -137 -268c-28.667 -53.333 -59.334 -103.333 -92.001 -150c-119.333 -172 -254 -258 -404 -258
c-46.667 0 -89.667 10.333 -129 31s-59 44 -59 70c0 10.667 3.66699 19.667 11 27s16.666 11 27.999 11c8 0 15.667 -2.33301 23 -7s19.333 -15 36 -31c39.333 -37.333 84.333 -56 135 -56c52 0 98.833 15.333 140.5 46s85.834 83.667 132.501 159
c18.667 31.333 41.667 73 69 125c19.333 35.333 44 85 74 149l20 43l19 41l20 43l13 27h-27c-105.333 0 -158 -54.667 -158 -164c0 -8 -3.33301 -12 -10 -12c-13.333 0 -20 19.667 -20 59c0 58.667 22.167 105.834 66.5 141.501s105.833 53.5 184.5 53.5l117 266
c15.333 38 25.333 63.5 30 76.5s7 22.5 7 28.5c0 16 -5.33301 22.667 -16 20l-19 -4c-10.667 0 -16 6 -16 18c1.33301 19.333 47 53.666 137 102.999l154 69l41 11l12 -13c0 -6.66699 -5.33301 -13.334 -16 -20.001c-62 -34 -112 -90 -150 -168l-76 -158l-73 -162l-31 -69
l100 -6c50.667 106 95.5 191.5 134.5 256.5s75.5 116.667 109.5 155s72.167 69 114.5 92s81.833 34.5 118.5 34.5c38.667 0 58 -12.333 58 -37c0 -21.333 -14.333 -32 -43 -32l-33 2l-31 2c-60 0 -117 -34.833 -171 -104.5s-118.333 -193.167 -193 -370.5zM1497.01 1444
l-60.0029 3.99805c-62.667 0 -103.5 0.666992 -122.5 2s-36.833 3.33301 -53.5 6l-119 2c-26 0 -54.333 -1 -85 -3s-48 -3 -52 -3c44 -83.333 66 -170 66 -260c0 -150 -54 -280.333 -162 -391s-235.667 -166 -383 -166c-90 0 -163.333 29 -220 87s-85 132.667 -85 224
c0 132.667 56.333 247.834 169 345.501s271.334 168.167 476.001 211.5c-82 87.333 -174.333 131 -277 131c-69.333 0 -132 -20.5 -188 -61.5s-84 -87.833 -84 -140.5c0 -15.333 1 -26 3 -32s7.66699 -17.333 17 -34c-12 -12 -24 -18 -36 -18c-33.333 0 -50 21.667 -50 65
c0 65.333 37 125.333 111 180s156 82 246 82c130.667 0 247.334 -51.667 350.001 -155c52 5.33301 100.167 9.33301 144.5 12s90.5 4 138.5 4c10.667 0 80.5 -2.66699 209.5 -8s216.833 -8 263.5 -8l186 -7c69.333 0 119.833 3.5 151.5 10.5s71.167 24.167 118.5 51.5l17 4
c6.66699 -5.33301 10 -9.33301 10 -12c-1.33301 -5.33301 -3.66602 -10.5 -6.99902 -15.5s-13.333 -14.167 -30 -27.5l-104 -94l-39 -35c-18 -18 -30.333 -27 -37 -27s-12.167 5.83301 -16.5 17.5s-15 20.167 -32 25.5s-50 10.833 -99 16.5s-80.333 8.83398 -94 9.50098
s-45.167 1 -94.5 1l-74 4zM909.003 1446c-102.667 0 -189.501 -13.667 -260.501 -41s-137.833 -68.333 -200.5 -123c-39.333 -35.333 -72 -81 -98 -137s-39 -109.333 -39 -160c0 -80.667 25.833 -149 77.5 -205s115.834 -84 192.501 -84c110.667 0 211 45.833 301 137.5
s135 193.5 135 305.5c0 73.333 -19 148.333 -57 225l-31 53z" />
    <glyph glyph-name="G" unicode="G" horiz-adv-x="1497" 
d="M1224 612l-7.99707 -0.00585938c-8 8.66699 -12 14.334 -12 17.001c2.66699 14.667 35.334 40 98.001 76c27.333 14.667 59.166 28.834 95.499 42.501s64.5 20.5 84.5 20.5c15.333 0 23 -5.33301 23 -16c0 -7.33301 -3.83301 -14 -11.5 -20
s-21.334 -15.833 -41.001 -29.5s-35.667 -33.5 -48 -59.5s-34.833 -84 -67.5 -174c-56 -155.333 -104.833 -276.166 -146.5 -362.499s-87.167 -159.5 -136.5 -219.5c-68 -83.333 -146.333 -148.166 -235 -194.499s-179.667 -69.5 -273 -69.5c-94 0 -183.667 26 -269 78
s-128 107.333 -128 166c0 32.667 16.333 49 49 49c23.333 0 48 -23.333 74 -70c64 -110 164.333 -165 301 -165c83.333 0 161.166 21.833 233.499 65.5s133.166 105.5 182.499 185.5c28.667 48 59.334 106.5 92.001 175.5s72.334 158.167 119.001 267.5
c-160 -147.333 -326 -221 -498 -221c-147.333 0 -273 53.833 -377 161.5s-156 239.5 -156 395.5c0 126.667 36 253.834 108 381.501s164.667 229.167 278 304.5c47.333 31.333 99.666 57.833 156.999 79.5s122.333 38.834 195 51.501c57.333 120 152.666 180 285.999 180
c96 0 179.5 -32.833 250.5 -98.5s106.5 -144.167 106.5 -235.5c0 -68 -20.667 -130 -62 -186c-20 -24.667 -36.333 -37 -49 -37c-4 0 -7 1.33301 -9 4s-4.33301 17 -7 43c0 76.667 -41.667 146.334 -125 209.001s-174 94 -272 94l-76 -6l-4 -33
c0 -17.333 4.66699 -35 14 -53c-8 -8 -16.333 -12 -25 -12c-27.333 0 -41 21.667 -41 65v25c-174.667 -30 -320.334 -115 -437.001 -255s-175 -299.333 -175 -478c0 -148 47.833 -273.167 143.5 -375.5s212.5 -153.5 350.5 -153.5c84.667 0 166.834 21.167 246.501 63.5
s143.5 99.166 191.5 170.499c32.667 47.333 49 88.333 49 123c0 21.333 -9 32 -27 32zM962.003 1535.99h53c242 0 393.667 -88 455 -264c18 39.333 27 73.333 27 102c0 83.333 -29.833 154 -89.5 212s-131.167 87 -214.5 87c-108.667 0 -185.667 -45.667 -231 -137z
M999.003 1302.99c-139.333 0 -259.5 -56.6699 -360.5 -170.003s-151.5 -248 -151.5 -404c0 -106.667 34.167 -196.834 102.5 -270.501s150.833 -110.5 247.5 -110.5c40 0 79.667 7.5 119 22.5s74 35.5 104 61.5c15.333 14 25.666 25 30.999 33s17.666 32 36.999 72
c4 10.667 13 16 27 16c16 0 24 -8.33301 24 -25c0 -22.667 -24.667 -58.667 -74 -108c-80 -80.667 -181.667 -121 -305 -121c-109.333 0 -201.166 40 -275.499 120s-111.5 178.667 -111.5 296c0 164 59.833 308.333 179.5 433s257.834 187 414.501 187
c91.333 0 167.833 -28.667 229.5 -86s92.5 -129.666 92.5 -216.999c0 -39.333 -9.66699 -80.166 -29 -122.499s-44.666 -77.833 -75.999 -106.5c-18.667 -18 -34.334 -27 -47.001 -27l-33 12c-9.33301 6 -16 11.667 -20 17c-1.33301 0 -2 0.666992 -2 2
c6.66699 6.66699 17.667 13.334 33 20.001c36.667 16.667 66.5 44.167 89.5 82.5s34.5 80.5 34.5 126.5c0 76.667 -26.5 140.334 -79.5 191.001s-119.833 76 -200.5 76z" />
    <glyph glyph-name="H" unicode="H" horiz-adv-x="2381" 
d="M1816 784l16.0059 7.00098l17 4l73 20l60 156c47.333 124 96.333 232.333 147 325c41.333 72.667 95.666 134.667 162.999 186s128.333 77 183 77c41.333 0 73.5 -12.667 96.5 -38s34.5 -60.666 34.5 -105.999c0 -58.667 -19.667 -124.167 -59 -196.5
s-93.333 -140.5 -162 -204.5c-99.333 -94.667 -227 -170.667 -383 -228l-49 -127c-20.667 -51.333 -41 -103 -61 -155c-1.33301 -2.66699 -30 -83.334 -86 -242.001c-8.66699 -20.667 -16 -40.5 -22 -59.5s-9 -31.833 -9 -38.5c0 -16.667 9 -25 27 -25
c18.667 1.33301 42.334 12.333 71.001 33c22 19.333 37 29 45 29c11.333 0 17 -5 17 -15c0 -14.667 -34.333 -45.334 -103 -92.001c-60 -39.333 -108.333 -59 -145 -59c-32.667 0 -49 15.667 -49 47c0 14.667 2.33301 29.167 7 43.5s19.334 52.5 44.001 114.5l203 505
l-82 -24l-19 -4l-59 -15l-27 -59c-14.667 -32.667 -25.167 -54.167 -31.5 -64.5s-12.166 -15.5 -17.499 -15.5l-8 8l18 76l11 43l-52 -12c-13.333 -2.66699 -25.166 -4.66699 -35.499 -6s-21.5 -3.33301 -33.5 -6l-45 -9c-27.333 -72 -48.5 -126.167 -63.5 -162.5
s-30.833 -71.5 -47.5 -105.5c-66.667 -135.333 -133.5 -237 -200.5 -305s-159.833 -130.667 -278.5 -188c54.667 -93.333 131 -140 229 -140c45.333 0 89.666 13 132.999 39l15 6c8 -6.66699 12 -11.334 12 -14.001c0 -9.33301 -19.833 -24.333 -59.5 -45
s-82.5 -31 -128.5 -31c-108 0 -197 54 -267 162c-36.667 -10.667 -68.667 -18.167 -96 -22.5s-57.333 -6.5 -90 -6.5c-76.667 0 -147 14.333 -211 43s-96 61 -96 97c0 28.667 15.667 43 47 43c8 0 15.833 -2.16699 23.5 -6.5s20.167 -16.5 37.5 -36.5
c57.333 -67.333 129.666 -101 216.999 -101c28.667 0 52.667 1.33301 72 4s46 9 80 19c-5.33301 10.667 -9.33301 20.167 -12 28.5s-7 22.5 -13 42.5c-22.667 -5.33301 -38.834 -8.66602 -48.501 -9.99902s-23.5 -2 -41.5 -2c-40.667 0 -77 9.16699 -109 27.5
s-48 38.5 -48 60.5c0 20.667 10.667 31 32 31c11.333 0 27 -10.333 47 -31c33.333 -32.667 69 -49 107 -49c14.667 0 33 3.33301 55 10l-6 62c0 113.333 40.333 221.833 121 325.5s187 183.5 319 239.5c46.667 122.667 80.167 209 100.5 259s43.5 103.667 69.5 161
c56 118.667 115 219 177 301c-146.667 61.333 -280 92 -400 92l-88 -6c84.667 -108 127 -225.333 127 -352c0 -156 -52.167 -293.667 -156.5 -413s-224.166 -179 -359.499 -179c-98 0 -177.833 30 -239.5 90s-92.5 137.667 -92.5 233c0 97.333 23.167 189.666 69.5 276.999
s113.5 164.333 201.5 231c42 32.667 83.5 60 124.5 82s97.5 46 169.5 72c-47.333 35.333 -90.833 59.833 -130.5 73.5s-86.834 20.5 -141.501 20.5c-90 0 -166.5 -27.333 -229.5 -82s-94.5 -120 -94.5 -196c0 -38.667 11.667 -80.334 35 -125.001l-28 -6
c-46.667 0 -70 32.667 -70 98c0 96.667 43 179.834 129 249.501s188.333 104.5 307 104.5c117.333 0 223.333 -39 318 -117c34 7.33301 63.667 12.333 89 15s53.666 4 84.999 4c77.333 0 152 -6.83301 224 -20.5s146 -36.167 222 -67.5c112 106 226 159 342 159
c41.333 0 78.666 -7.5 111.999 -22.5s50 -32.5 50 -52.5c0 -20.667 -10.333 -31 -31 -31c-10.667 0 -17.334 0.666992 -20.001 2c-18 9.33301 -39.333 20.5 -64 33.5s-60 19.5 -106 19.5c-83.333 0 -165.333 -40.333 -246 -121c31.333 -17.333 59.666 -33.5 84.999 -48.5
s49 -30.167 71 -45.5c-44 -20 -77.833 -42.667 -101.5 -68s-45.834 -63.666 -66.501 -114.999s-45.334 -117.333 -74.001 -198s-54 -157 -76 -229l43 8l70 14l49 11c9.33301 38 18.833 64.5 28.5 79.5s21.5 22.5 35.5 22.5c16 0 24 -9 24 -27l-12 -38l-8 -21z
M2027.01 850.001c73.333 26 134.333 52.6689 183 80.002s94.667 62.666 138 105.999c52 50.667 94.333 108.167 127 172.5s49 123.5 49 177.5c0 79.333 -32.667 119 -98 119c-83.333 0 -157 -65.333 -221 -196c-22 -42.667 -49 -105.334 -81 -188.001s-64.333 -173 -97 -271
zM1423.01 696.003l122.999 356.998c18.667 53.333 37.167 92.833 55.5 118.5s53.5 61.167 105.5 106.5l17 12c-12.667 10 -28.167 20.333 -46.5 31s-37.166 19.667 -56.499 27c-36.667 -46.667 -66.334 -90.167 -89.001 -130.5s-49.667 -97.166 -81 -170.499
c-24.667 -60.667 -48.5 -120.667 -71.5 -180s-47.5 -126.333 -73.5 -201c26 8 44.333 13.333 55 16c24.667 6.66699 45.334 11.334 62.001 14.001zM1007 1436c-68.667 -11.333 -126.832 -25.167 -174.499 -41.5s-93.834 -40.166 -138.501 -71.499
c-74 -50.667 -132.833 -115.834 -176.5 -195.501s-65.5 -162.5 -65.5 -248.5c0 -94.667 29 -171.667 87 -231s132.667 -89 224 -89c102.667 0 195 52.5 277 157.5s123 223.167 123 354.5c0 84.667 -20.667 166 -62 244c-16 28.667 -35.667 56.667 -59 84zM1220.01 580
c-110.667 -42.667 -199.168 -106.667 -265.501 -192s-99.5 -177 -99.5 -275c0 -22 3.66699 -47.333 11 -76c36.667 17.333 69.334 40.5 98.001 69.5s58 66.5 88 112.5c64 104 120 224.333 168 361zM1400.01 635c-20.667 -4 -40.167 -8.16797 -58.5 -12.501
s-38.5 -11.166 -60.5 -20.499c-32.667 -90 -61.667 -163 -87 -219s-52.333 -104.333 -81 -145c-38 -58.667 -74.333 -105.167 -109 -139.5s-78.667 -66.5 -132 -96.5c2.66699 -12 5.66699 -22.5 9 -31.5s9 -21.833 17 -38.5c70 26 130.167 63.333 180.5 112
s101.5 120 153.5 214c58.667 104 114.667 229.667 168 377z" />
    <glyph glyph-name="I" unicode="I" horiz-adv-x="1640" 
d="M1407 754l104 285.997c19.333 53.333 34.166 85.166 44.499 95.499s47.5 32.5 111.5 66.5c-110.667 90 -234.667 162.333 -372 217s-264 82 -380 82c-162 0 -297.667 -46.333 -407 -139s-164 -208 -164 -346c0 -91.333 32 -169.833 96 -235.5s141.333 -98.5 232 -98.5
c57.333 0 120.666 17 189.999 51l12 2c2.66699 0 7 -3.33301 13 -10c0 -1.33301 0.666992 -2.66602 2 -3.99902c0 -9.33301 -16.333 -21.666 -49 -36.999c-70 -30 -144 -45 -222 -45c-109.333 0 -197 33.167 -263 99.5s-99 153.833 -99 262.5
c0 153.333 71.667 283.166 215 389.499s317.333 159.5 522 159.5c146 0 291.667 -28 437 -84s270 -132.333 374 -229c-53.333 -18 -92.666 -48.167 -117.999 -90.5s-79.333 -165.833 -162 -370.5l-11 -26l43 -2c67.333 0 125.333 32.667 174 98c6 8 10.667 12.667 14 14
s5.66602 2.66602 6.99902 3.99902c2.66699 0 6.66699 -3.33301 12 -10c0 -1.33301 0.666992 -2.66602 2 -3.99902c0 -15.333 -9.5 -34.5 -28.5 -57.5s-42.5 -43.833 -70.5 -62.5s-55.333 -32.667 -82 -42s-55 -14 -85 -14h-14l-35 -88
c-53.333 -135.333 -107 -243.666 -161 -324.999s-119.333 -152.666 -196 -213.999c-138.667 -110.667 -290 -166 -454 -166c-66 0 -129.667 8.83301 -191 26.5s-116.666 43.167 -165.999 76.5c-69.333 46 -104 87.667 -104 125c0 13.333 4.5 24.5 13.5 33.5
s20.167 13.5 33.5 13.5c15.333 0 28 -4.5 38 -13.5s31.167 -35.667 63.5 -80s77.5 -78.833 135.5 -103.5s121.667 -37 191 -37c143.333 0 274.5 55.667 393.5 167s215.833 270.666 290.5 477.999l39 109l-55 4h-45c-48 -177.333 -134.5 -326.5 -259.5 -447.5
s-254.833 -181.5 -389.5 -181.5c-52 0 -102.333 12.333 -151 37s-73 50.667 -73 78c0 22 11.667 33 35 33c12.667 0 24.334 -7.66699 35.001 -23c28.667 -35.333 54.667 -59.166 78 -71.499s53.333 -18.5 90 -18.5c116 0 228.667 56 338 168s187 252 233 420
c-90 0 -158.333 -37.667 -205 -113c-14.667 -24.667 -24.667 -37 -30 -37c-2.66699 0 -5.83398 2.16699 -9.50098 6.5s-5.5 7.16602 -5.5 8.49902c0 6.66699 5.66699 20.334 17 41.001c5.33301 9.33301 12 20 20 32c27.333 40 58.166 70.5 92.499 91.5
s78.833 37.167 133.5 48.5c2.66699 21.333 5.33398 46 8.00098 74s4 57 4 87c0 114.667 -34.167 211 -102.5 289s-153.166 117 -254.499 117c-73.333 0 -137.333 -28 -192 -84s-82 -122.333 -82 -199c0 -54.667 14 -100 42 -136s62.333 -54 103 -54h15l18 2
c10 0 15 -4 15 -12c1.33301 -7.33301 -5.5 -13.666 -20.5 -18.999s-34.833 -8 -59.5 -8c-52 0 -95.833 19.833 -131.5 59.5s-53.5 88.834 -53.5 147.501c0 92.667 38.333 172.5 115 239.5s168 100.5 274 100.5c112 0 205 -40.333 279 -121s111 -182.334 111 -305.001
c0 -44 -6.33301 -100.667 -19 -170h17z" />
    <glyph glyph-name="J" unicode="J" horiz-adv-x="1785" 
d="M1652 858l-61.0029 -176l-29 -88c-92.667 -286.667 -215.834 -506.167 -369.501 -658.5s-325.5 -228.5 -515.5 -228.5c-98 0 -179.833 31.5 -245.5 94.5s-98.5 142.167 -98.5 237.5c0 88.667 35.167 182.5 105.5 281.5s157.5 178.5 261.5 238.5
c60 35.333 132.333 67.333 217 96s148.334 43 191.001 43c34 0 51 -13 51 -39c0 -14.667 -6.16699 -25.167 -18.5 -31.5s-35.5 -9.5 -69.5 -9.5c-61.333 0 -119.666 -7.5 -174.999 -22.5s-109 -36.167 -161 -63.5c-92.667 -51.333 -167.667 -119.333 -225 -204
s-86 -170.667 -86 -258c0 -90.667 29.333 -164.667 88 -222s133.667 -86 225 -86c99.333 0 194.833 31.5 286.5 94.5s173.667 153.167 246 270.5s139.833 251.666 202.5 402.999c6.66699 16.667 14.334 34 23.001 52c26 70.667 64.5 173.667 115.5 309s113 246.333 186 333
s140.833 130 203.5 130c24.667 0 37 -11 37 -33c0 -19.333 -20 -33.333 -60 -42s-73.667 -22.667 -101 -42s-57.666 -52.666 -90.999 -99.999c-50 -74 -94.333 -167 -133 -279zM1327 723l98.002 295c18 52 38.167 89.833 60.5 113.5s67.166 54.834 134.499 93.501
c-101.333 86 -207.333 151.833 -318 197.5s-219.334 68.5 -326.001 68.5c34.667 -54.667 59.5 -106.834 74.5 -156.501s22.5 -104.167 22.5 -163.5c0 -146 -50.5 -274.167 -151.5 -384.5s-217.833 -165.5 -350.5 -165.5c-92.667 0 -169.5 31.667 -230.5 95
s-91.5 142.666 -91.5 237.999c0 130 55.333 249 166 357s252 181.667 424 221c-70.667 61.333 -151.667 92 -243 92c-83.333 0 -155.166 -23.167 -215.499 -69.5s-90.5 -101.5 -90.5 -165.5l2 -33c-40.667 0 -61 17.667 -61 53c0 61.333 38.5 118 115.5 170
s162.167 78 255.5 78c129.333 0 237.666 -37 324.999 -111l90 4c109.333 0 219 -19 329 -57s215 -93.333 315 -166c47.333 -34 71 -60 71 -78c0 -9.33301 -8 -17.333 -24 -24c-52 -24.667 -91 -59.5 -117 -104.5s-48.667 -94.167 -68 -147.5l-30 -92l-31 -95l-33 -92
c-54.667 -152.667 -103 -271.334 -145 -356.001c-48 -95.333 -101.333 -176.666 -160 -243.999c-127.333 -144.667 -259 -217 -395 -217c-48 0 -91.833 11.667 -131.5 35s-59.5 48.666 -59.5 75.999c0 23.333 10.333 35 31 35c12 0 26.333 -11 43 -33
c32.667 -48 81 -72 145 -72c134 0 253.667 93 359 279c20 36.667 42 82.334 66 137.001s49 117.334 75 188.001zM887.999 1487c-166 -18 -300.332 -74 -402.999 -168s-154 -209.333 -154 -346c0 -84.667 27.667 -156 83 -214s122.666 -87 201.999 -87
c108 0 202.167 46.333 282.5 139s120.5 202 120.5 328c0 90 -23 176 -69 258l-37 57z" />
    <glyph glyph-name="K" unicode="K" horiz-adv-x="2183" 
d="M1071 1466l-44.9951 0.00195312c48.667 -53.333 84 -106.166 106 -158.499s33 -108.5 33 -168.5c0 -150.667 -55.333 -285.334 -166 -404.001s-236.334 -178 -377.001 -178c-88.667 0 -164.334 32.167 -227.001 96.5s-94 142.833 -94 235.5
c0 96.667 28.333 190.5 85 281.5s135.334 167.167 236.001 228.5c38.667 23.333 75 42.166 109 56.499s80.333 30.166 139 47.499c-68 42.667 -137 64 -207 64c-86 0 -159.667 -21.833 -221 -65.5s-92 -96.5 -92 -158.5c0 -10.667 0.666992 -18 2 -22
s6.66602 -11.667 15.999 -23l4 -10c0 -12 -11.333 -18 -34 -18c-15.333 0 -27.833 5.5 -37.5 16.5s-14.5 25.833 -14.5 44.5c0 75.333 38.333 140.333 115 195s169 82 277 82c96.667 0 188.667 -27.333 276 -82l135 6c142 0 280.667 -27.333 416 -82
c138 121.333 293.667 182 467 182c114.667 0 209.167 -31.333 283.5 -94s111.5 -143.334 111.5 -242.001c0 -108.667 -59.667 -214.334 -179 -317.001s-243.333 -154 -372 -154c-49.333 0 -74 11.667 -74 35c0 15.333 9 23 27 23l25 -4c20 -7.33301 39.667 -11 59 -11
c101.333 0 197 43 287 129s135 177.667 135 275c0 88.667 -34.5 162.667 -103.5 222s-153.833 89 -254.5 89c-134 0 -257.667 -50.333 -371 -151c26 -11.333 53.667 -25.5 83 -42.5s51.333 -31.5 66 -43.5l-24 -21c-28.667 -23.333 -49.834 -42.166 -63.501 -56.499
s-26.334 -31 -38.001 -50s-30.5 -61.167 -56.5 -126.5l-43 -115l-84 -254l137 174c42.667 53.333 90 109.333 142 168c60 66.667 109 118.667 147 156c138 134.667 241.667 202 311 202c38.667 0 58 -15.667 58 -47c0 -18.667 -5.16699 -31.5 -15.5 -38.5
s-39.5 -14.5 -87.5 -22.5c-84.667 -16.667 -197.334 -95.334 -338.001 -236.001c-40.667 -42 -80.834 -84.833 -120.501 -128.5s-74.5 -85.5 -104.5 -125.5c15.333 -21.333 28.333 -44.333 39 -69s25.667 -65 45 -121l98 -287c33.333 -98 58.5 -160 75.5 -186
s39.833 -39 68.5 -39c17.333 0 31.5 2.66699 42.5 8s32.167 21.666 63.5 48.999c12.667 8.66699 23 13 31 13c12 0 18 -6.33301 18 -19c0 -5.33301 -2.33301 -11.166 -7 -17.499s-20.667 -20.833 -48 -43.5c-72 -56 -130 -84 -174 -84c-30 0 -55.5 17.333 -76.5 52
s-49.5 108 -85.5 220l-90 289l-12 35c-11.333 36.667 -20.333 60.834 -27 72.501s-14.667 17.5 -24 17.5c-11.333 0 -23.833 -6.16699 -37.5 -18.5s-34.834 -35.5 -63.501 -69.5c-50 -134 -90.5 -231 -121.5 -291s-68.167 -116.667 -111.5 -170
c-72.667 -88.667 -158.834 -158.334 -258.501 -209.001s-201.834 -76 -306.501 -76c-82 0 -156.5 17.833 -223.5 53.5s-100.5 75.834 -100.5 120.501c0 11.333 3.33301 21 10 29s16.334 12 29.001 12c14.667 0 27.667 -5.33301 39 -16
c2.66699 -2.66699 14.334 -16.334 35.001 -41.001c64 -79.333 145.667 -119 245 -119c90.667 0 182.667 29 276 87s166 130.667 218 218c20.667 36 48.667 98 84 186s78.333 203 129 345c66.667 190.667 113.334 311 140.001 361s77 107.667 151 173
c-10 8.66699 -23.5 17.667 -40.5 27s-41.833 22.333 -74.5 39c-20.667 -20.667 -38.834 -42.667 -54.501 -66s-30.167 -48.666 -43.5 -75.999c-31.333 -68 -57.333 -129.333 -78 -184l-92 -252c-76.667 -210 -133 -353.333 -169 -430s-76.667 -138 -122 -184
c-90 -91.333 -189.667 -137 -299 -137c-56 0 -105.833 11.5 -149.5 34.5s-65.5 50.167 -65.5 81.5c0 11.333 3.33301 20.333 10 27s15.667 9.33398 27 8.00098c13.333 0 28.333 -9.33301 45 -28c28.667 -36 53.834 -60.167 75.501 -72.5s51.834 -18.5 90.501 -18.5
c65.333 0 130 28.667 194 86c40 36 74 79.167 102 129.5s62.333 132.833 103 247.5l168 432c54.667 138 93.334 228.833 116.001 272.5s57 92.167 103 145.5c-64 30 -126.333 53.167 -187 69.5s-118.334 24.5 -173.001 24.5zM934.005 1458
c-138 -13.333 -250.666 -54.332 -337.999 -122.999c-63.333 -46 -113.333 -106.333 -150 -181s-55 -150.667 -55 -228c0 -88.667 27.667 -161.334 83 -218.001s126.666 -85 213.999 -85c109.333 0 203.833 47.333 283.5 142s119.5 207 119.5 337c0 100.667 -28 192 -84 274
l-47 58z" />
    <glyph glyph-name="L" unicode="L" horiz-adv-x="1900" 
d="M567 119l-25.0029 14.002c-100.667 -61.333 -206.334 -92 -317.001 -92c-49.333 0 -89 10.167 -119 30.5s-45 48.5 -45 84.5c0 39.333 20.5 71.333 61.5 96s94.833 37 161.5 37c74 0 174.333 -24 301 -72c57.333 56 102.5 115.333 135.5 178s69.167 163 108.5 301l84 285
l16 55c15.333 49.333 24.666 81.5 27.999 96.5s5 28.833 5 41.5c0 16 -4.66699 36.333 -14 61c79.333 74 160.5 132.167 243.5 174.5s159.5 63.5 229.5 63.5c86 0 157.667 -25.333 215 -76c14.667 -14 27.834 -30.167 39.501 -48.5s17.5 -32.833 17.5 -43.5
c0 -24.667 -11 -37 -33 -37c-9.33301 0 -16.333 2.33301 -21 7s-14 20 -28 46c-18.667 32.667 -47.167 60 -85.5 82s-77.833 33 -118.5 33c-49.333 0 -97.666 -12.667 -144.999 -38s-88 -61.333 -122 -108c-20 -27.333 -39.667 -65.333 -59 -114
c-23.333 -60.667 -50 -141.167 -80 -241.5s-56.333 -184.5 -79 -252.5s-44 -125.333 -64 -172c-31.333 -69.333 -63.5 -126.333 -96.5 -171s-78.167 -91.334 -135.5 -140.001l72 -35c92.667 -48 168.334 -85 227.001 -111c45.333 -20 89 -37 131 -51
c90 -28.667 168.667 -43 236 -43c126.667 0 233.667 38.167 321 114.5s131 170.5 131 282.5c0 86 -31.667 160.167 -95 222.5s-139.333 93.5 -228 93.5c-98.667 0 -178 -32.333 -238 -97c-21.333 -21.333 -36.5 -42 -45.5 -62s-21.833 -58.667 -38.5 -116
c-8 -28.667 -23 -43 -45 -43c-27.333 0 -41 13.667 -41 41c0 26 16.333 66.333 49 121c40 61.333 95.167 109.833 165.5 145.5s148.5 53.5 234.5 53.5c103.333 0 187.5 -30.5 252.5 -91.5s97.5 -139.833 97.5 -236.5c0 -134 -58.333 -250.5 -175 -349.5
s-255.667 -148.5 -417 -148.5c-57.333 0 -116.666 7.16699 -177.999 21.5s-122.666 35.166 -183.999 62.499c-22 10 -47.333 22.333 -76 37c-90 46.667 -144 74 -162 82l-27 12zM498.997 152.002c-106 57.333 -197.333 86.001 -274 86.001c-31.333 0 -57 -6.5 -77 -19.5
s-30 -29.833 -30 -50.5c0 -22 15.5 -41.167 46.5 -57.5s68.833 -24.5 113.5 -24.5c44 0 80.333 4.16699 109 12.5s66 26.166 112 53.499zM1394 893.003l19 -2.00293c13.333 -4 25.5 -6.66699 36.5 -8s23.833 -2 38.5 -2c84.667 0 157.834 34.833 219.501 104.5
s92.5 152.834 92.5 249.501c0 102.667 -36.833 189.5 -110.5 260.5s-165.167 106.5 -274.5 106.5c-152 0 -284 -61.667 -396 -185c-50 -56 -92.833 -126.333 -128.5 -211s-74.5 -208.667 -116.5 -372c-52 -206.667 -99.833 -347.167 -143.5 -421.5
s-99.834 -111.5 -168.501 -111.5c-12 0 -18 4.66699 -18 14c0 11.333 11 18.333 33 21c39.333 8 73.333 36 102 84c30 54.667 54.667 119.334 74 194.001l59 248c26 110.667 52.667 199.834 80 267.501s61.666 131.5 102.999 191.5c152.667 222.667 340.334 334 563.001 334
c126.667 0 229.667 -36.833 309 -110.5s119 -169.5 119 -287.5c0 -114.667 -46.5 -215 -139.5 -301s-202.167 -129 -327.5 -129c-41.333 0 -62 11 -62 33s12.333 33 37 33z" />
    <glyph glyph-name="M" unicode="M" horiz-adv-x="2785" 
d="M1464 649l-54.0049 -101.997c-109.333 -210.667 -237.666 -371.834 -384.999 -483.501s-307 -167.5 -479 -167.5c-78 0 -154.5 17.667 -229.5 53s-112.5 71.333 -112.5 108c2.66699 27.333 18.334 41 47.001 41c14 0 24.333 -2.66699 31 -8s27 -26.333 61 -63
c26 -27.333 59.833 -49.166 101.5 -65.499s86.5 -24.5 134.5 -24.5c95.333 0 190.166 23.167 284.499 69.5s180.5 111.833 258.5 196.5c69.333 76 140 181 212 315l189 371c30 58.667 57.333 108.167 82 148.5s54.667 84.166 90 131.499c-225.333 216 -469 324 -731 324
c-183.333 0 -334 -46.833 -452 -140.5s-177 -212.167 -177 -355.5c0 -114.667 45.833 -212.167 137.5 -292.5s202.834 -120.5 333.501 -120.5c64 0 124.667 16.333 182 49l21 8l12 -10c0 -8.66699 -8 -17 -24 -25c-76.667 -42 -163.667 -63 -261 -63
c-138.667 0 -255.167 41.667 -349.5 125s-141.5 185.666 -141.5 306.999c0 156.667 75.167 293.167 225.5 409.5s327.833 174.5 532.5 174.5c143.333 0 275.666 -24.667 396.999 -74s241.333 -127.333 360 -234c236.667 264 501 396 793 396c134 0 243.667 -27.333 329 -82
s128 -124.334 128 -209.001c0 -61.333 -24.667 -117.333 -74 -168s-104.666 -76 -165.999 -76c-13.333 0 -20 5.33301 -20 16c0 8.66699 8 15 24 19c38.667 5.33301 71.667 26.5 99 63.5s41 78.5 41 124.5c0 71.333 -36.667 130.166 -110 176.499
s-166.666 69.5 -279.999 69.5c-142 0 -275.333 -31 -400 -93s-235 -151.667 -331 -269c31.333 -36 55.333 -64 72 -84c23.333 -27.333 48 -62.333 74 -105c268.667 266.667 553.334 400 854.001 400c40.667 0 61 -5 61 -15c0 -6.66699 -4.66699 -12 -14 -16
c-44 -20.667 -77.5 -46 -100.5 -76s-50.167 -84 -81.5 -162l-338 -835c-12.667 -31.333 -24.834 -61.833 -36.501 -91.5s-17.5 -49.167 -17.5 -58.5c0 -26 14.333 -39 43 -39c18 2.66699 40 13.667 66 33l20 12c10 0 15 -5.33301 15 -16c0 -15.333 -26 -40 -78 -74
c-56 -39.333 -99.667 -59 -131 -59c-35.333 0 -53 22.333 -53 67c0 22 10 61 30 117l357 932c14.667 38 31.5 68 50.5 90s55.167 52.667 108.5 92l-43 2c-103.333 0 -219.166 -31.333 -347.499 -94s-243.166 -144.667 -344.499 -246c34 -69.333 57.5 -129.333 70.5 -180
s19.5 -104 19.5 -160c0 -118.667 -28 -221.667 -84 -309s-122.667 -131 -200 -131c-42.667 0 -77 18.5 -103 55.5s-39 85.5 -39 145.5c0 154 82.667 334 248 540c-38 57.333 -84.333 117 -139 179c-27.333 -41.333 -48 -73.666 -62 -96.999
c-6.66699 -12 -25.667 -45.333 -57 -100l-41 -80l-53 -102zM1892 918.003c-139.333 -166.667 -209 -321.667 -209 -465c0 -52 10.167 -93.667 30.5 -125s47.5 -47 81.5 -47c52 0 95.167 28 129.5 84s51.5 125.333 51.5 208c0 109.333 -28 224.333 -84 345zM1472 1047
l-74.002 -168.004l-37 -82c-98 -218.667 -176.333 -365.667 -235 -441c-162.667 -215.333 -337.667 -323 -525 -323c-47.333 0 -90.833 10.833 -130.5 32.5s-59.5 45.5 -59.5 71.5c0 20.667 12.333 31 37 31c6.66699 0 14.167 -2.33301 22.5 -7s19.833 -14.667 34.5 -30
c40.667 -39.333 86.334 -59 137.001 -59c79.333 0 160.333 36.5 243 109.5s158.667 176.5 228 310.5c32.667 62.667 73.334 149.334 122.001 260.001s90 210.334 124 299.001c9.33301 24 14 40.333 14 49c0 16 -8 24 -24 24c-6.66699 0 -14.5 -1.66699 -23.5 -5
s-25.833 -10.333 -50.5 -21c-1.33301 -1.33301 -5.33301 -2.66602 -12 -3.99902l-12 12c0 9.33301 6.33301 18.5 19 27.5s37 20.167 73 33.5c43.333 19.333 87.5 35.833 132.5 49.5s75.167 20.5 90.5 20.5c12 0 18 -5.33301 18 -16
c-2.66699 -7.33301 -5.33398 -11.666 -8.00098 -12.999c-23.333 -16 -41.666 -36.333 -54.999 -61z" />
    <glyph glyph-name="N" unicode="N" horiz-adv-x="2498" 
d="M1431 635l-40.998 -89.9961c-92.667 -204.667 -205 -362 -337 -472s-276.333 -165 -433 -165c-126 0 -235.333 38.333 -328 115c-39.333 31.333 -59 57 -59 77c0 15.333 4.66699 27.833 14 37.5s21.666 14.5 36.999 14.5c10.667 0 20.167 -2.83301 28.5 -8.5
s23.5 -20.834 45.5 -45.501c50 -52 98 -88.833 144 -110.5s99 -32.5 159 -32.5c78.667 0 158 21.167 238 63.5s154.5 103.5 223.5 183.5s141.167 207.333 216.5 382l125 282c46 102.667 101 203 165 301c-223.333 212 -469.666 318 -738.999 318
c-166.667 0 -304.167 -45.5 -412.5 -136.5s-162.5 -206.833 -162.5 -347.5c0 -111.333 43.667 -206 131 -284s194.333 -117 321 -117c71.333 0 139.666 11.667 204.999 35l37 12c4 0 8 -2 12 -6c0 -2.66699 0.666992 -4.66699 2 -6c0 -12.667 -18 -26.167 -54 -40.5
s-76.667 -25.5 -122 -33.5s-89.666 -12 -132.999 -12c-144.667 0 -265.834 42 -363.501 126s-146.5 188 -146.5 312c0 151.333 72.333 283 217 395s315.334 168 512.001 168c131.333 0 261.833 -25.167 391.5 -75.5s252.5 -124.166 368.5 -221.499
c112 138 218.833 237 320.5 297s213.167 90 334.5 90c101.333 0 183.333 -26.5 246 -79.5s94 -123.167 94 -210.5c0 -108 -45.667 -201.667 -137 -281c-57.333 -50.667 -108 -76 -152 -76c-13.333 0 -20 5.66699 -20 17c0 9.33301 10.333 17.333 31 24
c47.333 16.667 89.5 53 126.5 109s55.5 113.333 55.5 172c0 78 -28.333 141.167 -85 189.5s-131.334 72.5 -224.001 72.5c-98.667 0 -191.667 -28.667 -279 -86s-177.333 -149.666 -270 -276.999c65.333 -65.333 119.166 -127.333 161.499 -186s85.5 -129.667 129.5 -213
c103.333 213.333 198.666 376 285.999 488c33.333 43.333 64.333 76.666 93 99.999s51.667 35 69 35c27.333 0 41 -13.667 41 -41c0 -12.667 -4.33301 -24 -13 -34s-33 -31 -73 -63c-57.333 -47.333 -118.666 -119.833 -183.999 -217.5s-128.333 -210.834 -189 -339.501
c46.667 -112 70 -226 70 -342c0 -96.667 -19.833 -181.834 -59.5 -255.501s-86.167 -110.5 -139.5 -110.5c-35.333 0 -63.833 14.333 -85.5 43s-32.5 67 -32.5 115c0 66.667 24.333 164.667 73 294l95 228c-40 83.333 -81.167 153.666 -123.5 210.999
s-101.833 122.666 -178.5 195.999c-42 -62.667 -82.667 -135.667 -122 -219l-41 -90l-41 -88zM2008 643.004c-17.333 -38 -33.166 -74.502 -47.499 -109.502s-26.333 -68.167 -36 -99.5s-18.667 -68.166 -27 -110.499s-12.5 -73.166 -12.5 -92.499
c0 -38 6.5 -67.833 19.5 -89.5s30.5 -32.5 52.5 -32.5c30 0 56 25.167 78 75.5s33 111.833 33 184.5c0 44.667 -4.83301 89.5 -14.5 134.5s-24.834 91.5 -45.501 139.5zM521.002 186.002c10 0 18.3301 -2.00195 24.9971 -6.00195s27 -19 61 -45
c28.667 -20.667 65.667 -31 111 -31c34 0 71.833 12 113.5 36s78.167 55 109.5 93c44 52 85.167 115.333 123.5 190s86.833 184.334 145.5 329.001l100 258l10 41c0 17.333 -8 26 -24 26c-4.66699 0 -10 -1 -16 -3s-16.667 -6.33301 -32 -13l-20 -6
c-9.33301 0 -14 4.66699 -14 14c0 6.66699 3.33301 12.834 10 18.501s23.334 15 50.001 28s56.334 26.667 89.001 41s64 26.833 94 37.5l70 20c9.33301 0 14 -4.66699 14 -14c-1.33301 -4 -2.66602 -7.66699 -3.99902 -11s-6 -9.33301 -14 -18
c-20.667 -20 -42.5 -52.167 -65.5 -96.5s-55.833 -117.166 -98.5 -218.499c-78 -184 -142.5 -322.5 -193.5 -415.5s-102.833 -166.167 -155.5 -219.5s-108 -94 -166 -122s-115.667 -42 -173 -42c-48 0 -91.833 9.66699 -131.5 29s-59.5 40.666 -59.5 63.999
c0 24 13.667 36 41 36z" />
    <glyph glyph-name="O" unicode="O" 
d="M696 -16c-56 -45.333 -114.005 -79.0029 -174.005 -101.003s-125.667 -33 -197 -33c-65.333 0 -124.666 11.667 -177.999 35s-80 50 -80 80c0 24.667 12.333 37 37 37c10.667 0 18 -1.33301 22 -4c20.667 -15.333 41.334 -30.333 62.001 -45
c56 -42.667 118.667 -64 188 -64c101.333 0 194.333 35 279 105c-135.333 48 -239.166 121.833 -311.499 221.5s-108.5 218.834 -108.5 357.501c0 145.333 40.333 280.333 121 405s186.334 216.334 317.001 275.001c144.667 272 340.667 408 588 408
c157.333 0 286.5 -57 387.5 -171s151.5 -259.667 151.5 -437c0 -269.333 -103.167 -516.666 -309.5 -741.999s-433.166 -338 -680.499 -338c-35.333 0 -73.333 3.66699 -114 11zM873.995 917.997l17.998 -221.997c2.66699 -18.667 4 -41 4 -67v-78
c0 -109.333 -10.167 -201.833 -30.5 -277.5s-55.166 -148.5 -104.499 -218.5c49.333 -10.667 92.333 -16 129 -16c105.333 0 207.833 28.667 307.5 86s185.334 137.5 257.001 240.5s128.667 220 171 351s63.5 258.167 63.5 381.5c0 147.333 -44 271.166 -132 371.499
s-197 150.5 -327 150.5c-154 0 -282.833 -64.833 -386.5 -194.5s-155.5 -291.5 -155.5 -485.5c0 -56 4 -118 12 -186l8 -70l10 -70l8 -69c7.33301 -54.667 11 -106 11 -154c0 -72 -8.16699 -125.167 -24.5 -159.5s-51.166 -69.833 -104.499 -106.5
c39.333 -24.667 78.666 -43.667 117.999 -57c44 60 74.833 120.667 92.5 182s26.5 137.666 26.5 228.999c0 18 -1.33301 48.5 -4 91.5s-4 65.167 -4 66.5l-8 102l-6 52c-2.66699 25.333 -5.16699 53.166 -7.5 83.499s-3.5 56.833 -3.5 79.5c0 140.667 26 252.667 78 336
c32.667 54.667 80.834 99.834 144.501 135.501s128.167 53.5 193.5 53.5c101.333 0 186.833 -37 256.5 -111s104.5 -164.667 104.5 -272c0 -108 -39 -204.333 -117 -289s-166.667 -127 -266 -127c-61.333 0 -92 17 -92 51c0 24.667 13.333 37 40 37
c10 0 29.667 -3.83301 59 -11.5s54.333 -11.5 75 -11.5c61.333 0 117.833 33.167 169.5 99.5s77.5 139.166 77.5 218.499c0 102.667 -33.333 188 -100 256s-151.334 102 -254.001 102c-95.333 0 -171 -34 -227 -102s-84 -162.333 -84 -283v-55c0 -18 1.33301 -39 4 -63z
M644.993 1180c-101.333 -36 -179.999 -99 -235.999 -189s-84 -197.667 -84 -323c0 -108 22.167 -207.833 66.5 -299.5s106.166 -166.167 185.499 -223.5c39.333 23.333 66.833 48.333 82.5 75s23.5 63.334 23.5 110.001c0 30 -6 81.667 -18 155l-37 174
c-17.333 89.333 -26 174.666 -26 255.999c0 84.667 14.333 173 43 265z" />
    <glyph glyph-name="P" unicode="P" horiz-adv-x="1871" 
d="M1739 1550c94 -65.333 161.496 -133.499 202.496 -204.499s61.5 -156.167 61.5 -255.5c0 -142 -46.167 -268.667 -138.5 -380s-196.5 -167 -312.5 -167c-47.333 0 -71 14.333 -71 43c0 9.33301 3.66699 17.833 11 25.5s16.666 11.5 27.999 11.5l47 -5l22 -2
c68.667 0 126 19.333 172 58c48 42 85.667 96.167 113 162.5s41 139.833 41 220.5c0 184 -91 327.333 -273 430c-38 -28.667 -68.333 -55.667 -91 -81s-44 -55.666 -64 -90.999c-11.333 -19.333 -32.666 -63.666 -63.999 -132.999c-22 -48 -37.667 -84.333 -47 -109
c-14.667 -38 -29.167 -78.167 -43.5 -120.5s-39.5 -118.166 -75.5 -227.499c-88.667 -270.667 -175.667 -461.167 -261 -571.5s-188 -165.5 -308 -165.5c-39.333 0 -75.166 8.16699 -107.499 24.5s-48.5 34.833 -48.5 55.5c0 24 13 36 39 36c10 0 23 -5.33301 39 -16
c28.667 -22 51.5 -36.333 68.5 -43s37.167 -10 60.5 -10c76.667 0 147 42.333 211 127c34 46 69.167 111.667 105.5 197s80.5 208 132.5 368c58.667 181.333 105.334 311.666 140.001 390.999s77.334 156.666 128.001 231.999c23.333 32.667 42.833 58.167 58.5 76.5
s43.167 45.166 82.5 80.499c-69.333 30 -131.333 51.167 -186 63.5s-116 18.5 -184 18.5c-49.333 0 -95.166 -4 -137.499 -12s-92.833 -22.333 -151.5 -43c152.667 -109.333 229 -250.666 229 -423.999c0 -146 -53.167 -281.167 -159.5 -405.5s-222.5 -186.5 -348.5 -186.5
c-90 0 -165.667 33.5 -227 100.5s-92 149.5 -92 247.5c0 127.333 43 253.166 129 377.499s195.333 217.166 328 278.499c-36 16 -65.833 26.833 -89.5 32.5s-51.167 8.5 -82.5 8.5c-82 0 -153.167 -21.167 -213.5 -63.5s-90.5 -92.833 -90.5 -151.5c0 -19.333 9 -42 27 -68
c-14.667 -9.33301 -27 -14 -37 -14c-34 0 -51 21.667 -51 65c0 72.667 40 137 120 193s171 84 273 84c72.667 0 147 -14.333 223 -43c83.333 35.333 157.166 59.833 221.499 73.5s136.166 20.5 215.499 20.5c73.333 0 138 -6.16699 194 -18.5s117.667 -33.5 185 -63.5
c96.667 53.333 190.667 80 282 80c56 0 105.5 -8.83301 148.5 -26.5s64.5 -38.167 64.5 -61.5c0 -26 -13.667 -39 -41 -39c-6.66699 0 -12.667 1 -18 3s-17.666 9 -36.999 21c-49.333 32 -109.333 48 -180 48c-67.333 0 -124.666 -17.333 -171.999 -52zM849.996 1499
c-132.667 -58.667 -235.167 -138.5 -307.5 -239.5s-108.5 -215.833 -108.5 -344.5c0 -96.667 25.333 -175 76 -235s116 -90 196 -90c106.667 0 199 47.833 277 143.5s117 208.167 117 337.5c0 105.333 -29.333 199.666 -88 282.999c-34.667 48.667 -75 88.334 -121 119.001z
M1567 989.001l-153.999 -384.998c-65.333 -164 -123 -287.5 -173 -370.5s-110.333 -156.833 -181 -221.5c-56 -52 -120.5 -92.333 -193.5 -121s-145.833 -43 -218.5 -43c-76.667 0 -147.334 16.833 -212.001 50.5s-97 69.5 -97 107.5c0 31.333 14.333 47 43 47
c14.667 0 26.5 -3 35.5 -9s27.167 -24.667 54.5 -56c56 -61.333 130.333 -92 223 -92c64 0 126.167 15.667 186.5 47s115.5 77.666 165.5 138.999c37.333 45.333 70.333 93.5 99 144.5s62 122.833 100 215.5c8 18 12.667 29 14 33c12.667 26 42 101 88 225l119 312
c11.333 28.667 19.666 51.167 24.999 67.5s8 27.166 8 32.499c0 19.333 -8.33301 29 -25 29c-9.33301 0 -18 -3.66699 -26 -11l-12 -4l-13 11c0 9.33301 27.333 31 82 65c62.667 40 126.334 72 191.001 96c36.667 14 59.667 21 69 21c4 0 7.5 -1.66699 10.5 -5
s5.16699 -5.66602 6.5 -6.99902c0 -6 -3.16699 -11.333 -9.5 -16s-18.833 -13.667 -37.5 -27c-33.333 -23.333 -60.833 -52.833 -82.5 -88.5s-50.167 -97.834 -85.5 -186.501z" />
    <glyph glyph-name="Q" unicode="Q" 
d="M1335 166c34 -46.667 61.3262 -70.002 81.9932 -70.002c12 0 25.667 7 41 21c4 4 8 6.33301 12 7s6.66699 1.66699 8 3c12.667 0 19 -4.66699 19 -14c0 -15.333 -18 -38 -54 -68c-27.333 -23.333 -50.333 -35 -69 -35c-15.333 0 -34.166 7.83301 -56.499 23.5
s-45.166 36.5 -68.499 62.5l-4 6c-142 -86 -287 -129 -435 -129c-35.333 0 -73.333 3.66699 -114 11c-56 -45.333 -114 -79 -174 -101s-125.667 -33 -197 -33c-65.333 0 -124.666 11.667 -177.999 35s-80 50 -80 80c0 24.667 12.333 37 37 37c10.667 0 18 -1.33301 22 -4
c20.667 -15.333 41.334 -30.333 62.001 -45c56 -42.667 118.667 -64 188 -64c101.333 0 194.333 35 279 105c-135.333 48 -239.166 121.833 -311.499 221.5s-108.5 218.834 -108.5 357.501c0 145.333 40.333 280.333 121 405s186.334 216.334 317.001 275.001
c144.667 272 340.667 408 588 408c157.333 0 286.5 -57 387.5 -171s151.5 -259.667 151.5 -437c0 -160 -41.667 -319.167 -125 -477.5s-196.666 -294.833 -339.999 -409.5zM873.993 917.998l17.998 -221.997c2.66699 -20 4 -42.333 4 -67v-78
c0 -109.333 -10.167 -201.833 -30.5 -277.5s-55.166 -148.5 -104.499 -218.5c49.333 -10.667 92.333 -16 129 -16c105.333 0 207.833 28.667 307.5 86s185.334 137.5 257.001 240.5s128.667 220 171 351s63.5 258.167 63.5 381.5c0 147.333 -44 271.166 -132 371.499
s-197 150.5 -327 150.5c-154 0 -282.833 -64.833 -386.5 -194.5s-155.5 -291.5 -155.5 -485.5c0 -56 4 -118 12 -186l8 -70l10 -70l8 -69c7.33301 -54.667 11 -106 11 -154c0 -72 -8.16699 -125.167 -24.5 -159.5s-51.166 -69.833 -104.499 -106.5
c39.333 -24.667 78.666 -43.667 117.999 -57c44 60 74.833 120.667 92.5 182s26.5 137.666 26.5 228.999c0 18 -1.33301 48.5 -4 91.5s-4 65.167 -4 66.5l-8 102l-6 52c-2.66699 25.333 -5.16699 53.166 -7.5 83.499s-3.5 56.833 -3.5 79.5c0 140.667 26 252.667 78 336
c32.667 54.667 80.834 99.834 144.501 135.501s128.167 53.5 193.5 53.5c101.333 0 186.833 -37 256.5 -111s104.5 -164.667 104.5 -272c0 -108 -39 -204.333 -117 -289s-166.667 -127 -266 -127c-61.333 0 -92 17 -92 51c0 24.667 13.333 37 40 37
c10 0 29.667 -3.83301 59 -11.5s54.333 -11.5 75 -11.5c61.333 0 117.833 33.167 169.5 99.5s77.5 139.166 77.5 218.499c0 102.667 -33.333 188 -100 256s-151.334 102 -254.001 102c-95.333 0 -171 -34 -227 -102s-84 -162.333 -84 -283v-55c0 -18 1.33301 -39 4 -63z
M644.991 1180c-101.333 -36 -179.999 -99 -235.999 -189s-84 -197.667 -84 -323c0 -108 22.167 -207.833 66.5 -299.5s106.166 -166.167 185.499 -223.5c39.333 23.333 66.833 48.333 82.5 75s23.5 63.334 23.5 110.001c0 30 -6 81.667 -18 155l-37 174
c-17.333 89.333 -26 174.666 -26 255.999c0 84.667 14.333 173 43 265z" />
    <glyph glyph-name="R" unicode="R" horiz-adv-x="1849" 
d="M929 813l17.001 53.002c57.333 184.667 110.5 320.334 159.5 407.001s117.167 165.334 204.5 236.001c-50.667 15.333 -94.334 25.666 -131.001 30.999s-81.667 8 -135 8c-203.333 0 -373.666 -56.333 -510.999 -169s-206 -252 -206 -418
c0 -84.667 29.333 -157.167 88 -217.5s129 -90.5 211 -90.5c27.333 0 50.166 2.83301 68.499 8.5s46.166 17.167 83.499 34.5l26 11l13 -13c0 -10.667 -15 -23.667 -45 -39c-64.667 -34 -132.334 -51 -203.001 -51c-102.667 0 -186.667 31.5 -252 94.5
s-98 144.167 -98 243.5c0 79.333 24.167 161 72.5 245s113.5 158.667 195.5 224c91.333 72.667 186.833 124.667 286.5 156s219.167 47 358.5 47c49.333 0 95.166 -2.83301 137.499 -8.5s87.833 -14.5 136.5 -26.5c106.667 56 213.334 84 320.001 84
c61.333 0 117.666 -11 168.999 -33s77 -46.667 77 -74c0 -31.333 -16.667 -47 -50 -47c-12 0 -21 1.5 -27 4.5s-34 19.167 -84 48.5s-106.333 44 -169 44c-53.333 0 -112.666 -15 -177.999 -45c207.333 -106.667 311 -260.334 311 -461.001
c0 -136.667 -44.333 -252.167 -133 -346.5s-215.667 -159.166 -381 -194.499l190 -330c33.333 -58.667 69.666 -88 108.999 -88c31.333 0 69 21.333 113 64c5.33301 5.33301 10.333 8.66602 15 9.99902s7.66699 2.66602 9 3.99902c15.333 0 23 -6 23 -18
c0 -7.33301 -4.83301 -16.333 -14.5 -27s-26.167 -27 -49.5 -49c-69.333 -61.333 -121 -92 -155 -92c-23.333 0 -42.833 7.16699 -58.5 21.5s-37.834 46.166 -66.501 95.499l-232 397l-28 4c-63.333 -162.667 -133.666 -300 -210.999 -412
c-56 -80.667 -125.667 -143.834 -209 -189.501s-170 -68.5 -260 -68.5c-123.333 0 -226.666 32 -309.999 96c-39.333 32 -59 58 -59 78c0 31.333 15 47 45 47c19.333 0 41.333 -13 66 -39c44.667 -48.667 88.834 -83.334 132.501 -104.001s96.834 -31 159.501 -31
c179.333 0 324.333 121 435 363c8 16 25.667 60.167 53 132.5s54.666 144.166 81.999 215.499l104 289l56 159c17.333 49.333 26 78.333 26 87c0 13.333 -10.333 21.333 -31 24l-12 12c0 7.33301 5.83301 15.333 17.5 24s39.334 26 83.001 52s82.5 46.667 116.5 62
c42.667 18.667 70.667 28 84 28c11.333 0 17 -4.66699 17 -14c0 -6.66699 -6.33301 -13.667 -19 -21c-46 -21.333 -83.333 -60 -112 -116c-11.333 -20.667 -22.5 -45 -33.5 -73s-25.167 -66.667 -42.5 -116l-19 -45l-8 -24l-129 -363l74 -6c57.333 0 118.333 14.333 183 43
s116.5 63.5 155.5 104.5s69.5 90.833 91.5 149.5s33 117.334 33 176.001c0 100 -27.333 186.167 -82 258.5s-134.667 127.5 -240 165.5c-73.333 -57.333 -132 -125 -176 -203c-16.667 -30 -36.834 -77.667 -60.501 -143s-46.5 -129.666 -68.5 -192.999l-35 -104l-16 -51
l-19 -51l-16 -52c-82 -256.667 -161.5 -434.167 -238.5 -532.5s-171.5 -147.5 -283.5 -147.5c-37.333 0 -72.333 9 -105 27s-49 37 -49 57c0 22 12.333 33 37 33c8 0 14.167 -1.33301 18.5 -4s14.5 -11 30.5 -25c34 -26.667 71.667 -40 113 -40c100.667 0 184 70 250 210
c26 57.333 47.833 109.333 65.5 156s40.834 114.334 69.501 203.001l43 127z" />
    <glyph glyph-name="S" unicode="S" horiz-adv-x="1464" 
d="M913 801l-30.998 43.0059c-40.667 58.667 -71 110.167 -91 154.5s-30 89.833 -30 136.5c0 107.333 56 187 168 239c67.333 118.667 159.666 178 276.999 178c98 0 174.333 -51 229 -153l2 45c0 65.333 -28 123.333 -84 174s-120.667 76 -194 76
c-64.667 0 -120.834 -17.167 -168.501 -51.5s-71.5 -74.5 -71.5 -120.5c0 -18 6.66699 -36.667 20 -56c-12 -10.667 -24 -16 -36 -16c-30 0 -45 14.333 -45 43c0 57.333 31.333 110.5 94 159.5s132.334 73.5 209.001 73.5c90 0 167.333 -30.333 232 -91s97 -132.667 97 -216
c0 -57.333 -17 -114 -51 -170c-22 -32.667 -41.667 -49 -59 -49c-2.66699 0 -5.83398 2 -9.50098 6s-6.16699 6.66699 -7.5 8l7 23c13.333 26 20 51.333 20 76c0 48.667 -22.167 93.5 -66.5 134.5s-93.833 61.5 -148.5 61.5c-78 0 -139.333 -38 -184 -114l39 4
c39.333 0 78.166 -11 116.499 -33s57.5 -44.667 57.5 -68c0 -21.333 -9.66699 -32 -29 -32c-6.66699 0 -16.167 10.833 -28.5 32.5s-29.5 38.667 -51.5 51s-44.333 18.5 -67 18.5l-52 -6c-5.33301 -10.667 -9.33301 -23.167 -12 -37.5s-4 -28.5 -4 -42.5
c0 -38 10.5 -77.833 31.5 -119.5s59.5 -99.5 115.5 -173.5c101.333 -132 171.166 -241.5 209.499 -328.5s57.5 -178.833 57.5 -275.5c0 -181.333 -72.5 -339 -217.5 -473s-314.833 -201 -509.5 -201c-162.667 0 -300 54.667 -412 164s-168 243 -168 401
c0 135.333 45.667 255 137 359s198 156 320 156c35.333 0 64.333 -4.83301 87 -14.5s34 -22.167 34 -37.5c0 -28.667 -15.333 -43 -46 -43c-6.66699 0 -21.667 4.33301 -45 13c-31.333 12 -61.333 18 -90 18c-94 0 -172.333 -38.833 -235 -116.5s-94 -174.834 -94 -291.501
c0 -148.667 54.5 -275.5 163.5 -380.5s241.5 -157.5 397.5 -157.5c176 0 321.667 52.167 437 156.5s173 235.833 173 394.5c0 58.667 -8.16699 114.667 -24.5 168s-43.5 112 -81.5 176c-8.66699 14.667 -17 30.334 -25 47.001c-16.667 22 -40.667 54 -72 96l-41 55l-39 56
c-42 61.333 -73.333 116.166 -94 164.499s-31 93.166 -31 134.499c0 23.333 0.833008 40.666 2.5 51.999s5.83398 28.666 12.501 51.999c-75.333 -40.667 -113 -103.334 -113 -188.001c0 -35.333 8.5 -71.833 25.5 -109.5s45.5 -83.167 85.5 -136.5
c109.333 -142 180.333 -246.5 213 -313.5s49 -140.5 49 -220.5c0 -124.667 -41.667 -228.667 -125 -312s-187.666 -125 -312.999 -125c-104 0 -191.167 33.167 -261.5 99.5s-105.5 147.833 -105.5 244.5c0 101.333 36.167 190.166 108.5 266.499
s157.166 114.5 254.499 114.5c31.333 0 47 -10.667 47 -32c0 -19.333 -9.66699 -29 -29 -29l-45 6l-23 2c-65.333 0 -126 -29.333 -182 -88s-84 -123.667 -84 -195c0 -90 35.5 -169.167 106.5 -237.5s154.5 -102.5 250.5 -102.5c100.667 0 185.834 35.5 255.501 106.5
s104.5 158.5 104.5 262.5c0 53.333 -8.5 103.833 -25.5 151.5s-46.167 102.5 -87.5 164.5l-41 57z" />
    <glyph glyph-name="T" unicode="T" horiz-adv-x="1734" 
d="M1728 1518l72.002 -5.00195l129 -2c95.333 0 169.666 18.667 222.999 56c13.333 8 23 12 29 12l10 -10c0 -11.333 -13.667 -27.666 -41 -48.999l-70 -64c-32.667 -31.333 -57.5 -53.833 -74.5 -67.5s-28.167 -20.5 -33.5 -20.5c-8.66699 6.66699 -15 15.834 -19 27.501
s-28.5 21.334 -73.5 29.001s-123.5 11.5 -235.5 11.5l-137 8l-383 12h-54.5c-15.667 0 -39.167 -2 -70.5 -6c27.333 -50.667 45.833 -94 55.5 -130s14.5 -80 14.5 -132c0 -151.333 -54 -281.666 -162 -390.999s-237.667 -164 -389 -164c-87.333 0 -159 28.667 -215 86
s-84 131.666 -84 222.999c0 134 55.167 249.167 165.5 345.5s269.5 167.5 477.5 213.5c-78 87.333 -169.667 131 -275 131c-72 0 -135.667 -20.833 -191 -62.5s-83 -89.167 -83 -142.5c0 -18.667 6.66699 -40.334 20 -65.001c-12 -10.667 -24.333 -16 -37 -16
c-13.333 0 -24.833 6.66699 -34.5 20s-14.5 30.333 -14.5 51c0 64 37.667 122.667 113 176s158.666 80 249.999 80c136.667 0 250.667 -51 342 -153c113.333 9.33301 207.333 14 282 14l285 -8l135 -6zM907.002 1444c-87.333 0 -161.832 -9.66699 -223.499 -29
s-121.167 -48.666 -178.5 -87.999c-62.667 -44.667 -111 -96.834 -145 -156.501s-51 -123.5 -51 -191.5c0 -79.333 26.167 -146.666 78.5 -201.999s116.166 -83 191.499 -83c112 0 212.667 45.5 302 136.5s134 193.167 134 306.5c0 69.333 -19 143.666 -57 222.999l-33 53z
M1366 1063l-177.002 -378.996c-103.333 -221.333 -202.833 -382.833 -298.5 -484.5s-196.167 -152.5 -301.5 -152.5c-52 0 -98 10.333 -138 31s-60 44.667 -60 72c0 24 12.333 36 37 36c14.667 0 33.667 -11.333 57 -34c43.333 -40 90.333 -60 141 -60
c64 0 122.333 26.667 175 80s113.334 147.666 182.001 282.999c44.667 91.333 97.667 206 159 344l101 227c24 53.333 39.5 89.166 46.5 107.499s10.5 32.5 10.5 42.5c0 14.667 -6 20.667 -18 18l-15 -2c-12 -2.66699 -18 3.33301 -18 18
c0 8.66699 8.83301 20.167 26.5 34.5s46.667 32.666 87 54.999s83.333 43.5 129 63.5s74.834 30 87.501 30c4 0 8 -2.33301 12 -7c0 -2.66699 0.666992 -4.66699 2 -6c0 -6.66699 -16.833 -20.834 -50.5 -42.501s-63.167 -54.5 -88.5 -98.5
c-8.66699 -12 -17.667 -28 -27 -48s-16.333 -34.667 -21 -44l-14 -29l-12 -28zM1781 1270c-44.667 0 -86.9951 -16.333 -126.995 -49c-40.667 -37.333 -86.334 -103 -137.001 -197c-6.66699 -10.667 -17.834 -33.5 -33.501 -68.5s-29.834 -66.167 -42.501 -93.5l-86 -188
c-134.667 -302 -259.834 -510.667 -375.501 -626s-258.167 -173 -427.5 -173c-94 0 -184.667 21.833 -272 65.5s-131 89.5 -131 137.5c0 31.333 16.333 47 49 47c15.333 0 28.333 -5.33301 39 -16c18 -22 35 -42.667 51 -62c70 -84.667 171 -127 303 -127
c92 0 172.667 20.5 242 61.5s137 107.167 203 198.5c22 31.333 48 73.666 78 126.999c26 48 56.667 107.333 92 178l102 220c74 160.667 135.167 281.334 183.5 362.001s94.5 140.667 138.5 180c65.333 58.667 128.666 88 189.999 88c40 0 60 -11.667 60 -35
c0 -9.33301 -3.5 -17.333 -10.5 -24s-15.833 -10 -26.5 -10l-31 2z" />
    <glyph glyph-name="U" unicode="U" horiz-adv-x="2050" 
d="M2109 1239l-375 -1010l-6 -16c-10 -26 -15 -42.333 -15 -49c0 -18 9.66699 -27 29 -27s40.666 9.66699 63.999 29c13.333 12 23.333 18 30 18c11.333 0 17 -6 17 -18c0 -2.66699 -3.16699 -7.83398 -9.5 -15.501s-16.166 -17.5 -29.499 -29.5c-66 -60 -120 -90 -162 -90
c-42.667 0 -64 21.667 -64 65l7 43c-76.667 -43.333 -134.834 -72.166 -174.501 -86.499s-81.167 -21.5 -124.5 -21.5c-67.333 0 -122.5 20.833 -165.5 62.5s-64.5 93.834 -64.5 156.501c0 54.667 20 136 60 244l34 92c-50 -15.333 -99 -26.333 -147 -33
s-96.333 -10 -145 -10c-183.333 0 -333 43.667 -449 131s-174 200.666 -174 339.999c0 152.667 69.667 283 209 391s308 162 506 162c120 0 236 -20.5 348 -61.5s213 -99.833 303 -176.5l-43 -24c-20.667 -12.667 -37.167 -28.834 -49.5 -48.501
s-27.166 -53.5 -44.499 -101.5c121.333 -144.667 182 -312 182 -502c0 -134.667 -28.667 -249.834 -86 -345.501s-127 -143.5 -209 -143.5c-30 0 -56.167 7.16699 -78.5 21.5s-33.5 31.166 -33.5 50.499c0 18.667 10 28 30 28c2.66699 0 5.83398 -0.333008 9.50098 -1
s14.667 -10.167 33 -28.5s41.166 -27.5 68.499 -27.5c62.667 0 116.167 42.667 160.5 128s66.5 187.333 66.5 306c0 164 -56.667 311.333 -170 442l-145 -393c43.333 23.333 78.666 47.333 105.999 72c8.66699 6.66699 15 11 19 13s6.66699 3.66699 8 5
c9.33301 0 14 -4.66699 14 -14c1.33301 -8 -2.66699 -16.167 -12 -24.5s-20.333 -16.5 -33 -24.5c-24.667 -16.667 -48.667 -33 -72 -49c-6.66699 -4 -23 -13.667 -49 -29l-90 -240c-10.667 -27.333 -18.834 -55 -24.501 -83s-8.5 -50.667 -8.5 -68
c0 -49.333 16.5 -90.333 49.5 -123s74.833 -49 125.5 -49c43.333 0 90.333 13.667 141 41s94.334 63.333 131.001 108c9.33301 12.667 20.5 32 33.5 58s27.167 59.333 42.5 100l305 829c12 33.333 18 57.333 18 72c0 15.333 -8 23 -24 23c-10 0 -15 4.66699 -15 14
c0 8 8.33301 15.833 25 23.5s35 17.5 55 29.5c26 16.667 70.333 46 133 88c48 31.333 78 47 90 47c4.66699 0 8.33398 -1.66699 11.001 -5s4.66699 -5.66602 6 -6.99902c0 -5.33301 -7.66699 -13.333 -23 -24c-60 -40 -111.667 -118 -155 -234zM1179 633.002l192 524
c-76 66.667 -147.167 114.334 -213.5 143.001s-137.833 43 -214.5 43c-107.333 0 -198.333 -30.333 -273 -91s-112 -135.334 -112 -224.001c0 -84.667 34.5 -154 103.5 -208s158.167 -81 267.5 -81c12 0 18 -3.33301 18 -10c0 -16 -30 -24 -90 -24
c-102 0 -188.167 31 -258.5 93s-105.5 137.333 -105.5 226c0 101.333 44.333 185.333 133 252s200.667 100 336 100c146 0 290 -49.667 432 -149l51 35l49 28c-168 147.333 -363 221 -585 221c-168 0 -306 -43.667 -414 -131s-162 -198.333 -162 -333
c0 -135.333 54.667 -245.333 164 -330s250.666 -127 423.999 -127c52 0 94.333 2.66699 127 8s76.334 17 131.001 35z" />
    <glyph glyph-name="V" unicode="V" horiz-adv-x="2035" 
d="M1386 1090l-180.001 -507.995l71 28l13 4c8 -6.66699 12 -11.334 12 -14.001c-1.33301 -6.66699 -10.166 -14.5 -26.499 -23.5s-45.166 -21.5 -86.499 -37.5c-25.333 -70 -42.833 -121.667 -52.5 -155s-14.5 -63.666 -14.5 -90.999c0 -58.667 19.833 -106.5 59.5 -143.5
s91.5 -55.5 155.5 -55.5c72 0 153.167 38.333 243.5 115s171.5 177 243.5 301c60 102.667 107.5 212.667 142.5 330s52.5 227.666 52.5 330.999c0 50.667 -2.83301 94.5 -8.5 131.5s-15.167 78.5 -28.5 124.5l-10 54c0 36.667 18.333 55 55 55c30 0 51.167 -20.5 63.5 -61.5
s18.5 -110.5 18.5 -208.5c0 -272 -79.333 -531.667 -238 -779c-91.333 -144.667 -188.5 -256.834 -291.5 -336.501s-201.5 -119.5 -295.5 -119.5c-75.333 0 -138 24.167 -188 72.5s-75 108.166 -75 179.499c0 30 3.5 61 10.5 93s18.833 71.333 35.5 118
c-56 -12.667 -104.833 -21.667 -146.5 -27s-85.167 -8 -130.5 -8c-178.667 0 -323.334 39.5 -434.001 118.5s-166 183.5 -166 313.5c0 68 19.833 135.833 59.5 203.5s95.5 130.167 167.5 187.5c30 23.333 61.833 44.5 95.5 63.5s77.834 41.5 132.501 67.5
c114.667 174.667 284 262 508 262c98 0 192.333 -21.833 283 -65.5s168.334 -105.167 233.001 -184.5c99.333 -121.333 149 -276 149 -464c0 -195.333 -50.167 -374 -150.5 -536s-210.5 -243 -330.5 -243c-20.667 0 -39.167 4.16699 -55.5 12.5s-24.5 18.5 -24.5 30.5
c0 7.33301 3.83301 14.666 11.5 21.999s14.834 10.333 21.501 9l30 -10c24.667 -8.66699 44.667 -13 60 -13c24.667 0 54 11 88 33s67.333 51.333 100 88c61.333 68.667 109.833 154.5 145.5 257.5s53.5 209.833 53.5 320.5c0 215.333 -75.667 390.666 -227 525.999
c-130 117.333 -267.333 176 -412 176c-91.333 0 -167 -15 -227 -45s-113.333 -80.333 -160 -151c48 8 87.667 13.333 119 16s64.666 4 99.999 4c105.333 0 200 -11.5 284 -34.5s182.667 -64.833 296 -125.5l-15 -10c-40.667 -24.667 -67.834 -46.5 -81.501 -65.5
s-32.834 -63.167 -57.501 -132.5zM1083 539.005l193.996 544c18 48 32.833 79.833 44.5 95.5s37.834 37.834 78.501 66.501c-140.667 92.667 -327 139 -559 139c-32.667 0 -55.834 -0.666992 -69.501 -2s-38.167 -6 -73.5 -14c-27.333 -60 -41 -119.333 -41 -178
c0 -90 23.833 -165.833 71.5 -227.5s111.834 -97.834 192.501 -108.501c22 -4 33 -10 33 -18c0 -10 -10.333 -15 -31 -15c-39.333 0 -81.666 9 -126.999 27c-143.333 61.333 -215 173.333 -215 336c0 47.333 9 100.333 27 159c-45.333 -18.667 -83.666 -39 -114.999 -61
s-60 -48 -86 -78c-32.667 -38 -60 -86 -82 -144s-33 -113 -33 -165c0 -113.333 48.5 -206.833 145.5 -280.5s221.5 -110.5 373.5 -110.5c88.667 0 179.334 11.667 272.001 35z" />
    <glyph glyph-name="W" unicode="W" horiz-adv-x="2461" 
d="M1839 940l-180.001 -519.997c-18 -52 -30.333 -91.333 -37 -118s-10 -48 -10 -64c0 -45.333 15.333 -81.333 46 -108s71.334 -40 122.001 -40c151.333 0 301.333 118.833 450 356.5s223 477.834 223 720.501c0 56 -2.66699 97.667 -8 125s-20.333 75.333 -45 144l-6 34
c0 33.333 15.667 50 47 50s55.166 -22.667 71.499 -68s24.5 -111.666 24.5 -198.999c0 -290.667 -87.333 -567 -262 -829s-360.334 -393 -557.001 -393c-87.333 0 -150 41 -188 123c-56 -45.333 -101.5 -76.833 -136.5 -94.5s-70.167 -26.5 -105.5 -26.5
c-52 0 -95 19 -129 57s-51 85.667 -51 143c0 40 11.667 96.667 35 170l30 97c-96.667 -40 -179.834 -68.167 -249.501 -84.5s-140.834 -24.5 -213.501 -24.5c-152.667 0 -279.5 41 -380.5 123s-151.5 185 -151.5 309c0 92 28 179.5 84 262.5s134.333 154.5 235 214.5
c48 27.333 98 50.666 150 69.999s117.667 37.666 197 54.999c166 148 370 222 612 222c122.667 0 236.334 -19.167 341.001 -57.5s191.667 -93.166 261 -164.499c65.333 -66.667 117.166 -149.5 155.499 -248.5s57.5 -200.5 57.5 -304.5
c0 -162 -50.5 -320.167 -151.5 -474.5s-204.833 -231.5 -311.5 -231.5c-22 0 -40.5 4 -55.5 12s-22.5 19 -22.5 33c0 18 9 27 27 27c9.33301 0 25 -5.66699 47 -17c14 -6.66699 27 -10 39 -10c24.667 0 52 9.5 82 28.5s59.333 44.833 88 77.5c138 160 207 339.667 207 539
c0 217.333 -75.167 395.5 -225.5 534.5s-344.166 208.5 -581.499 208.5c-104 0 -196.5 -12.833 -277.5 -38.5s-155.833 -67.167 -224.5 -124.5l127 6c225.333 0 423.333 -58 594 -174c-58.667 -34 -94.5 -59 -107.5 -75s-32.5 -62.667 -58.5 -140l-153 -447l36 21
c11.333 6.66699 21 11.667 29 15s15 6.33301 21 9l10 -10c-1.33301 -8 -12.666 -19.833 -33.999 -35.5s-48.333 -32.5 -81 -50.5l-51 -152c-27.333 -77.333 -41 -132.333 -41 -165c0 -38.667 13 -72.334 39 -101.001s57.333 -43 94 -43c58.667 0 119.334 33.667 182.001 101
l-2 41c0 25.333 2.83301 48.666 8.5 69.999s24.834 80.333 57.501 177l153 449c18 53.333 27 83.333 27 90c0 9.33301 -10.333 18.333 -31 27c-4 1.33301 -7.33301 3.66602 -10 6.99902s-4 5.66602 -4 6.99902c0 6.66699 3 13.167 9 19.5s22.667 18.166 50 35.499
c120.667 78 191 117 211 117l13 -10c0 -10 -9 -21 -27 -33c-27.333 -19.333 -48.5 -43.666 -63.5 -72.999s-38.167 -89 -69.5 -179zM1190 545.003l177.999 511.997c18 53.333 32.333 86.5 43 99.5s40.667 34.5 90 64.5c-157.333 99.333 -342.333 149 -555 149l-109 -2
c-38 -45.333 -65.833 -88.666 -83.5 -129.999s-26.5 -88 -26.5 -140c0 -94.667 26.667 -171.667 80 -231s123 -89 209 -89c26 0 39 -5.33301 39 -16c0 -11.333 -11.667 -17 -35 -17c-105.333 0 -191.166 30.5 -257.499 91.5s-99.5 139.833 -99.5 236.5
c0 98.667 39 194.334 117 287.001c-160 -27.333 -286 -88.166 -378 -182.499s-138 -208.833 -138 -343.5c0 -112 46.5 -205 139.5 -279s211.833 -111 356.5 -111c134.667 0 278 33.667 430 101z" />
    <glyph glyph-name="X" unicode="X" horiz-adv-x="2039" 
d="M1439 717l43.001 -450.999c6.66699 -65.333 12.334 -104.833 17.001 -118.5s17.334 -20.5 38.001 -20.5c24.667 0 57.334 17.667 98.001 53c4.66699 4 9 6.33301 13 7s6.66699 1.66699 8 3c9.33301 0 14 -6 14 -18c0 -16.667 -27.333 -46.667 -82 -90
c-42 -32.667 -79.333 -49 -112 -49c-31.333 0 -52.833 14.333 -64.5 43s-22.5 93.334 -32.5 194.001l-34 381c-131.333 -196.667 -244.666 -348 -339.999 -454c-183.333 -205.333 -378 -308 -584 -308c-82 0 -166 19.833 -252 59.5s-129 79.5 -129 119.5
c-2.66699 25.333 10.333 38 39 38c19.333 0 41.333 -12 66 -36c50 -50.667 96.167 -85.5 138.5 -104.5s95.166 -28.5 158.499 -28.5c82.667 0 161 17.667 235 53s151 93.333 231 174c34.667 34 76.5 81.667 125.5 143s93.167 120.666 132.5 177.999l46 66l45 67l47 66l16 25
h-45c-23.333 -4.66699 -49.333 -8.33398 -78 -11.001c-86 -134.667 -183 -264.334 -291 -389.001c-162 -185.333 -316 -278 -462 -278c-45.333 0 -86.833 9.5 -124.5 28.5s-56.5 40.167 -56.5 63.5c0 19.333 11 29 33 29c9.33301 0 15.166 -0.833008 17.499 -2.5
s16.166 -11.167 41.499 -28.5c38.667 -28.667 77.667 -43 117 -43c62.667 0 127.167 20.833 193.5 62.5s137.833 106.834 214.5 195.501c50.667 58.667 101.167 120.834 151.5 186.501s91.166 122.834 122.499 171.501c-58.667 -5.33301 -99.5 -16.5 -122.5 -33.5
s-40.833 -48.833 -53.5 -95.5c-4 -9.33301 -9.33301 -14 -16 -14c-10 0 -15 6 -15 18c0 53.333 23.667 98.833 71 136.5s112 63.834 194 78.501l32 56c11.333 17.333 21 32.166 29 44.499s15.667 24.166 23 35.499l14 24l8 12c-6.66699 68.667 -15.5 126.167 -26.5 172.5
s-26.167 90.833 -45.5 133.5c-34 76 -85.167 135.833 -153.5 179.5s-144.833 65.5 -229.5 65.5c-122.667 0 -224.334 -37.5 -305.001 -112.5s-121 -169.167 -121 -282.5c0 -98 32.167 -180.5 96.5 -247.5s144.833 -100.5 241.5 -100.5c63.333 0 121.333 17.667 174 53l15 6
l12 -14c-2.66699 -14 -15 -27.667 -37 -41c-66.667 -42 -139.667 -63 -219 -63c-108 0 -196.167 32.667 -264.5 98s-102.5 151.333 -102.5 258c0 135.333 53.333 251.333 160 348s235 145 385 145c92.667 0 176.334 -19 251.001 -57s132.334 -92 173.001 -162
c15.333 -26 27.666 -52.667 36.999 -80s24.333 -84 45 -170c112 152 223 263.5 333 334.5s226.333 106.5 349 106.5c91.333 0 165 -20.667 221 -62c35.333 -26 53 -47.667 53 -65c0 -26 -12 -39 -36 -39c-10 0 -20 2 -30 6s-24.667 16.333 -44 37
c-31.333 31.333 -60 52.833 -86 64.5s-58.667 17.5 -98 17.5c-225.333 0 -444 -151 -656 -453v-8c1.33301 -8 3.33301 -24.333 6 -49v-14l9 -80c223.333 327.333 439.666 491 648.999 491c36.667 0 69.334 -6.83301 98.001 -20.5s43 -29.834 43 -48.501
c0 -10 -3.33301 -18.333 -10 -25s-15.667 -10 -27 -10c-8 0 -23 6.66699 -45 20c-35.333 22 -73.666 33 -114.999 33c-86 0 -175.667 -41.667 -269 -125s-196 -213 -308 -389c129.333 0 212.166 6.83301 248.499 20.5s72.833 45.167 109.5 94.5c10 10.667 18.333 16 25 16
c9.33301 0 14 -6.66699 14 -20c-2.66699 -22 -21.334 -50.167 -56.001 -84.5s-69.5 -59.333 -104.5 -75s-66.5 -26.5 -94.5 -32.5s-76 -9 -144 -9zM1324 899.001l-69 -106l16 2l61 4z" />
    <glyph glyph-name="Y" unicode="Y" horiz-adv-x="2039" 
d="M1099 459l50.0029 128.996c-102.667 -28.667 -200.334 -43 -293.001 -43c-182 0 -331.667 44.333 -449 133s-176 202.667 -176 342c0 151.333 70 280.666 210 387.999s309 161 507 161c246.667 0 463.667 -79.333 651 -238l-29 -16
c-28.667 -19.333 -49.5 -38.166 -62.5 -56.499s-28.167 -52.166 -45.5 -101.499c121.333 -139.333 182 -304.333 182 -495c0 -140.667 -28.333 -258.5 -85 -353.5s-127.334 -142.5 -212.001 -142.5c-28.667 0 -53.834 6.83301 -75.501 20.5s-32.5 30.167 -32.5 49.5
c0 18.667 9.33301 28 28 28c7.33301 0 12 -0.666992 14 -2s15.333 -13 40 -35c14.667 -12 33 -18 55 -18c62.667 0 116.5 43 161.5 129s67.5 189.667 67.5 311c0 166.667 -56.667 312 -170 436l-145 -393c27.333 14 46.5 24.667 57.5 32s21.833 16 32.5 26
c18 17.333 28.667 27 32 29s7 3 11 3c9.33301 0 14 -4.66699 14 -14c0 -10.667 -15 -27.334 -45 -50.001s-71 -48.334 -123 -77.001l-75 -205c-30 -83.333 -45 -148 -45 -194c0 -46.667 16.667 -86 50 -118s73 -48 119 -48c46.667 0 95 13.333 145 40s92 60.334 126 101.001
c14.667 19.333 27.5 40.833 38.5 64.5s31.5 75.834 61.5 156.501l271 729c4 11.333 12 34.666 24 69.999c8 23.333 12 39 12 47c0 16.667 -7.33301 25 -22 25c-6.66699 0 -11.5 1.33301 -14.5 4s-4.5 5.33398 -4.5 8.00098c0 10.667 12.333 21.167 37 31.5
s86.334 48.166 185.001 113.499c44.667 30 73.334 45 86.001 45l14 -12c-1.33301 -4 -3.33301 -7.66699 -6 -11s-7.66699 -7.66602 -15 -12.999c-39.333 -27.333 -70.333 -59.833 -93 -97.5s-53 -107.167 -91 -208.5l-301 -802c-6.66699 -19.333 -12 -35.166 -16 -47.499
s-16.333 -44.5 -37 -96.5c-9.33301 -23.333 -15.833 -43.166 -19.5 -59.499s-5.5 -31.833 -5.5 -46.5l13 -84l4 -58c0 -81.333 -25 -151.5 -75 -210.5s-117.333 -107.167 -202 -144.5s-171.334 -56 -260.001 -56c-114.667 0 -217 30.667 -307 92s-135 131 -135 209
c0 28.667 12.333 43 37 43c16 0 27.167 -4.83301 33.5 -14.5s15.166 -40 26.499 -91s49.833 -96.333 115.5 -136s142.834 -59.5 231.501 -59.5c118.667 0 219.667 35.5 303 106.5s125 157.5 125 259.5c0 23.333 -2.33301 48 -7 74s-7.66699 45.5 -9 58.5s-2 24.833 -2 35.5
l-80 -45c-79.333 -43.333 -153 -65 -221 -65c-66 0 -120.833 21.167 -164.5 63.5s-65.5 96.833 -65.5 163.5c0 24.667 4.16699 55.834 12.5 93.501s19.166 73.5 32.499 107.5zM1165 632.996l194.002 526c-81.333 68.667 -153.5 116.5 -216.5 143.5s-133.5 40.5 -211.5 40.5
c-108.667 0 -200 -30 -274 -90s-111 -133.667 -111 -221c0 -82 33.167 -151 99.5 -207s149.5 -84 249.5 -84c27.333 0 41 -3.33301 41 -10c0 -16 -33 -24 -99 -24c-98 0 -181.833 31.333 -251.5 94s-104.5 137.667 -104.5 225c0 98.667 44.667 182 134 250
s199.666 102 330.999 102c150 0 296 -49.667 438 -149l55 39l43 26c-164.667 146 -360.334 219 -587.001 219c-168 0 -305.667 -44 -413 -132s-161 -200.333 -161 -337c0 -130.667 54.333 -238.667 163 -324s246.334 -128 413.001 -128c52.667 0 97.167 2.66699 133.5 8
s81.166 16.333 134.499 33z" />
    <glyph glyph-name="Z" unicode="Z" horiz-adv-x="1982" 
d="M1681 1393l-388.998 -511.991l57 8l68 6l166 215c136 181.333 252.167 310 348.5 386s192.5 114 288.5 114c50 0 75 -15 75 -45c0 -11.333 -4.66699 -21 -14 -29s-21 -12 -35 -12l-43 4l-20 2c-113.333 0 -238.333 -71 -375 -213c-22 -23.333 -46.667 -51.333 -74 -84
c-34 -41.333 -77 -95.333 -129 -162c-34 -43.333 -57.5 -74 -70.5 -92s-30.5 -42.667 -52.5 -74c104 11.333 180.5 29.166 229.5 53.499s102.167 71.5 159.5 141.5c4.66699 4 8.66699 6.66699 12 8s5.66602 2.66602 6.99902 3.99902c12 0 18 -6 18 -18
c0 -12.667 -13.667 -34 -41 -64s-55.333 -56 -84 -78c-50 -39.333 -101.333 -68.833 -154 -88.5s-126 -37.834 -220 -54.501c-127.333 -168 -224.833 -295 -292.5 -381s-154.5 -191.667 -260.5 -317c128 -58.667 225.833 -98.334 293.5 -119.001s130.167 -31 187.5 -31
c121.333 0 227.833 41.667 319.5 125s137.5 179.666 137.5 288.999c0 65.333 -16.5 117.166 -49.5 155.499s-76.833 57.5 -131.5 57.5l-49 -2c11.333 46 43.333 69 96 69c53.333 0 100.5 -25.167 141.5 -75.5s61.5 -109.833 61.5 -178.5
c0 -130.667 -61 -247.167 -183 -349.5s-261.667 -153.5 -419 -153.5c-79.333 0 -165.333 13.667 -258 41l-192 67l-37 14c-156 -159.333 -303 -239 -441 -239c-46 0 -88.167 9.5 -126.5 28.5s-57.5 40.833 -57.5 65.5s13 37 39 37c12 0 19.5 -0.333008 22.5 -1
s16.5 -9.33398 40.5 -26.001c41.333 -26 88.666 -39 141.999 -39c98 0 208.333 62.333 331 187c-17.333 5.33301 -34.166 9.66602 -50.499 12.999s-31.5 5 -45.5 5c-38 0 -57 7.66699 -57 23c0 5.33301 2 10.666 6 15.999c12 12.667 24.333 24.334 37 35.001l70 74
c87.333 95.333 165.666 188.666 234.999 279.999l166 215l57 78c-124 -13.333 -195 -63.666 -213 -150.999c-4 -23.333 -12 -35 -24 -35c-10 0 -15 5.33301 -15 16c0 9.33301 5.83301 27.333 17.5 54s22.5 47 32.5 61c26.667 36.667 60.5 66.667 101.5 90s98.5 43 172.5 59
l352 463c-68 40 -153.5 73.5 -256.5 100.5s-195.5 40.5 -277.5 40.5l-45 -2c42 -56 71.833 -107.5 89.5 -154.5s26.5 -99.167 26.5 -156.5c0 -132.667 -51.833 -255.667 -155.5 -369s-216.167 -170 -337.5 -170c-84.667 0 -155.667 30.167 -213 90.5s-86 135.5 -86 225.5
c0 113.333 45 219.166 135 317.499s217 180.166 381 245.499c-74 44 -149 66 -225 66c-74 0 -137 -21.167 -189 -63.5s-78 -93.5 -78 -153.5c0 -26 9.66699 -56.333 29 -91c-56 6 -84 32.667 -84 80c0 71.333 36.833 135 110.5 191s157.167 84 250.5 84
c51.333 0 95.833 -6.16699 133.5 -18.5s87.167 -36.166 148.5 -71.499c66.667 9.33301 131.667 14 195 14c192 0 379.667 -47 563 -141zM886.002 1456.01c-146 -30 -264.667 -88.667 -356 -176s-137 -187 -137 -299c0 -78 26.167 -143.167 78.5 -195.5
s117.5 -78.5 195.5 -78.5c100 0 187.167 41.167 261.5 123.5s111.5 178.833 111.5 289.5c0 45.333 -6.83301 90.5 -20.5 135.5s-33.5 86.5 -59.5 124.5c-10.667 16.667 -25.667 34.667 -45 54zM1343 799.009l-71.999 -11l-53 -4l-100 -135l-269 -350l-120 -152l69 -18l13 -4
c155.333 173.333 332.666 398 531.999 674z" />
    <glyph glyph-name="bracketleft" unicode="[" horiz-adv-x="575" 
d="M511 1282l-484 -1362l-8 -22c-8 -22 -12 -36.333 -12 -43c0 -19.333 11.667 -29 35 -29l53 12l30 6c14 0 21 -6 21 -18c0 -6.66699 -13 -15.667 -39 -27c-39.333 -16 -68 -27.667 -86 -35l-125 -49l-24 -4c-15.333 0 -23 7 -23 21l14 41l15 37l16 45l551 1456
c12 34 27.667 51 47 51c14 0 40 -11.667 78 -35c14.667 -10.667 22 -20.334 22 -29.001c0 -12 -6 -19.333 -18 -22l-18 6l-31 12c-9.33301 -5.33301 -14 -9.33301 -14 -12z" />
    <glyph glyph-name="backslash" unicode="\" horiz-adv-x="1024" 
d="M319 1315l559.001 -1487l10 -41c0 -22 -10.333 -33 -31 -33c-9.33301 0 -17 3.83301 -23 11.5s-13.333 23.167 -22 46.5l-553 1476c-8 22 -12 36.333 -12 43c0 19.333 11 29 33 29c8 0 14.667 -3.16699 20 -9.5s11.666 -18.166 18.999 -35.499z" />
    <glyph glyph-name="bracketright" unicode="]" horiz-adv-x="575" 
d="M157 -209l484.999 1362c6.66699 18 11.834 32 15.501 42s5.5 18 5.5 24c0 18.667 -11.667 28 -35 28l-53 -12l-31 -6c-14 0 -21 6 -21 18c0 6.66699 13 15.667 39 27c40 16 68.667 27.667 86 35l125 49l25 4c14.667 0 22 -7 22 -21l-14 -41l-14 -36l-17 -45l-551 -1457
c-12 -34 -27.667 -51 -47 -51c-16 0 -41.667 11.667 -77 35c-15.333 9.33301 -23 18.333 -23 27c0 14.667 6 22 18 22l19 -6l31 -10c8 5.33301 12 9.33301 12 12z" />
    <glyph glyph-name="asciicircum" unicode="^" horiz-adv-x="1024" 
d="M1175 594h-53l-459 698l-463 -698h-139l555 840h12z" />
    <glyph glyph-name="underscore" unicode="_" horiz-adv-x="1024" 
d="M165 -176h903v-57h-903v57z" />
    <glyph glyph-name="grave" unicode="`" horiz-adv-x="1024" 
d="M620 1028c10.667 0 18.666 -7.33105 23.999 -21.998c14 -54.667 40.667 -93 80 -115c14 -8 21 -15.667 21 -23c0 -12 -7.66699 -18 -23 -18c-31.333 0 -62.666 10.333 -93.999 31c-20.667 12 -38.5 26.167 -53.5 42.5s-22.5 30.166 -22.5 41.499
c0 9.33301 8.5 22.166 25.5 38.499s31.167 24.5 42.5 24.5z" />
    <glyph glyph-name="a" unicode="a" horiz-adv-x="731" 
d="M438 111l10.001 43.001c-102 -76.667 -196.667 -115 -284 -115c-48 0 -86.333 13.667 -115 41s-43 65 -43 113c0 54 14.333 104 43 150s78.667 96.333 150 151c0 76 25.167 137.333 75.5 184s115.833 70 196.5 70c65.333 0 117.5 -16.167 156.5 -48.5
s58.5 -74.5 58.5 -126.5c0 -20 -2.33301 -40.333 -7 -61s-13.334 -47.334 -26.001 -80.001l-94 -246l-8 -20l-6 -25c0 -8 4.66699 -12 14 -12l14 4l33 10c12 0 18 -4.66699 18 -14c0 -15.333 -17.667 -32.333 -53 -51c-50.667 -27.333 -88 -41 -112 -41
c-20.667 0 -31 10.333 -31 31c0 8 3.33301 22.333 10 43zM299.001 575.001l0.000976562 -20c56 28.667 110 43 162 43c43.333 0 87.666 -15.667 132.999 -47l6 43c0 32.667 -13 60 -39 82s-58 33 -96 33c-41.333 0 -79.333 -14 -114 -42s-52 -58.667 -52 -92z
M444.002 557.001c-74.667 0 -148.167 -36.8311 -220.5 -110.498s-108.5 -148.834 -108.5 -225.501c0 -32.667 11.5 -60 34.5 -82s52.833 -33 89.5 -33c74 0 145.5 36.667 214.5 110s103.5 153 103.5 239c0 31.333 -9.83301 56.166 -29.5 74.499s-47.5 27.5 -83.5 27.5z" />
    <glyph glyph-name="b" unicode="b" horiz-adv-x="671" 
d="M493 1210l-213.001 -584.999c92.667 77.333 175.334 116 248.001 116c92.667 0 139 -51.667 139 -155c0 -58.667 -21.167 -127 -63.5 -205s-95.5 -146.333 -159.5 -205c-45.333 -40.667 -94 -73.334 -146 -98.001s-99.667 -37 -143 -37c-35.333 0 -65 10.5 -89 31.5
s-36 48.833 -36 83.5c0 22.667 2.66699 43.667 8 63s19.666 60.333 42.999 123l293 791l12 30l9 31c0 8 -5 12 -15 12c-5.33301 0 -18.5 -5 -39.5 -15s-34.5 -15 -40.5 -15c-8 0 -12 4.66699 -12 14c0 18 39.667 46 119 84c44.667 22 73.334 33 86.001 33
c14.667 0 22 -9 22 -27l-8 -35zM453.999 664.001c-32.667 0 -67.8311 -12.668 -105.498 -38.001s-70.834 -60 -99.501 -104c-19.333 -27.333 -47.333 -92.666 -84 -195.999c-12 -34.667 -21.5 -63.5 -28.5 -86.5s-10.5 -44.167 -10.5 -63.5c0 -52 26.667 -78 80 -78
c38 0 81.667 18.5 131 55.5s93.666 85.5 132.999 145.5c56 84.667 84 164.667 84 240c0 38 -9.16699 68.333 -27.5 91s-42.5 34 -72.5 34z" />
    <glyph glyph-name="c" unicode="c" horiz-adv-x="608" 
d="M425 676c-70.667 0 -138.164 -40.999 -202.497 -122.999s-96.5 -169.333 -96.5 -262c0 -50.667 14 -91.334 42 -122.001s66 -46 114 -46c54.667 0 104.334 21 149.001 63c15.333 14 27.166 24 35.499 30s15.166 9 20.499 9c10.667 0 16 -5.33301 16 -16
c0 -16.667 -27.333 -46 -82 -88c-70.667 -54.667 -140.334 -82 -209.001 -82c-53.333 0 -97 19.833 -131 59.5s-51 92.167 -51 157.5c0 116 48.5 226.5 145.5 331.5s199.5 157.5 307.5 157.5c34 0 65.333 -8.83301 94 -26.5s43 -36.5 43 -56.5
c0 -11.333 -4.83301 -21.833 -14.5 -31.5s-20.5 -14.5 -32.5 -14.5c-11.333 0 -27 7.66699 -47 23c-34.667 24.667 -68.334 37 -101.001 37z" />
    <glyph glyph-name="d" unicode="d" horiz-adv-x="706" 
d="M610 657l172.001 475.997l4 10l10 26l7 25c0 8 -5 12 -15 12c-8 0 -19.667 -4 -35 -12l-45 -18c-9.33301 0 -14 4.66699 -14 14c0 18 41 46 123 84c44.667 22 73.334 33 86.001 33c16.667 0 25 -9 25 -27c0 -6.66699 -1 -12 -3 -16
c-6.66699 -16.667 -13.334 -34.667 -20.001 -54l-371 -999l-16 -51c0 -11.333 4.66699 -17 14 -17c11.333 0 18.666 1.16699 21.999 3.5s21.333 14.833 54 37.5l14 6c14 0 21 -6 21 -18c0 -5.33301 -6.5 -14.166 -19.5 -26.499s-33.167 -28.166 -60.5 -47.499
c-64 -42 -109.667 -63 -137 -63c-18 0 -27 7.33301 -27 22v13c4 12 9.66699 28.333 17 49l22 67c-96.667 -96.667 -189.334 -145 -278.001 -145c-45.333 0 -81.666 15.667 -108.999 47s-41 73 -41 125c0 58.667 20.167 126.167 60.5 202.5s90.5 142.5 150.5 198.5
c43.333 41.333 87 72.833 131 94.5s85.667 32.5 125 32.5c31.333 0 56.5 -5.66699 75.5 -17s38.167 -33.666 57.5 -66.999zM432.001 675.997c-74 0 -145.832 -46.832 -215.499 -140.499s-104.5 -190.834 -104.5 -291.501c0 -37.333 10.667 -67.833 32 -91.5
s47.666 -35.5 78.999 -35.5c72.667 0 141 43 205 129c32.667 44.667 60.667 96 84 154s35 107.667 35 149c0 38 -10.333 68.667 -31 92s-48.667 35 -84 35z" />
    <glyph glyph-name="e" unicode="e" horiz-adv-x="608" 
d="M132 231c15.333 -80 63.334 -120 144.001 -120c65.333 0 127.333 27.333 186 82c15.333 13.333 27.666 20 36.999 20c12 0 18 -6 18 -18c0 -18 -22.333 -42.667 -67 -74c-80.667 -56 -155 -84 -223 -84c-58.667 0 -106.5 19.167 -143.5 57.5s-55.5 88.833 -55.5 151.5
c0 117.333 46.833 229.5 140.5 336.5s190.834 160.5 291.501 160.5c44 0 79.333 -11.833 106 -35.5s40 -55.5 40 -95.5c0 -87.333 -47.833 -169.833 -143.5 -247.5s-205.834 -122.167 -330.501 -133.5zM130.001 299v-26.999c109.333 11.333 200.833 46 274.5 104
s110.5 126 110.5 204c0 32.667 -8.83301 58.5 -26.5 77.5s-42.167 28.5 -73.5 28.5c-64 0 -127.5 -42.333 -190.5 -127s-94.5 -171.334 -94.5 -260.001z" />
    <glyph glyph-name="f" unicode="f" horiz-adv-x="483" 
d="M402 745h22.001c26 0 44.833 1.5 56.5 4.5s22.667 8.16699 33 15.5s16.833 11.333 19.5 12s5.33398 1.66699 8.00098 3c8 0 12 -5.33301 12 -16s-10.667 -27 -32 -49c-15.333 -15.333 -31.166 -26 -47.499 -32s-38.833 -9 -67.5 -9l-25 -2l-88 -316
c-38 -137.333 -75.167 -246.666 -111.5 -327.999s-76.833 -148 -121.5 -200c-37.333 -40.667 -79.5 -75.334 -126.5 -104.001s-86.833 -43 -119.5 -43c-26 0 -40.333 10 -43 30c0 14 5.16699 23.667 15.5 29s39.166 12 86.499 20c66 12.667 118.333 52.834 157 120.501
s89 205.834 151 414.501l108 373c-40.667 0 -67.834 -2.16699 -81.501 -6.5s-32.167 -15.833 -55.5 -34.5l-12 -4c-8.66699 6.66699 -13 11.334 -13 14.001c0 5.33301 7 17.666 21 36.999c9.33301 13.333 16.666 22.666 21.999 27.999c18 18 34.5 29.333 49.5 34
s45.167 7 90.5 7l34 119c40 135.333 95.5 242.666 166.5 321.999s148.167 119 231.5 119c53.333 0 80 -12.333 80 -37c0 -19.333 -11.667 -29 -35 -29l-55 10l-35 2c-54.667 0 -101.5 -28.333 -140.5 -85s-77.5 -151 -115.5 -283z" />
    <glyph glyph-name="g" unicode="g" horiz-adv-x="681" 
d="M598 799l66.002 43.002c47.333 -30 71 -58 71 -84c0 -18 -5.33301 -33.167 -16 -45.5s-35.334 -30.833 -74.001 -55.5c16.667 -38 25 -71.333 25 -100c0 -91.333 -35.167 -170.833 -105.5 -238.5s-152.5 -101.5 -246.5 -101.5c-46.667 0 -89.667 10.333 -129 31
c-24.667 -18 -58.334 -50.667 -101.001 -98h43c123.333 0 212.5 -14 267.5 -42s82.5 -73.667 82.5 -137c0 -61.333 -32.667 -114.5 -98 -159.5s-143.666 -67.5 -234.999 -67.5c-72.667 0 -130.834 13.667 -174.501 41s-65.5 64.333 -65.5 111
c0 27.333 6.83301 51.5 20.5 72.5s44.5 54.167 92.5 99.5l-35 4c-18 0 -27 6 -27 18c0 5.33301 3.33301 11.666 10 18.999c12.667 12 23.667 22.667 33 32l150 138c-30 43.333 -45 87 -45 131c0 86 36.5 163.333 109.5 232s155.167 103 246.5 103
c49.333 0 100 -17.667 152 -53c28.667 15.333 43 31.666 43 48.999c0 18 -20 37.333 -60 58zM422.002 694.002c-57.333 0 -108.501 -25.833 -153.501 -77.5s-67.5 -110.5 -67.5 -176.5c0 -54.667 14.333 -97.667 43 -129s69 -47 121 -47c54.667 0 103.834 26 147.501 78
s65.5 110.667 65.5 176c0 53.333 -14 96 -42 128s-66 48 -114 48zM103.001 70.002l-13.001 2c-69.333 -60 -104 -113.333 -104 -160c0 -36.667 17.333 -67 52 -91s78 -36 130 -36c61.333 0 114.5 15 159.5 45s67.5 66.333 67.5 109c0 44.667 -21.167 77.667 -63.5 99
s-111.166 32 -206.499 32h-22z" />
    <glyph glyph-name="h" unicode="h" horiz-adv-x="727" 
d="M-24 12l407.999 1121l12 32l8 31c0 8 -4.66699 12 -14 12c-4 0 -15 -4 -33 -12s-29 -13 -33 -15s-8.66699 -3.66699 -14 -5c-10 0 -15 4.66699 -15 14c0 18 40.333 46.667 121 86c45.333 22 74 33 86 33c16.667 0 25 -9 25 -27c0 -5.33301 -0.666992 -10.333 -2 -15
s-7.66602 -23 -18.999 -55l-215 -589c89.333 78.667 176 118 260 118c49.333 0 89 -16.333 119 -49s45 -75.667 45 -129c0 -60 -18.333 -125.167 -55 -195.5s-86.334 -136.166 -149.001 -197.499c-93.333 -88.667 -176.666 -133 -249.999 -133c-36 0 -54 12.333 -54 37
c0 32.667 19.333 49 58 49h45c74.667 0 142.834 40.333 204.501 121s92.5 170 92.5 268c0 45.333 -11 82.333 -33 111s-51.333 43 -88 43c-38 0 -75.5 -11.667 -112.5 -35s-70.5 -56.333 -100.5 -99c-14 -21.333 -27.333 -46 -40 -74s-29.334 -69.333 -50.001 -124
l-109 -285z" />
    <glyph glyph-name="i" unicode="i" horiz-adv-x="364" 
d="M333 989l53 39.002c8.66699 5.33301 15.667 8.66602 21 9.99902h2c8 0 15.833 -7.16699 23.5 -21.5s11.5 -29.5 11.5 -45.5c0 -45.333 -30 -92 -90 -140c-22 -17.333 -35.667 -26 -41 -26c-12.667 0 -19 4.66699 -19 14c4 8 8.66699 14.333 14 19
c24.667 21.333 37 45 37 71c0 14 -6 26.333 -18 37c-5.33301 5.33301 -9 9.83301 -11 13.5s-3 6.16699 -3 7.5c5.33301 9.33301 12 16.666 20 21.999zM315 616.002l-158.001 -421l-14 -54c0 -9.33301 4 -14 12 -14c6.66699 0 17 4 31 12l32 15c14 0 21 -7 21 -21
c0 -10.667 -23.5 -29.667 -70.5 -57s-81.5 -41 -103.5 -41s-33 10.333 -33 31c0 2.66699 2.66699 11.834 8 27.501s10.333 30.167 15 43.5l137 402l10 28l8 31c0 10.667 -5.33301 16 -16 16c-8 -2.66699 -15.167 -6.33398 -21.5 -11.001s-14.833 -9 -25.5 -13
c-1.33301 0 -2.66602 -0.666992 -3.99902 -2c-12.667 0 -19 6 -19 18c0 6.66699 7.5 16.5 22.5 29.5s38.833 29.167 71.5 48.5c44 28.667 75 43 93 43c20 0 30 -8.33301 30 -25c0 -5.33301 -0.333008 -10 -1 -14s-9 -28 -25 -72z" />
    <glyph glyph-name="j" unicode="j" horiz-adv-x="342" 
d="M341 997l42.999 29.002c8 5.33301 16 9.33301 24 12c24.667 0 37 -20.333 37 -61c0 -50.667 -31.333 -100 -94 -148c-28.667 -20 -50 -30 -64 -30c-4 0 -7 1.33301 -9 4s-3 4.66699 -3 6c0 8 9.66699 18.333 29 31c28.667 17.333 43 41.666 43 72.999
c0 19.333 -5.16699 32.166 -15.5 38.499s-16.166 10.5 -17.499 12.5s-2 3.66699 -2 5c1.33301 4 3 7.33301 5 10s10 8.66699 24 18zM292.999 578.002l-26.001 -81.998c-35.333 -108 -53.666 -164 -54.999 -168c-7.33301 -16.667 -14.333 -32.334 -21 -47.001
c-53.333 -146.667 -99.166 -256.834 -137.499 -330.501s-79.833 -132.834 -124.5 -177.501c-72.667 -72.667 -149 -109 -229 -109c-15.333 0 -23 4.66699 -23 14c0 10 9 16.333 27 19c70.667 13.333 132 53.166 184 119.499s106.667 175.833 164 328.5l33 95
c50 148.667 78 231 84 247c1.33301 7.33301 4.33301 18.5 9 33.5s10 32.667 16 53s9 32.5 9 36.5c-5.33301 7.33301 -9.33301 11 -12 11c-2.66699 -2 -6 -3.66699 -10 -5s-12.833 -5.66602 -26.5 -12.999s-23.167 -11 -28.5 -11c-4.66699 0 -8.33398 1.33301 -11.001 4
s-4 5.33398 -4 8.00098c0 5.33301 1.33301 9.83301 4 13.5s20.667 15.5 54 35.5c39.333 26 69.833 44.5 91.5 55.5s37.5 16.5 47.5 16.5c16 0 24 -6.66699 24 -20c0 -7.33301 -2.66699 -19 -8 -35c-16 -48 -26.333 -78.667 -31 -92z" />
    <glyph glyph-name="k" unicode="k" horiz-adv-x="716" 
d="M375 471l101.002 -250.001l12 -28l12 -25c10 -22 21.667 -33 35 -33c9.33301 0 20.166 4.5 32.499 13.5s24.833 15.5 37.5 19.5c9.33301 0 14 -5.33301 14 -16c-1.33301 -7.33301 -5.33301 -14.333 -12 -21c-12.667 -12 -37.334 -33 -74.001 -63
c-27.333 -22 -49.666 -33 -66.999 -33c-16.667 0 -32 17.667 -46 53l-14 41l-104 274c-67.333 -56 -113.5 -102 -138.5 -138s-50.5 -95 -76.5 -177l-15 -41l-98 -35l403 1123c7.33301 20 12 33.5 14 40.5s3 12.5 3 16.5c-5.33301 6.66699 -9.33301 10 -12 10
c-10 0 -22.333 -4.66699 -37 -14l-41 -17c-11.333 0 -17 6.33301 -17 19c0 6.66699 4.16699 13.5 12.5 20.5s23.5 16.5 45.5 28.5c74.667 42.667 125.667 64 153 64c14 0 21 -8.33301 21 -25c0 -10.667 -6.33301 -32.667 -19 -66l-309 -850l47 44l47 40l47 43l45 43
c62 56 133 108 213 156c37.333 20.667 64.666 31 81.999 31c28.667 0 43 -13.667 43 -41c0 -23.333 -28.667 -42.333 -86 -57c-46 -11.333 -85.167 -26.166 -117.5 -44.499s-77.833 -53.5 -136.5 -105.5z" />
    <glyph glyph-name="l" unicode="l" horiz-adv-x="335" 
d="M522 1210l-372.999 -990.999c-10.667 -30 -16 -49.667 -16 -59c0 -10 4.66699 -15 14 -15c11.333 0 35.333 12.333 72 37l18 8c11.333 0 17 -6 17 -18c0 -8 -2.5 -14.5 -7.5 -19.5s-18.833 -15.5 -41.5 -31.5c-44 -32.667 -78 -54.834 -102 -66.501
s-45.333 -17.5 -64 -17.5c-18 0 -27 8 -27 24c0 7.33301 0.666992 14 2 20s6 19.333 14 40l369 1012l12 30l9 31c0 8 -5 12 -15 12c-6.66699 0 -18.334 -4 -35.001 -12l-47 -18c-9.33301 0 -14 4.66699 -14 14c0 18 41 46 123 84c44.667 22 74 33 88 33c16 0 24 -9 24 -27
c0 -5.33301 -0.666992 -10.5 -2 -15.5s-7.33301 -23.167 -18 -54.5z" />
    <glyph glyph-name="m" unicode="m" horiz-adv-x="1028" 
d="M-6 18l166.002 502.001l22 80c0 9.33301 -4 14 -12 14s-19.667 -4.66699 -35 -14c-8 -5.33301 -13.667 -8.33301 -17 -9s-7 -1.66699 -11 -3c-11.333 0 -17 6 -17 18c0 8 6.16699 16.833 18.5 26.5s34.833 23.5 67.5 41.5c62.667 34 103.667 51 123 51
c20.667 0 31 -9 31 -27c0 -10.667 -4.66699 -25.667 -14 -45l-21 -55c124 86 223 129 297 129c44 0 66 -16.333 66 -49c0 -12.667 -3 -27 -9 -43l-6 -27c74 48 129.667 80.5 167 97.5s72 25.5 104 25.5c54 0 81 -28.667 81 -86c0 -18 -3.33301 -37.833 -10 -59.5
s-20.334 -56.5 -41.001 -104.5l-110 -258c-8.66699 -20 -15.334 -36.5 -20.001 -49.5s-7 -21.833 -7 -26.5c0 -13.333 7.66699 -20 23 -20c14.667 0 33.667 6.66699 57 20l33 15c9.33301 0 14 -5.66699 14 -17c-1.33301 -9.33301 -8.5 -18.833 -21.5 -28.5
s-35.833 -23.167 -68.5 -40.5c-53.333 -27.333 -95 -41 -125 -41c-20.667 0 -31 7.33301 -31 22l6 27l15 39l10 29l141 374c12.667 31.333 19 59.333 19 84c0 27.333 -11 41 -33 41c-18 0 -42.333 -6.83301 -73 -20.5s-59 -29.834 -85 -48.501c-34 -26 -59.5 -52 -76.5 -78
s-37.833 -70.333 -62.5 -133l-121 -312l-88 -28l166 501c12 37.333 18 64.666 18 81.999c0 19.333 -10 29 -30 29c-19.333 0 -47.833 -8.83301 -85.5 -26.5s-67.667 -36.5 -90 -56.5s-41 -42.167 -56 -66.5s-32.833 -63.166 -53.5 -116.499l-125 -328z" />
    <glyph glyph-name="n" unicode="n" horiz-adv-x="706" 
d="M4 14l162.003 484.002l31 96c0 10.667 -5 16 -15 16c-8 0 -13.333 -0.666992 -16 -2c-11.333 -6.66699 -22.333 -13.334 -33 -20.001c-2.66699 -2.66699 -10.334 -5.33398 -23.001 -8.00098c-10.667 0 -16 5.33301 -16 16c0 16.667 39 46.667 117 90
c44.667 24.667 78 37 100 37c18 0 27 -7.66699 27 -23c0 -6.66699 -4 -21.667 -12 -45l-23 -61c128.667 88.667 229.667 133 303 133c48 0 72 -24 72 -72c0 -10.667 -1.66699 -24.167 -5 -40.5s-12 -41.5 -26 -75.5l-129 -336c-13.333 -37.333 -20 -60 -20 -68
c0 -12 5.33301 -18 16 -18c8 0 17.167 2 27.5 6s22.166 9.33301 35.499 16l27 11c2.66699 0 6.66699 -3.66699 12 -11c0 -1.33301 0.666992 -2.66602 2 -3.99902c0 -6.66699 -8.83301 -16.5 -26.5 -29.5s-39.5 -26.167 -65.5 -39.5c-40.667 -22 -74 -33 -100 -33
c-22 0 -33 7.33301 -33 22c0 11.333 3.83301 27.5 11.5 48.5s14.834 41.833 21.501 62.5l119 352c12 36.667 18 64 18 82c0 32.667 -15 49 -45 49c-18 0 -42 -6.83301 -72 -20.5s-59.333 -29.834 -88 -48.501c-36.667 -24.667 -63.834 -50 -81.501 -76
s-38.834 -72.333 -63.501 -139l-117 -318z" />
    <glyph glyph-name="o" unicode="o" horiz-adv-x="716" 
d="M450 745c69.333 0 124.833 -22.1689 166.5 -66.502s62.5 -103.166 62.5 -176.499c0 -109.333 -46.333 -214.5 -139 -315.5s-189.667 -151.5 -291 -151.5c-61.333 0 -112.5 21.833 -153.5 65.5s-61.5 99.5 -61.5 167.5c0 114.667 44 222.834 132 324.501
s182.667 152.5 284 152.5zM417 689.998c-69.333 0 -133.169 -41.332 -191.502 -123.999s-87.5 -173 -87.5 -271c0 -58.667 14.833 -106.834 44.5 -144.501s66.834 -56.5 111.501 -56.5c66.667 0 129.834 42 189.501 126s89.5 173 89.5 267c0 63.333 -14 113 -42 149
s-66 54 -114 54z" />
    <glyph glyph-name="p" unicode="p" horiz-adv-x="708" 
d="M113 80l-41 -103c-26 -65.333 -45.5 -110 -58.5 -134s-31.333 -52.333 -55 -85s-52 -59.5 -85 -80.5s-63.833 -31.5 -92.5 -31.5c-10.667 0 -16 4.66699 -16 14c0 8 4.66699 12.667 14 14c42.667 12.667 78.334 38.834 107.001 78.501s58.667 105.167 90 196.5l205 600
l18 69c0 3.33301 -1.33301 6 -4 8s-4.66699 3.66699 -6 5c-6.66699 0 -13.167 -1.33301 -19.5 -4s-19.5 -11 -39.5 -25l-15 -4c-2.66699 0 -5.66699 2 -9 6s-5.66602 6.66699 -6.99902 8c0 6 4 13 12 21s21 17.667 39 29c65.333 44.667 116.666 67 153.999 67
c16 0 24 -6.66699 24 -20c0 -8.66699 -8 -42.334 -24 -101.001c57.333 45.333 106 77.833 146 97.5s78.667 29.5 116 29.5c39.333 0 72 -14.333 98 -43s39 -64.667 39 -108c0 -60 -18.833 -128.333 -56.5 -205s-84.5 -143.667 -140.5 -201
c-92.667 -96.667 -187.334 -145 -284.001 -145c-40 0 -76.333 15.667 -109 47zM492 664c-43.333 0 -89.001 -22.668 -137.001 -68.001s-89 -103.333 -123 -174c-42.667 -91.333 -64 -167.666 -64 -228.999c0 -67.333 32.333 -101 97 -101
c74.667 0 147.834 48.833 219.501 146.5s107.5 197.167 107.5 298.5c0 84.667 -33.333 127 -100 127z" />
    <glyph glyph-name="q" unicode="q" horiz-adv-x="675" 
d="M733 741l8.00195 0.000976562c-24.667 -48.667 -47.834 -97.334 -69.501 -146.001s-41.5 -96.667 -59.5 -144l-86 -234l-96 -264c-26 -75.333 -42.5 -123.166 -49.5 -143.499s-10.5 -35.5 -10.5 -45.5c0 -10.667 5 -16 15 -16l20 6l35 10l10 -12
c0 -6.66699 -2.33301 -12.334 -7 -17.001s-19.334 -14 -44.001 -28c-30 -19.333 -55.5 -33 -76.5 -41s-38.5 -12 -52.5 -12c-16 0 -24 7.33301 -24 22c0 8.66699 1.33301 17 4 25c10.667 28.667 22 60 34 94l123 355c-54.667 -42.667 -100.334 -72.5 -137.001 -89.5
s-72 -25.5 -106 -25.5c-45.333 0 -82.666 15.333 -111.999 46s-44 70 -44 118c0 70.667 22.5 146 67.5 226s105.167 150 180.5 210c90 72 173.333 108 250 108c50 0 89.333 -21.667 118 -65c38.667 42 75 63 109 63zM463.002 682.001
c-34.667 0 -72.6699 -12.668 -114.003 -38.001s-79.166 -59.166 -113.499 -101.499s-62.333 -91.166 -84 -146.499s-32.5 -105.333 -32.5 -150c0 -40 9.83301 -72.5 29.5 -97.5s45.834 -37.5 78.501 -37.5c31.333 0 64.5 10.833 99.5 32.5s64.833 49.5 89.5 83.5
c40.667 58.667 74.667 119.5 102 182.5s41 116.833 41 161.5c0 33.333 -8.16699 60.166 -24.5 80.499s-40.166 30.5 -71.499 30.5z" />
    <glyph glyph-name="r" unicode="r" horiz-adv-x="454" 
d="M301 625l-49.0029 -136c118.667 156 211.667 234 279 234c18.667 0 28 -10.333 28 -31c0 -30 -22.333 -53 -67 -69c-165.333 -62 -300.666 -253.333 -405.999 -574l-92 -31l170 517l8 24l8 37c0 12 -4.66699 18 -14 18c-4 -1.33301 -7.66699 -2.33301 -11 -3
s-8.66602 -3.66699 -15.999 -9c-17.333 -13.333 -31 -20 -41 -20c-10.667 0 -16 5.33301 -16 16c0 9.33301 5.5 18.5 16.5 27.5s28.167 20.167 51.5 33.5c42 26 73.333 43.833 94 53.5s38.334 14.5 53.001 14.5c18 0 27 -9.66699 27 -29
c0 -6.66699 -4.33301 -21.667 -13 -45l-6 -18z" />
    <glyph glyph-name="s" unicode="s" horiz-adv-x="534" 
d="M338 709c-20.667 0 -37.501 -6.50098 -50.501 -19.501s-19.5 -29.167 -19.5 -48.5s4.16699 -35.166 12.5 -47.499s38.5 -47.166 90.5 -104.499c39.333 -44.667 64.5 -78 75.5 -100s16.5 -50 16.5 -84c0 -72 -30.667 -134.667 -92 -188s-133 -80 -215 -80
c-58.667 0 -107.834 16.333 -147.501 49s-59.5 73 -59.5 121c0 19.333 4.83301 40.5 14.5 63.5s21.334 41.333 35.001 55s24.5 20.5 32.5 20.5c10.667 0 16 -5.33301 16 -16l-6 -23c-12 -23.333 -18 -48.666 -18 -75.999c0 -42 15.667 -78 47 -108s70.333 -45 117 -45
c50 0 94.833 17.667 134.5 53s59.5 75.666 59.5 120.999c0 27.333 -5.5 51.833 -16.5 73.5s-33.5 51.167 -67.5 88.5c-42 44.667 -71.167 80.667 -87.5 108s-24.5 53.333 -24.5 78c0 42.667 13.5 77.5 40.5 104.5s62.5 40.5 106.5 40.5c23.333 0 53.333 -8 90 -24l12 -4
c8.66699 4 14.334 7.33301 17.001 10c8 8 14.667 12 20 12c11.333 0 20.666 -10.833 27.999 -32.5s11 -51.834 11 -90.501c0 -48.667 -9.66699 -73 -29 -73c-10.667 0 -18 10 -22 30c-19.333 90.667 -59.666 136 -120.999 136z" />
    <glyph glyph-name="t" unicode="t" horiz-adv-x="387" 
d="M323 641l-155.997 -418.003c-12 -31.333 -18 -51.666 -18 -60.999c0 -11.333 5.33301 -17 16 -17c8 0 23 7 45 21l27 12c10.667 0 16 -5.33301 16 -16c0 -8 -5.5 -16.5 -16.5 -25.5s-27.167 -21.167 -48.5 -36.5c-60 -42 -102.333 -63 -127 -63
c-19.333 0 -29 8.66699 -29 26c0 7.33301 1.33301 15.666 4 24.999s9 27 19 53l16 45l156 445c-30 -2.66699 -58 -11.667 -84 -27l-15 -4l-12 14c2.66699 19.333 17.667 37.833 45 55.5s58.666 28.5 93.999 32.5l76 218c12 34 18 55.667 18 65c0 10.667 -4 16 -12 16
c-6.66699 0 -11.334 -0.666992 -14.001 -2c-11.333 -8 -23 -15.333 -35 -22l-20 -6c-8.66699 6.66699 -13 11.334 -13 14.001c0 4 3.33301 9.33301 10 16c12.667 11.333 28 23 46 35c76 54.667 125.667 82 149 82c18 0 27 -8 27 -24c0 -7.33301 -0.666992 -13 -2 -17
c-8.66699 -17.333 -16.334 -35 -23.001 -53l-24 -61l-93 -254c26 0 43.833 1.33301 53.5 4s28.167 10 55.5 22l14 4c4 0 9.66699 -3.33301 17 -10c0 -1.33301 0.666992 -2.66602 2 -3.99902c-1.33301 -10.667 -9.5 -22.167 -24.5 -34.5s-32.833 -23.5 -53.5 -33.5
c-14 -5.33301 -25 -8.66602 -33 -9.99902s-25.667 -3.33301 -53 -6z" />
    <glyph glyph-name="u" unicode="u" horiz-adv-x="712" 
d="M704 735l-187 -527.996l-6 -23l-10 -37l12 -12c10 0 24.333 7 43 21c5.33301 4 10.166 6.66699 14.499 8s7.83301 2.66602 10.5 3.99902c12 0 18 -5.33301 18 -16c0 -8.66699 -19.667 -25.334 -59 -50.001c-70 -40.667 -116.333 -61 -139 -61
c-16.667 0 -25 8.33301 -25 25c0 5.33301 1.66699 13 5 23s5.66602 17.333 6.99902 22l4 10l19 47c-60 -39.333 -117 -70.666 -171 -93.999s-96.667 -35 -128 -35c-22 0 -40.5 6.83301 -55.5 20.5s-22.5 30.167 -22.5 49.5c0 14.667 1.33301 26.667 4 36
c10.667 27.333 21.667 56.666 33 87.999l119 318l16 53c0 11.333 -4.66699 17 -14 17c-5.33301 0 -21.666 -8.33301 -48.999 -25l-25 -10c-9.33301 0 -14 6 -14 18c0 9.33301 2.33301 16.166 7 20.499s25.334 17.5 62.001 39.5c71.333 40.667 118.666 61 141.999 61
c16 0 24 -9.66699 24 -29c0 -5.33301 -0.666992 -10 -2 -14c-6.66699 -16.667 -12.667 -32.334 -18 -47.001l-15 -39l-127 -311c-28.667 -68.667 -43 -113.667 -43 -135c0 -30.667 15 -46 45 -46c23.333 0 60 12.333 110 37s91.333 50.667 124 78
c9.33301 8 18.833 21.333 28.5 40s21.834 49 36.501 91l134 352z" />
    <glyph glyph-name="v" unicode="v" horiz-adv-x="706" 
d="M286 631c64 44.667 110.999 73.499 140.999 86.499s65.667 19.5 107 19.5c39.333 0 72 -17 98 -51s39 -77 39 -129c0 -122.667 -49.167 -240.667 -147.5 -354s-200.833 -170 -307.5 -170c-42 0 -76.667 15.667 -104 47s-41 71 -41 119c0 18.667 2 38.334 6 59.001
s13 52 27 94l33 99l36 112c11.333 28.667 17 48 17 58c0 8 -5 12 -15 12c-8 0 -19.833 -5.83301 -35.5 -17.5s-26.167 -17.5 -31.5 -17.5c-11.333 0 -17 4.66699 -17 14c0 15.333 34.333 44 103 86c36.667 22 65.334 33 86.001 33c16 0 24 -7.33301 24 -22l-4 -25z
M461.999 673.999c-39.333 0 -78.833 -14.3311 -118.5 -42.998s-69.167 -64.334 -88.5 -107.001c-24.667 -52 -49.667 -121 -75 -207c-10 -30 -16.333 -52.167 -19 -66.5s-4 -30.833 -4 -49.5c0 -32.667 9.83301 -60.334 29.5 -83.001s43.167 -34 70.5 -34
c70 0 139.833 47.167 209.5 141.5s104.5 189.833 104.5 286.5c0 108 -36.333 162 -109 162z" />
    <glyph glyph-name="w" unicode="w" horiz-adv-x="1005" 
d="M610 655l-0.00195312 -25.9961c55.333 43.333 98.5 72.166 129.5 86.499s64.833 21.5 101.5 21.5c43.333 0 77.666 -17.333 102.999 -52s38 -81.334 38 -140.001c0 -118.667 -51.5 -233 -154.5 -343s-209.833 -165 -320.5 -165c-34 0 -59.167 5.5 -75.5 16.5
s-32.166 32.833 -47.499 65.5l-22 -15c-40 -25.333 -71.5 -42.833 -94.5 -52.5s-48.167 -14.5 -75.5 -14.5c-32.667 0 -60.334 11.167 -83.001 33.5s-34 50.166 -34 83.499c0 24 9.66699 65.667 29 125l86 270l10 39l4 18c0 14 -6.66699 21 -20 21
c-6 0 -16.167 -4.83301 -30.5 -14.5s-24.166 -15.5 -29.499 -17.5s-10.666 -3.66699 -15.999 -5c-11.333 0 -17 4.66699 -17 14c0 6.66699 4.83301 14.167 14.5 22.5s32.834 24.166 69.501 47.499c60 36.667 103 55 129 55c15.333 0 23 -6.66699 23 -20l-12 -62l-4 -24
c65.333 43.333 115 72.5 149 87.5s68 22.5 102 22.5c33.333 0 50 -15 50 -45zM256.998 473.004l-16.001 -45c-26 -69.333 -39.667 -107.5 -41 -114.5s-2.66602 -13.833 -3.99902 -20.5c-10 -28.667 -17 -53 -21 -73s-6 -36.667 -6 -50c0 -50.667 22 -76 66 -76
c48.667 0 97 22 145 66l4 24l8 35l7 14c1.33301 7.33301 4 17 8 29l8 27l2 8l4 8l2 8l64 197c8 28.667 14.667 53.834 20 75.501s8 38.167 8 49.5c0 20.667 -9.33301 31 -28 31c-33.333 0 -71 -13.333 -113 -40s-72 -55 -90 -85
c-5.33301 -8.66699 -14.333 -31.334 -27 -68.001zM772.997 664.004c-40.667 0 -79.167 -14.833 -115.5 -44.5s-64 -67 -83 -112s-38.833 -103.5 -59.5 -175.5c-27.333 -90 -41 -146 -41 -168c0 -48 27.333 -72 82 -72c78 0 152.5 45 223.5 135s106.5 184.333 106.5 283
c0 102.667 -37.667 154 -113 154z" />
    <glyph glyph-name="x" unicode="x" horiz-adv-x="632" 
d="M371 457l39.001 -181c11.333 -47.333 18.333 -77.333 21 -90c9.33301 -31.333 20 -47 32 -47c6 0 13 2.5 21 7.5s17.5 12.5 28.5 22.5s19.167 15 24.5 15c10.667 0 16 -5.33301 16 -16c0 -8 -8.66699 -22.333 -26 -43c-11.333 -12.667 -23.666 -25 -36.999 -37
c-39.333 -34 -69.333 -51 -90 -51c-23.333 0 -40.333 26.667 -51 80l-6 30l-39 179l-84 -119c-79.333 -113.333 -158 -170 -236 -170c-32.667 0 -49 11.667 -49 35c0 30 23.333 45 70 45c56 6.66699 100.667 26 134 58s83.333 104.667 150 218l-37 170
c-10.667 54.667 -26.334 82 -47.001 82c-8 0 -19.333 -4 -34 -12l-29 -10c-9.33301 0 -14 4.66699 -14 14c0 6.66699 5 14.167 15 22.5s29.667 22.333 59 42s53.666 29.5 72.999 29.5c16.667 0 28 -5.83301 34 -17.5s15 -42.5 27 -92.5l25 -107
c53.333 78 100.833 134.333 142.5 169s81.5 52 119.5 52c31.333 0 47 -13 47 -39c0 -12 -2 -20 -6 -24c-10.667 -11.333 -36.667 -17 -78 -17c-36.667 -2.66699 -69.667 -18 -99 -46s-68 -78.667 -116 -152z" />
    <glyph glyph-name="y" unicode="y" horiz-adv-x="710" 
d="M723 739l-154.999 -427.997l-21 -53c-24.667 -60 -37 -107 -37 -141v-31l2 -47l2 -43c0 -95.333 -36.833 -176.5 -110.5 -243.5s-163.167 -100.5 -268.5 -100.5c-65.333 0 -127.333 15.667 -186 47s-88 64.666 -88 99.999c0 12.667 4.83301 23.667 14.5 33
s19.834 14 30.501 14c9.33301 0 17.5 -2.33301 24.5 -7s17.833 -16.667 32.5 -36c23.333 -31.333 53.5 -56.5 90.5 -75.5s75.167 -28.5 114.5 -28.5c70 0 130.167 24.5 180.5 73.5s75.5 108.5 75.5 178.5c0 58.667 -6 114.667 -18 168
c-75.333 -32.667 -134.5 -55.167 -177.5 -67.5s-80.833 -18.5 -113.5 -18.5c-56 0 -84 21 -84 63c0 16.667 12.333 59 37 127l119 338l16 55c0 10 -4.66699 15 -14 15c-8.66699 0 -19.5 -4.16699 -32.5 -12.5s-22.5 -13.833 -28.5 -16.5s-11 -4.66699 -15 -6
c-9.33301 0 -14 4.66699 -14 14c0 7.33301 6 15 18 23s40.667 24.333 86 49c32.667 19.333 55.5 31.666 68.5 36.999s24.833 8 35.5 8c8.66699 0 15.667 -2 21 -6s8 -9.33301 8 -16c0 -4.66699 -2 -11.667 -6 -21c-10.667 -27.333 -18.334 -46.333 -23.001 -57l-131 -353
c-28.667 -78.667 -43 -125.667 -43 -141c0 -27.333 19.333 -41 58 -41c21.333 0 53.666 7.5 96.999 22.5s73.833 29.333 91.5 43s31.167 28.667 40.5 45s27 56.166 53 119.499l152 374z" />
    <glyph glyph-name="z" unicode="z" horiz-adv-x="602" 
d="M313 399l-213.005 -220.998c67.333 -27.333 120.833 -46.833 160.5 -58.5s70.834 -17.5 93.501 -17.5c27.333 0 53.333 7.5 78 22.5s53.334 41.833 86.001 80.5c2.66699 4 5.83398 6.66699 9.50098 8s6.83398 2.66602 9.50098 3.99902c4 0 7.33301 -2 10 -6
c0 -2.66699 0.666992 -4.66699 2 -6c-1.33301 -6.66699 -8.16602 -17.5 -20.499 -32.5s-29.5 -32.833 -51.5 -53.5c-31.333 -28.667 -61 -49.5 -89 -62.5s-59 -19.5 -93 -19.5c-36.667 0 -86.167 12 -148.5 36s-102.166 36 -119.499 36h-8c-16.667 0 -25 3.33301 -25 10
c0 5.33301 7.66699 15.666 23 30.999l239 253c-31.333 0 -56.666 -5.33301 -75.999 -16l-22 -10l-12 12c0 19.333 16.333 37.833 49 55.5s66.667 26.5 102 26.5h25l149 160l-22 2c-22 2.66699 -42.5 5.66699 -61.5 9s-41.5 7.66602 -67.5 12.999l-58 4
c-58.667 0 -109 -26.333 -151 -79c-5.33301 -6 -9.83301 -10 -13.5 -12s-6.16699 -3 -7.5 -3l-10 10c0 12.667 22 39.334 66 80.001c30 27.333 56.167 46.5 78.5 57.5s48.5 16.5 78.5 16.5c15.333 0 33.5 -1.66699 54.5 -5s47.833 -7.66602 80.5 -12.999l76 -11l29 2l24 5
c3.33301 0 7.66602 -3.66699 12.999 -11l4 -4c0 -5.33301 -8.33301 -16.333 -25 -33l-180 -188l43 -4c27.333 0 54.666 8.33301 81.999 25l14 4l11 -11c0 -10.667 -18.667 -30.334 -56 -59.001c-23.333 -18 -54 -27 -92 -27h-68z" />
    <glyph glyph-name="braceleft" unicode="{" horiz-adv-x="575" 
d="M25 170l18 39.0039c20.667 43.333 36.334 75.333 47.001 96c2.66699 5.33301 6 11.666 10 18.999l35 69c15.333 28.667 25.666 49.5 30.999 62.5s8 23.5 8 31.5c0 6 -2 12.333 -6 19c-28.667 -9.33301 -50 -14 -64 -14c-25.333 0 -38 8 -38 24c0 19.333 15 29 45 29
c14.667 0 34.334 -5.66699 59.001 -17c13.333 10 24.166 23.167 32.499 39.5s19.5 50.5 33.5 102.5c50 181.333 102 320.166 156 416.499s121.333 168.5 202 216.5c28.667 17.333 58.667 31.833 90 43.5s56 17.5 74 17.5c9.33301 0 14 -4 14 -12
c0 -7.33301 -5.5 -13.666 -16.5 -18.999s-32.167 -15.333 -63.5 -30c-69.333 -33.333 -121.5 -75.833 -156.5 -127.5s-77 -151.334 -126 -299.001s-84.5 -239.834 -106.5 -276.501s-60.333 -65.334 -115 -86.001c26 -24.667 39 -52.667 39 -84
c0 -19.333 -2 -35.833 -6 -49.5s-13.333 -38.167 -28 -73.5l-13 -26l-20 -43l-21 -41l-20 -43c-62.667 -134 -94 -221.667 -94 -263c0 -42 19 -84.333 57 -127c6.66699 -8 13.5 -15.333 20.5 -22s10.5 -12 10.5 -16l-13 -13c-20 0 -46.667 18 -80 54
c-42 46 -63 104.667 -63 176c0 56 22.667 131.667 68 227z" />
    <glyph glyph-name="bar" unicode="|" horiz-adv-x="1024" 
d="M585 1366h66v-1708h-66v1708z" />
    <glyph glyph-name="braceright" unicode="}" horiz-adv-x="575" 
d="M560 653l-28.999 -60.9951c-9.33301 -22 -14 -39.667 -14 -53l6 -17c27.333 10 48.333 15 63 15c26 0 39 -8.33301 39 -25c0 -20.667 -15 -31 -45 -31c-16.667 0 -36.334 6.33301 -59.001 19c-12.667 -8.66699 -23.334 -22.834 -32.001 -42.501s-20 -53.5 -34 -101.5
c-46 -168 -94.333 -295 -145 -381s-115.667 -152.667 -195 -200c-28.667 -18 -58.667 -32.833 -90 -44.5s-56 -17.5 -74 -17.5c-9.33301 0 -14 4.33301 -14 13c0 6.66699 5.5 12.667 16.5 18s32.167 15.666 63.5 30.999c75.333 35.333 130.333 81.333 165 138
s82.667 181.334 144 374.001c24.667 73.333 48.334 124.666 71.001 153.999s57.667 53.666 105 72.999c-26 24.667 -39 52 -39 82c0 32.667 16.333 86.667 49 162l78 166c31.333 65.333 55 119.833 71 163.5s24 76.5 24 98.5c0 27.333 -4.83301 50.166 -14.5 68.499
s-31.5 45.833 -65.5 82.5l-9 15l13 12c20 0 46.667 -17.667 80 -53c42 -46.667 63 -105.334 63 -176.001c0 -40 -6.16699 -78.667 -18.5 -116s-40.833 -101.333 -85.5 -192l-39 -73l-19 -37z" />
    <glyph glyph-name="asciitilde" unicode="~" horiz-adv-x="1366" 
d="M1212 1501l20.998 -14.002c-34 -52 -77.333 -95 -130 -129s-103 -51 -151 -51c-16 0 -33.333 2 -52 6s-47.667 12 -87 24c-116 38.667 -197.333 58 -244 58c-39.333 0 -71.666 -8.16699 -96.999 -24.5s-59.666 -51.166 -102.999 -104.499l-23 12
c84.667 122.667 179.667 184 285 184c27.333 0 52.833 -2.66699 76.5 -8s64.167 -17.666 121.5 -36.999c74 -24.667 127.333 -37 160 -37c84.667 0 159 40.333 223 121z" />
    <glyph glyph-name="dieresis" unicode="&#xa8;" horiz-adv-x="1024" 
 />
    <glyph glyph-name="copyright" unicode="&#xa9;" horiz-adv-x="1536" 
d="M966 1020c-86 0 -161.996 -42.001 -227.996 -126.001s-99 -180.667 -99 -290c0 -73.333 19.667 -134.666 59 -183.999s90 -74 152 -74c32.667 0 65 9.5 97 28.5s56.333 44.5 73 76.5c6.66699 10.667 10.667 18 12 22s4 20.333 8 49c6.66699 31.333 21 47 43 47
s33 -12.333 33 -37c0 -54 -34.167 -107 -102.5 -159s-138.5 -78 -210.5 -78c-74 0 -133.5 25.167 -178.5 75.5s-67.5 116.5 -67.5 198.5c0 124.667 44.667 239.167 134 343.5s186.666 156.5 291.999 156.5c22 0 45.167 -3.33301 69.5 -10s42.166 -15 53.499 -25l8 -4
c4 4 7.66699 11.167 11 21.5s10.666 15.5 21.999 15.5c13.333 0 24.166 -12 32.499 -36s12.5 -55.667 12.5 -95c0 -56 -11 -84 -33 -84c-10.667 0 -19 10.333 -25 31c-20 91.333 -76 137 -168 137zM934.004 1364c180 0 330 -59.333 450 -178s180 -268.334 180 -449.001
c0 -204.667 -73 -378.667 -219 -522s-323.333 -215 -532 -215c-180.667 0 -331 59.333 -451 178s-180 268.334 -180 449.001c0 204.667 73 378.667 219 522s323.667 215 533 215zM927.004 1309c-182.667 0 -338.834 -66.333 -468.501 -199s-194.5 -293.667 -194.5 -483
c0 -164 52.833 -300.333 158.5 -409s237.834 -163 396.501 -163c182.667 0 338.834 66.333 468.501 199s194.5 293.667 194.5 483c0 164 -52.833 300.333 -158.5 409s-237.834 163 -396.501 163z" />
    <glyph glyph-name="registered" unicode="&#xae;" horiz-adv-x="1536" 
d="M1095 584l19.0049 -148.002c4 -31.333 10 -47 18 -47l19 8c8 6 14.667 9.66699 20 11s8.66602 2.66602 9.99902 3.99902c10 0 15 -5 15 -15c0 -8 -1.66699 -13.667 -5 -17s-19.333 -15.333 -48 -36s-51.334 -31 -68.001 -31c-20.667 0 -33 22.667 -37 68l-8 123l-4 59
l-41 -2c-52 0 -78 17 -78 51c0 18 8.16699 33.833 24.5 47.5s34.833 20.5 55.5 20.5c44.667 0 76.667 -20.667 96 -62c34 15.333 61.333 39.333 82 72s31 70.334 31 113.001c0 68 -32.833 123.833 -98.5 167.5s-148.834 65.5 -249.501 65.5
c-90.667 0 -167.667 -20.833 -231 -62.5s-95 -92.5 -95 -152.5c0 -35.333 14.667 -64.666 44 -87.999s66.666 -35 111.999 -35c14.667 0 23.667 -0.666992 27 -2s5 -6 5 -14c0 -15.333 -20.333 -23 -61 -23c-61.333 0 -110.833 13.667 -148.5 41s-56.5 64.333 -56.5 111
c0 72.667 42.667 134.834 128 186.501s188.666 77.5 309.999 77.5c112 0 205.667 -24.5 281 -73.5s113 -111.167 113 -186.5c0 -102 -60.333 -179 -181 -231zM1003 603.998h15c-10 24.667 -26 37 -48 37c-2.66699 0 -5 -1.33301 -7 -4s-3.66699 -4.66699 -5 -6
c0 -18 15 -27 45 -27zM999.005 921.998l-133.002 -355.002c-19.333 -52 -38.166 -93.333 -56.499 -124s-40.166 -58.167 -65.499 -82.5s-58.166 -45.5 -98.499 -63.5s-76.166 -27 -107.499 -27c-14.667 0 -22 5.66699 -22 17c0 6.66699 2.33301 11.334 7 14.001
s24.167 7.5 58.5 14.5s64.666 22 90.999 45s51.166 59.167 74.499 108.5l64 149l12 29l10 31c10 28.667 18 50.167 24 64.5s12.333 28.833 19 43.5l29 78l6 17l2 10v8c-5.33301 -1.33301 -12.166 -4.33301 -20.499 -9s-16.5 -7 -24.5 -7c-9.33301 0 -14 4.66699 -14 14
c0 6.66699 4 12.834 12 18.501s19.667 13.167 35 22.5c49.333 28.667 80.666 43 93.999 43c12 0 18 -5.33301 18 -16zM934.003 1364c180 0 330 -59.333 450 -178s180 -268.334 180 -449.001c0 -204.667 -73 -378.667 -219 -522s-323.333 -215 -532 -215
c-180.667 0 -331 59.333 -451 178s-180 268.334 -180 449.001c0 204.667 73 378.667 219 522s323.667 215 533 215zM927.003 1309c-182.667 0 -338.834 -66.333 -468.501 -199s-194.5 -293.667 -194.5 -483c0 -164 52.833 -300.333 158.5 -409s237.834 -163 396.501 -163
c182.667 0 338.834 66.333 468.501 199s194.5 293.667 194.5 483c0 164 -52.833 300.333 -158.5 409s-237.834 163 -396.501 163z" />
    <glyph glyph-name="acute" unicode="&#xb4;" horiz-adv-x="1024" 
d="M745 1028c10.667 0 26.998 -10.998 48.998 -32.998c12.667 -12 19 -22 19 -30c0 -10 -8 -23.833 -24 -41.5s-33.333 -31.834 -52 -42.501c-31.333 -20.667 -62.666 -31 -93.999 -31c-15.333 0 -23 6 -23 18c0 7.33301 6.66699 15 20 23
c42.667 23.333 69.334 61.666 80.001 114.999c4 14.667 12.333 22 25 22z" />
    <glyph glyph-name="paragraph" unicode="&#xb6;" horiz-adv-x="1024" 
d="M929 1435l-0.000976562 -70h-127v-1365h-82v1365h-166v-1365h-84v738c-116 5.33301 -207.833 39.5 -275.5 102.5s-101.5 144.833 -101.5 245.5c0 104.667 35.833 189 107.5 253s166.834 96 285.501 96h443z" />
    <glyph glyph-name="onequarter" unicode="&#xbc;" horiz-adv-x="1435" 
d="M391 524l193.999 462.999c-113.333 -76.667 -204.666 -115 -273.999 -115c-20.667 0 -31 9.66699 -31 29c0 22 17.667 33 53 33c123.333 0 236.666 63.333 339.999 190c8.66699 12.667 17.667 19 27 19c4 0 8 -2 12 -6c0 -2.66699 0.666992 -5 2 -7c0 -4 -6 -16 -18 -36
c-2.66699 -4.66699 -13.667 -27.334 -33 -68.001c-6.66699 -13.333 -13.667 -27 -21 -41l-8 -16l-6 -17l-8 -18l-6 -19l-119 -317c-2.66699 -5.33301 -5 -12.166 -7 -20.499s-3.66699 -13.166 -5 -14.499l4 -4l26 10l9 2c10.667 0 16 -4.66699 16 -14
c0 -6.66699 -5.16699 -14.5 -15.5 -23.5s-31.166 -22.667 -62.499 -41s-53 -27.5 -65 -27.5c-14 0 -21 5.33301 -21 16l10 31zM1187 1094l-753 -1061c-16.667 -24.667 -31 -37 -43 -37c-16.667 0 -25 9 -25 27c0 8 1.33301 14.667 4 20s11 17.666 25 36.999l747 1046
c18 26 31.667 39 41 39c16.667 0 25 -8.66699 25 -26c0 -11.333 -7 -26.333 -21 -45zM1198 168l-18.9941 -49.001c-4 -11.333 -6 -19.666 -6 -24.999l6 -6l8 2l31 10c4 0 8 -2 12 -6c0 -2.66699 0.666992 -4.66699 2 -6c0 -8 -3 -14.5 -9 -19.5s-20 -12.833 -42 -23.5
c-35.333 -18 -63.333 -27 -84 -27c-14.667 0 -22 6.33301 -22 19l10 31l2 10l33 88l-109 31c-19.333 5.33301 -41.833 10.333 -67.5 15s-46.834 7 -63.501 7l-37 -6l-12 -2c-12.667 0 -19 5.33301 -19 16c0 6 2.83301 13.333 8.5 22s24.167 35.667 55.5 81
c65.333 94 144.166 175.833 236.499 245.5s167.166 104.5 224.499 104.5c18.667 0 28 -7.66699 28 -23c0 -5.33301 -6.66699 -27.666 -20 -66.999l-129 -367c31.333 5.33301 58.666 17 81.999 35c5.33301 4 10.666 6.66699 15.999 8s8.66602 2.66602 9.99902 3.99902
c11.333 0 17 -5.33301 17 -16s-16.333 -26 -49 -46s-64 -33.333 -94 -40zM1142 224.999l123 330l12 53l-8 6c-12 0 -35.833 -10.5 -71.5 -31.5s-68.5 -44.5 -98.5 -70.5c-83.333 -69.333 -150.333 -146.333 -201 -231c34.667 0 65.667 -3.66699 93 -11
c35.333 -12 67.333 -22 96 -30z" />
    <glyph glyph-name="onehalf" unicode="&#xbd;" horiz-adv-x="1435" 
d="M391 524l193.999 462.999c-113.333 -76.667 -204.666 -115 -273.999 -115c-20.667 0 -31 9.66699 -31 29c0 22 17.667 33 53 33c123.333 0 236.666 63.333 339.999 190c8.66699 12.667 17.667 19 27 19c4 0 8 -2 12 -6c0 -2.66699 0.666992 -5 2 -7c0 -4 -6 -16 -18 -36
c-2.66699 -4.66699 -13.667 -27.334 -33 -68.001c-6.66699 -13.333 -13.667 -27 -21 -41l-8 -16l-6 -17l-8 -18l-6 -19l-119 -317c-2.66699 -5.33301 -5 -12.166 -7 -20.499s-3.66699 -13.166 -5 -14.499l4 -4l26 10l9 2c10.667 0 16 -4.66699 16 -14
c0 -6.66699 -5.16699 -14.5 -15.5 -23.5s-31.166 -22.667 -62.499 -41s-53 -27.5 -65 -27.5c-14 0 -21 5.33301 -21 16l10 31zM1161 1094l-754 -1061c-18 -24.667 -32.333 -37 -43 -37c-16.667 0 -25 9 -25 27c0 10.667 9.66699 29.667 29 57l748 1046
c17.333 26 31 39 41 39c16 0 24 -8.66699 24 -26c0 -11.333 -6.66699 -26.333 -20 -45zM1005 101.999c36.667 -8 68.334 -14.665 95.001 -19.998s48.334 -8 65.001 -8c47.333 0 89.666 18.333 126.999 55c12 12 21.333 18 28 18c10 0 15 -4.66699 15 -14
c0 -4 -3.83301 -10.5 -11.5 -19.5s-19.5 -20.167 -35.5 -33.5c-57.333 -49.333 -116.333 -74 -177 -74c-13.333 0 -23.833 0.666992 -31.5 2s-25.834 6.33301 -54.501 15c-47.333 13.333 -82.666 20 -105.999 20l-33 -2l-12 -2c-10.667 0 -16 4.66699 -16 14
c0 10 10.667 19 32 27c30 13.333 69 37.833 117 73.5s89 70.5 123 104.5c83.333 87.333 125 169.333 125 246c0 39.333 -12.333 72.666 -37 99.999s-55.334 41 -92.001 41c-50.667 0 -96.167 -19.5 -136.5 -58.5s-60.5 -82.167 -60.5 -129.5c0 -30 8.83301 -55.333 26.5 -76
s40.167 -31 67.5 -31c23.333 0 46 7.66699 68 23c6.66699 5.33301 12.167 8.66602 16.5 9.99902s7.16602 2.66602 8.49902 3.99902l12 -12c0 -11.333 -12.333 -24.333 -37 -39c-35.333 -23.333 -71.666 -35 -108.999 -35c-36.667 0 -66.167 11.333 -88.5 34
s-33.5 51.667 -33.5 87c0 66.667 33 129 99 187s136.667 87 212 87c48 0 88.333 -15.667 121 -47s49 -71 49 -119c0 -100.667 -56 -201 -168 -301c-32.667 -31.333 -88.667 -73.666 -168 -126.999z" />
    <glyph glyph-name="threequarters" unicode="&#xbe;" horiz-adv-x="1435" 
d="M448 799l-14.001 0.000976562c-12 0 -18 5.33301 -18 16c0 9.33301 8.66699 17 26 23c34 13.333 62 33.666 84 60.999s33 56.666 33 87.999c0 24.667 -9.5 45.834 -28.5 63.501s-41.5 26.5 -67.5 26.5c-50.667 0 -95 -25.333 -133 -76c-8.66699 -9.33301 -17 -14 -25 -14
c-9.33301 0 -14 4.66699 -14 14c0 15.333 18.333 39.333 55 72c46.667 45.333 99.334 68 158.001 68c36.667 0 68.334 -12.667 95.001 -38s40 -54.333 40 -87c0 -52 -31.333 -103.333 -94 -154c78.667 -28.667 118 -84.667 118 -168c0 -80.667 -32.333 -152 -97 -214
s-138.667 -93 -222 -93c-52 0 -100.5 12 -145.5 36s-67.5 49.667 -67.5 77s13.667 41 41 41c13.333 0 28.333 -12.333 45 -37c35.333 -52 83.666 -78 144.999 -78c57.333 0 108 23.833 152 71.5s66 103.167 66 166.5c0 36.667 -11 68.667 -33 96s-48 41 -78 41zM1229 1094
l-754 -1061c-18 -24.667 -32.333 -37 -43 -37c-16.667 0 -25 9 -25 27c0 6.66699 1.83301 13 5.5 19s11.5 18.667 23.5 38l748 1046c17.333 26 31 39 41 39c16 0 24 -8.66699 24 -26c0 -11.333 -6.66699 -26.333 -20 -45zM1198 168.001l-17.998 -48.999l-7 -25l5 -6l8 2
l32 10l13 -12c0 -8 -3.16699 -14.5 -9.5 -19.5s-19.5 -12.833 -39.5 -23.5c-38.667 -18 -66.667 -27 -84 -27c-15.333 0 -23 6.33301 -23 19l8 31l4 10l33 88l-108 31c-19.333 5.33301 -42 10.333 -68 15s-47 7 -63 7l-37 -6l-13 -2c-12 0 -18 5.33301 -18 16
c0 6 2.66699 13.333 8 22s23.666 35.667 54.999 81c66 94 145 175.833 237 245.5s166.667 104.5 224 104.5c19.333 0 29 -7.66699 29 -23c0 -6.66699 -0.666992 -12 -2 -16c-6.66699 -16.667 -13 -33.667 -19 -51l-129 -367c32 5.33301 59.333 17 82 35
c6 4 11.667 6.66699 17 8s8.66602 2.66602 9.99902 3.99902c10.667 0 16 -5.33301 16 -16c0 -8 -15.667 -22.333 -47 -43s-63.333 -35 -96 -43zM1143 225.002l121 330l14 53l-8 6c-12.667 0 -36.667 -10.5 -72 -31.5s-68 -44.5 -98 -70.5
c-83.333 -69.333 -150.333 -146.333 -201 -231c34 0 64.667 -3.66699 92 -11c35.333 -12 67.333 -22 96 -30z" />
    <glyph glyph-name="Agrave" unicode="&#xc0;" horiz-adv-x="2115" 
d="M1735 201l95.9971 243.001c-52 -18.667 -127.667 -33.667 -227 -45l-101 -10l-149 -10c-131.333 -246 -292.666 -414.667 -483.999 -506c53.333 -54.667 121 -82 203 -82c97.333 0 178.666 29.333 243.999 88c6.66699 6.66699 12 10.834 16 12.501s6.66699 3.16699 8 4.5
c11.333 0 17 -5.66699 17 -17c0 -10.667 -15.667 -27 -47 -49c-80.667 -56 -164 -84 -250 -84c-102.667 0 -184.667 34.667 -246 104c-46.667 -14.667 -83.167 -24.667 -109.5 -30s-56.166 -8 -89.499 -8c-83.333 0 -163.5 20.833 -240.5 62.5s-115.5 85.5 -115.5 131.5
c-1.33301 11.333 2.16699 20.666 10.5 27.999s18.5 11 30.5 11c15.333 0 31 -11.667 47 -35c40 -56 82.833 -97 128.5 -123s98.5 -39 158.5 -39c24.667 0 48.167 2.5 70.5 7.5s50.5 14.167 84.5 27.5c-6.66699 15.333 -10.667 24.333 -12 27
c-5.33301 10.667 -12.666 32.334 -21.999 65.001c-50.667 -20 -98 -30 -142 -30c-40.667 0 -77 8.83301 -109 26.5s-48 38.167 -48 61.5c0 20 10 30 30 30c12.667 0 28.334 -9.33301 47.001 -28c34.667 -34 73.667 -51 117 -51c31.333 0 65 8.66699 101 26l-2 37
c0 80.667 29.333 152.334 88 215.001s142.334 111.334 251.001 146.001c3.33301 4 8.66602 11.833 15.999 23.5s15.666 26.167 24.999 43.5c62 118.667 131 260 207 424c57.333 125.333 106.5 217.5 147.5 276.5s103.833 128.5 188.5 208.5c-125.333 52 -261 78 -407 78
c-37.333 0 -76.333 -3.33301 -117 -10c84.667 -96.667 127 -208 127 -334c0 -156.667 -60.167 -301.334 -180.5 -434.001s-251.5 -199 -393.5 -199c-88.667 0 -163 32.167 -223 96.5s-90 143.5 -90 237.5c0 90 25 179.167 75 267.5s118 163.166 204 224.499
c46 32.667 95.667 62 149 88s115.333 49.667 186 71c-81.333 59.333 -170.666 89 -267.999 89c-98 0 -185.667 -31.833 -263 -95.5s-116 -135.834 -116 -216.501c0 -17.333 2.83301 -31.833 8.5 -43.5s17.167 -25.834 34.5 -42.501c-13.333 -12 -26.333 -18 -39 -18
c-20 0 -35.5 7.5 -46.5 22.5s-16.5 36.167 -16.5 63.5c0 95.333 48.5 182 145.5 260s205.5 117 325.5 117c135.333 0 248.666 -36.333 339.999 -109c84.667 18 168.667 27 252 27c151.333 0 281 -25.333 389 -76c100.667 75.333 216.667 113 348 113
c61.333 0 120.666 -13.667 177.999 -41s86 -56 86 -86c0 -23.333 -11.667 -35 -35 -35c-9.33301 0 -17.333 2.66699 -24 8s-15 13.666 -25 24.999c-53.333 57.333 -126.333 86 -219 86c-90 0 -179.333 -29.333 -268 -88c22 -12.667 43.667 -25 65 -37
c3.33301 -1.33301 15.666 -10.333 36.999 -27c37.333 18 71.666 31 102.999 39s61.333 12 90 12c44.667 0 84.834 -8.16699 120.501 -24.5s53.5 -35.5 53.5 -57.5c0 -24.667 -12.333 -37 -37 -37c-10.667 0 -23 6.33301 -37 19c-43.333 36.667 -89 55 -137 55
c-39.333 0 -79.666 -11.667 -120.999 -35c102.667 -94 154 -208 154 -342c0 -95.333 -16.333 -193.666 -49 -294.999l-48 -137c26 11.333 50.333 24.5 73 39.5s47.667 34.833 75 59.5c4 4 7.66699 6.66699 11 8s6.33301 2.66602 9 3.99902
c8.66699 -6.66699 13 -11.667 13 -15c0 -6.66699 -6.83301 -18.167 -20.5 -34.5s-32.167 -34.833 -55.5 -55.5c-34 -28.667 -78.333 -56.667 -133 -84l-10 -22l-9 -23l-10 -22c-16 -34 -26.333 -56.667 -31 -68l-32 -82l-27 -65c-9.33301 -22 -14 -39 -14 -51
c0 -19.333 8 -29 24 -29c18 0 40 9.66699 66 29c14.667 10.667 24.167 17.334 28.5 20.001s8.5 4 12.5 4c10.667 0 16 -5.33301 16 -16c0 -14 -19 -34.667 -57 -62c-57.333 -44.667 -106.666 -67 -147.999 -67c-42 0 -63 19 -63 57c0 10.667 2.33301 24 7 40
s13.334 40.333 26.001 73zM1491 676.001l-33 -73.999l-70 -151l164 10c66 0 121.167 4 165.5 12s90.166 21 137.499 39c48 122.667 81.5 219.167 100.5 289.5s28.5 132.166 28.5 185.499c0 116 -47.667 214.333 -143 295c-39.333 -30 -72.666 -62 -99.999 -96
s-55.333 -77.667 -84 -131c-11.333 -23.333 -28.5 -61 -51.5 -113s-40.833 -92.333 -53.5 -121l-30 -71zM1317 723.002l-34.998 -78.0039c-13.333 -31.333 -29.333 -65.166 -48 -101.499s-37.334 -70.166 -56.001 -101.499l-11 -16l72 10l51 8l84 181
c101.333 225.333 179 381 233 467s120.333 159 199 219c-8 6.66699 -20.833 15.834 -38.5 27.501s-36.834 22.167 -57.501 31.5c-66.667 -53.333 -131.667 -132.333 -195 -237c-38 -67.333 -81 -152.666 -129 -255.999l-34 -78zM1253 370.998l-14.0039 0.00292969l-76 -6
l-39 -7c-95.333 -162 -203.666 -282.667 -324.999 -362c8 -31.333 22.333 -61.333 43 -90c58.667 27.333 107.334 57.666 146.001 90.999s81.334 82.666 128.001 147.999c19.333 27.333 42.333 62.166 69 104.499s49.334 82.833 68.001 121.5zM1055 342.001
c-80.667 -20.667 -145.666 -56.168 -194.999 -106.501s-74 -105.5 -74 -165.5l4 -37c42.667 26 88.167 67.333 136.5 124s91.166 118.334 128.499 185.001zM1049 1432c-164 -27.333 -301.668 -94.667 -413.001 -202s-167 -226 -167 -356c0 -90 27.333 -164.333 82 -223
s123 -88 205 -88c122.667 0 229.334 50.833 320.001 152.5s136 221.5 136 359.5c0 70 -19 142.333 -57 217c-23.333 44 -49.333 81.667 -78 113zM1747 1846c10.667 0 18.666 -7.33105 23.999 -21.998c14 -54.667 40.667 -93 80 -115c14 -8 21 -15.333 21 -22
c0 -12.667 -7.66699 -19 -23 -19c-31.333 0 -62.666 10.333 -93.999 31c-20.667 12 -38.5 26.167 -53.5 42.5s-22.5 30.166 -22.5 41.499c0 9.33301 8.66699 22.166 26 38.499s31.333 24.5 42 24.5z" />
    <glyph glyph-name="Aacute" unicode="&#xc1;" horiz-adv-x="2115" 
d="M1735 201l95.9971 243.001c-52 -18.667 -127.667 -33.667 -227 -45l-101 -10l-149 -10c-131.333 -246 -292.666 -414.667 -483.999 -506c53.333 -54.667 121 -82 203 -82c97.333 0 178.666 29.333 243.999 88c6.66699 6.66699 12 10.834 16 12.501s6.66699 3.16699 8 4.5
c11.333 0 17 -5.66699 17 -17c0 -10.667 -15.667 -27 -47 -49c-80.667 -56 -164 -84 -250 -84c-102.667 0 -184.667 34.667 -246 104c-46.667 -14.667 -83.167 -24.667 -109.5 -30s-56.166 -8 -89.499 -8c-83.333 0 -163.5 20.833 -240.5 62.5s-115.5 85.5 -115.5 131.5
c-1.33301 11.333 2.16699 20.666 10.5 27.999s18.5 11 30.5 11c15.333 0 31 -11.667 47 -35c40 -56 82.833 -97 128.5 -123s98.5 -39 158.5 -39c24.667 0 48.167 2.5 70.5 7.5s50.5 14.167 84.5 27.5c-6.66699 15.333 -10.667 24.333 -12 27
c-5.33301 10.667 -12.666 32.334 -21.999 65.001c-50.667 -20 -98 -30 -142 -30c-40.667 0 -77 8.83301 -109 26.5s-48 38.167 -48 61.5c0 20 10 30 30 30c12.667 0 28.334 -9.33301 47.001 -28c34.667 -34 73.667 -51 117 -51c31.333 0 65 8.66699 101 26l-2 37
c0 80.667 29.333 152.334 88 215.001s142.334 111.334 251.001 146.001c3.33301 4 8.66602 11.833 15.999 23.5s15.666 26.167 24.999 43.5c62 118.667 131 260 207 424c57.333 125.333 106.5 217.5 147.5 276.5s103.833 128.5 188.5 208.5c-125.333 52 -261 78 -407 78
c-37.333 0 -76.333 -3.33301 -117 -10c84.667 -96.667 127 -208 127 -334c0 -156.667 -60.167 -301.334 -180.5 -434.001s-251.5 -199 -393.5 -199c-88.667 0 -163 32.167 -223 96.5s-90 143.5 -90 237.5c0 90 25 179.167 75 267.5s118 163.166 204 224.499
c46 32.667 95.667 62 149 88s115.333 49.667 186 71c-81.333 59.333 -170.666 89 -267.999 89c-98 0 -185.667 -31.833 -263 -95.5s-116 -135.834 -116 -216.501c0 -17.333 2.83301 -31.833 8.5 -43.5s17.167 -25.834 34.5 -42.501c-13.333 -12 -26.333 -18 -39 -18
c-20 0 -35.5 7.5 -46.5 22.5s-16.5 36.167 -16.5 63.5c0 95.333 48.5 182 145.5 260s205.5 117 325.5 117c135.333 0 248.666 -36.333 339.999 -109c84.667 18 168.667 27 252 27c151.333 0 281 -25.333 389 -76c100.667 75.333 216.667 113 348 113
c61.333 0 120.666 -13.667 177.999 -41s86 -56 86 -86c0 -23.333 -11.667 -35 -35 -35c-9.33301 0 -17.333 2.66699 -24 8s-15 13.666 -25 24.999c-53.333 57.333 -126.333 86 -219 86c-90 0 -179.333 -29.333 -268 -88c22 -12.667 43.667 -25 65 -37
c3.33301 -1.33301 15.666 -10.333 36.999 -27c37.333 18 71.666 31 102.999 39s61.333 12 90 12c44.667 0 84.834 -8.16699 120.501 -24.5s53.5 -35.5 53.5 -57.5c0 -24.667 -12.333 -37 -37 -37c-10.667 0 -23 6.33301 -37 19c-43.333 36.667 -89 55 -137 55
c-39.333 0 -79.666 -11.667 -120.999 -35c102.667 -94 154 -208 154 -342c0 -95.333 -16.333 -193.666 -49 -294.999l-48 -137c26 11.333 50.333 24.5 73 39.5s47.667 34.833 75 59.5c4 4 7.66699 6.66699 11 8s6.33301 2.66602 9 3.99902
c8.66699 -6.66699 13 -11.667 13 -15c0 -6.66699 -6.83301 -18.167 -20.5 -34.5s-32.167 -34.833 -55.5 -55.5c-34 -28.667 -78.333 -56.667 -133 -84l-10 -22l-9 -23l-10 -22c-16 -34 -26.333 -56.667 -31 -68l-32 -82l-27 -65c-9.33301 -22 -14 -39 -14 -51
c0 -19.333 8 -29 24 -29c18 0 40 9.66699 66 29c14.667 10.667 24.167 17.334 28.5 20.001s8.5 4 12.5 4c10.667 0 16 -5.33301 16 -16c0 -14 -19 -34.667 -57 -62c-57.333 -44.667 -106.666 -67 -147.999 -67c-42 0 -63 19 -63 57c0 10.667 2.33301 24 7 40
s13.334 40.333 26.001 73zM1491 676.001l-33 -73.999l-70 -151l164 10c66 0 121.167 4 165.5 12s90.166 21 137.499 39c48 122.667 81.5 219.167 100.5 289.5s28.5 132.166 28.5 185.499c0 116 -47.667 214.333 -143 295c-39.333 -30 -72.666 -62 -99.999 -96
s-55.333 -77.667 -84 -131c-11.333 -23.333 -28.5 -61 -51.5 -113s-40.833 -92.333 -53.5 -121l-30 -71zM1317 723.002l-34.998 -78.0039c-13.333 -31.333 -29.333 -65.166 -48 -101.499s-37.334 -70.166 -56.001 -101.499l-11 -16l72 10l51 8l84 181
c101.333 225.333 179 381 233 467s120.333 159 199 219c-8 6.66699 -20.833 15.834 -38.5 27.501s-36.834 22.167 -57.501 31.5c-66.667 -53.333 -131.667 -132.333 -195 -237c-38 -67.333 -81 -152.666 -129 -255.999l-34 -78zM1253 370.998l-14.0039 0.00292969l-76 -6
l-39 -7c-95.333 -162 -203.666 -282.667 -324.999 -362c8 -31.333 22.333 -61.333 43 -90c58.667 27.333 107.334 57.666 146.001 90.999s81.334 82.666 128.001 147.999c19.333 27.333 42.333 62.166 69 104.499s49.334 82.833 68.001 121.5zM1055 342.001
c-80.667 -20.667 -145.666 -56.168 -194.999 -106.501s-74 -105.5 -74 -165.5l4 -37c42.667 26 88.167 67.333 136.5 124s91.166 118.334 128.499 185.001zM1049 1432c-164 -27.333 -301.668 -94.667 -413.001 -202s-167 -226 -167 -356c0 -90 27.333 -164.333 82 -223
s123 -88 205 -88c122.667 0 229.334 50.833 320.001 152.5s136 221.5 136 359.5c0 70 -19 142.333 -57 217c-23.333 44 -49.333 81.667 -78 113zM1913 1827c10.667 0 27 -10.998 49 -32.998c12 -12 18 -22 18 -30c0 -10 -7.83301 -23.833 -23.5 -41.5
s-32.834 -31.834 -51.501 -42.501c-32 -20.667 -63.667 -31 -95 -31c-14.667 0 -22 6.33301 -22 19c0 6.66699 6.66699 14 20 22c42.667 23.333 69.334 61.666 80.001 114.999c4 14.667 12.333 22 25 22z" />
    <glyph glyph-name="Acircumflex" unicode="&#xc2;" horiz-adv-x="2115" 
d="M1735 201l95.9971 243.001c-52 -18.667 -127.667 -33.667 -227 -45l-101 -10l-149 -10c-131.333 -246 -292.666 -414.667 -483.999 -506c53.333 -54.667 121 -82 203 -82c97.333 0 178.666 29.333 243.999 88c6.66699 6.66699 12 10.834 16 12.501s6.66699 3.16699 8 4.5
c11.333 0 17 -5.66699 17 -17c0 -10.667 -15.667 -27 -47 -49c-80.667 -56 -164 -84 -250 -84c-102.667 0 -184.667 34.667 -246 104c-46.667 -14.667 -83.167 -24.667 -109.5 -30s-56.166 -8 -89.499 -8c-83.333 0 -163.5 20.833 -240.5 62.5s-115.5 85.5 -115.5 131.5
c-1.33301 11.333 2.16699 20.666 10.5 27.999s18.5 11 30.5 11c15.333 0 31 -11.667 47 -35c40 -56 82.833 -97 128.5 -123s98.5 -39 158.5 -39c24.667 0 48.167 2.5 70.5 7.5s50.5 14.167 84.5 27.5c-6.66699 15.333 -10.667 24.333 -12 27
c-5.33301 10.667 -12.666 32.334 -21.999 65.001c-50.667 -20 -98 -30 -142 -30c-40.667 0 -77 8.83301 -109 26.5s-48 38.167 -48 61.5c0 20 10 30 30 30c12.667 0 28.334 -9.33301 47.001 -28c34.667 -34 73.667 -51 117 -51c31.333 0 65 8.66699 101 26l-2 37
c0 80.667 29.333 152.334 88 215.001s142.334 111.334 251.001 146.001c3.33301 4 8.66602 11.833 15.999 23.5s15.666 26.167 24.999 43.5c62 118.667 131 260 207 424c57.333 125.333 106.5 217.5 147.5 276.5s103.833 128.5 188.5 208.5c-125.333 52 -261 78 -407 78
c-37.333 0 -76.333 -3.33301 -117 -10c84.667 -96.667 127 -208 127 -334c0 -156.667 -60.167 -301.334 -180.5 -434.001s-251.5 -199 -393.5 -199c-88.667 0 -163 32.167 -223 96.5s-90 143.5 -90 237.5c0 90 25 179.167 75 267.5s118 163.166 204 224.499
c46 32.667 95.667 62 149 88s115.333 49.667 186 71c-81.333 59.333 -170.666 89 -267.999 89c-98 0 -185.667 -31.833 -263 -95.5s-116 -135.834 -116 -216.501c0 -17.333 2.83301 -31.833 8.5 -43.5s17.167 -25.834 34.5 -42.501c-13.333 -12 -26.333 -18 -39 -18
c-20 0 -35.5 7.5 -46.5 22.5s-16.5 36.167 -16.5 63.5c0 95.333 48.5 182 145.5 260s205.5 117 325.5 117c135.333 0 248.666 -36.333 339.999 -109c84.667 18 168.667 27 252 27c151.333 0 281 -25.333 389 -76c100.667 75.333 216.667 113 348 113
c61.333 0 120.666 -13.667 177.999 -41s86 -56 86 -86c0 -23.333 -11.667 -35 -35 -35c-9.33301 0 -17.333 2.66699 -24 8s-15 13.666 -25 24.999c-53.333 57.333 -126.333 86 -219 86c-90 0 -179.333 -29.333 -268 -88c22 -12.667 43.667 -25 65 -37
c3.33301 -1.33301 15.666 -10.333 36.999 -27c37.333 18 71.666 31 102.999 39s61.333 12 90 12c44.667 0 84.834 -8.16699 120.501 -24.5s53.5 -35.5 53.5 -57.5c0 -24.667 -12.333 -37 -37 -37c-10.667 0 -23 6.33301 -37 19c-43.333 36.667 -89 55 -137 55
c-39.333 0 -79.666 -11.667 -120.999 -35c102.667 -94 154 -208 154 -342c0 -95.333 -16.333 -193.666 -49 -294.999l-48 -137c26 11.333 50.333 24.5 73 39.5s47.667 34.833 75 59.5c4 4 7.66699 6.66699 11 8s6.33301 2.66602 9 3.99902
c8.66699 -6.66699 13 -11.667 13 -15c0 -6.66699 -6.83301 -18.167 -20.5 -34.5s-32.167 -34.833 -55.5 -55.5c-34 -28.667 -78.333 -56.667 -133 -84l-10 -22l-9 -23l-10 -22c-16 -34 -26.333 -56.667 -31 -68l-32 -82l-27 -65c-9.33301 -22 -14 -39 -14 -51
c0 -19.333 8 -29 24 -29c18 0 40 9.66699 66 29c14.667 10.667 24.167 17.334 28.5 20.001s8.5 4 12.5 4c10.667 0 16 -5.33301 16 -16c0 -14 -19 -34.667 -57 -62c-57.333 -44.667 -106.666 -67 -147.999 -67c-42 0 -63 19 -63 57c0 10.667 2.33301 24 7 40
s13.334 40.333 26.001 73zM1491 676.001l-33 -73.999l-70 -151l164 10c66 0 121.167 4 165.5 12s90.166 21 137.499 39c48 122.667 81.5 219.167 100.5 289.5s28.5 132.166 28.5 185.499c0 116 -47.667 214.333 -143 295c-39.333 -30 -72.666 -62 -99.999 -96
s-55.333 -77.667 -84 -131c-11.333 -23.333 -28.5 -61 -51.5 -113s-40.833 -92.333 -53.5 -121l-30 -71zM1317 723.002l-34.998 -78.0039c-13.333 -31.333 -29.333 -65.166 -48 -101.499s-37.334 -70.166 -56.001 -101.499l-11 -16l72 10l51 8l84 181
c101.333 225.333 179 381 233 467s120.333 159 199 219c-8 6.66699 -20.833 15.834 -38.5 27.501s-36.834 22.167 -57.501 31.5c-66.667 -53.333 -131.667 -132.333 -195 -237c-38 -67.333 -81 -152.666 -129 -255.999l-34 -78zM1253 370.998l-14.0039 0.00292969l-76 -6
l-39 -7c-95.333 -162 -203.666 -282.667 -324.999 -362c8 -31.333 22.333 -61.333 43 -90c58.667 27.333 107.334 57.666 146.001 90.999s81.334 82.666 128.001 147.999c19.333 27.333 42.333 62.166 69 104.499s49.334 82.833 68.001 121.5zM1055 342.001
c-80.667 -20.667 -145.666 -56.168 -194.999 -106.501s-74 -105.5 -74 -165.5l4 -37c42.667 26 88.167 67.333 136.5 124s91.166 118.334 128.499 185.001zM1049 1432c-164 -27.333 -301.668 -94.667 -413.001 -202s-167 -226 -167 -356c0 -90 27.333 -164.333 82 -223
s123 -88 205 -88c122.667 0 229.334 50.833 320.001 152.5s136 221.5 136 359.5c0 70 -19 142.333 -57 217c-23.333 44 -49.333 81.667 -78 113zM2127 1824l97.001 -111l20 -29c0 -8 -12.333 -12 -37 -12h-37c-22.667 0 -41 8.33301 -55 25l-33 41
c-12 13.333 -23.667 20 -35 20c-4 0 -16.667 -4.66699 -38 -14l-113 -49l-43 -15c-4 0 -7.33301 1.5 -10 4.5s-4 5.16699 -4 6.5c0 8 13 21 39 39l149 104c15.333 10.667 25.666 17.5 30.999 20.5s12 4.5 20 4.5s14.5 -1.5 19.5 -4.5s14.833 -13.167 29.5 -30.5z" />
    <glyph glyph-name="Atilde" unicode="&#xc3;" horiz-adv-x="2115" 
d="M1735 201l95.9971 243.001c-52 -18.667 -127.667 -33.667 -227 -45l-101 -10l-149 -10c-131.333 -246 -292.666 -414.667 -483.999 -506c53.333 -54.667 121 -82 203 -82c97.333 0 178.666 29.333 243.999 88c6.66699 6.66699 12 10.834 16 12.501s6.66699 3.16699 8 4.5
c11.333 0 17 -5.66699 17 -17c0 -10.667 -15.667 -27 -47 -49c-80.667 -56 -164 -84 -250 -84c-102.667 0 -184.667 34.667 -246 104c-46.667 -14.667 -83.167 -24.667 -109.5 -30s-56.166 -8 -89.499 -8c-83.333 0 -163.5 20.833 -240.5 62.5s-115.5 85.5 -115.5 131.5
c-1.33301 11.333 2.16699 20.666 10.5 27.999s18.5 11 30.5 11c15.333 0 31 -11.667 47 -35c40 -56 82.833 -97 128.5 -123s98.5 -39 158.5 -39c24.667 0 48.167 2.5 70.5 7.5s50.5 14.167 84.5 27.5c-6.66699 15.333 -10.667 24.333 -12 27
c-5.33301 10.667 -12.666 32.334 -21.999 65.001c-50.667 -20 -98 -30 -142 -30c-40.667 0 -77 8.83301 -109 26.5s-48 38.167 -48 61.5c0 20 10 30 30 30c12.667 0 28.334 -9.33301 47.001 -28c34.667 -34 73.667 -51 117 -51c31.333 0 65 8.66699 101 26l-2 37
c0 80.667 29.333 152.334 88 215.001s142.334 111.334 251.001 146.001c3.33301 4 8.66602 11.833 15.999 23.5s15.666 26.167 24.999 43.5c62 118.667 131 260 207 424c57.333 125.333 106.5 217.5 147.5 276.5s103.833 128.5 188.5 208.5c-125.333 52 -261 78 -407 78
c-37.333 0 -76.333 -3.33301 -117 -10c84.667 -96.667 127 -208 127 -334c0 -156.667 -60.167 -301.334 -180.5 -434.001s-251.5 -199 -393.5 -199c-88.667 0 -163 32.167 -223 96.5s-90 143.5 -90 237.5c0 90 25 179.167 75 267.5s118 163.166 204 224.499
c46 32.667 95.667 62 149 88s115.333 49.667 186 71c-81.333 59.333 -170.666 89 -267.999 89c-98 0 -185.667 -31.833 -263 -95.5s-116 -135.834 -116 -216.501c0 -17.333 2.83301 -31.833 8.5 -43.5s17.167 -25.834 34.5 -42.501c-13.333 -12 -26.333 -18 -39 -18
c-20 0 -35.5 7.5 -46.5 22.5s-16.5 36.167 -16.5 63.5c0 95.333 48.5 182 145.5 260s205.5 117 325.5 117c135.333 0 248.666 -36.333 339.999 -109c84.667 18 168.667 27 252 27c151.333 0 281 -25.333 389 -76c100.667 75.333 216.667 113 348 113
c61.333 0 120.666 -13.667 177.999 -41s86 -56 86 -86c0 -23.333 -11.667 -35 -35 -35c-9.33301 0 -17.333 2.66699 -24 8s-15 13.666 -25 24.999c-53.333 57.333 -126.333 86 -219 86c-90 0 -179.333 -29.333 -268 -88c22 -12.667 43.667 -25 65 -37
c3.33301 -1.33301 15.666 -10.333 36.999 -27c37.333 18 71.666 31 102.999 39s61.333 12 90 12c44.667 0 84.834 -8.16699 120.501 -24.5s53.5 -35.5 53.5 -57.5c0 -24.667 -12.333 -37 -37 -37c-10.667 0 -23 6.33301 -37 19c-43.333 36.667 -89 55 -137 55
c-39.333 0 -79.666 -11.667 -120.999 -35c102.667 -94 154 -208 154 -342c0 -95.333 -16.333 -193.666 -49 -294.999l-48 -137c26 11.333 50.333 24.5 73 39.5s47.667 34.833 75 59.5c4 4 7.66699 6.66699 11 8s6.33301 2.66602 9 3.99902
c8.66699 -6.66699 13 -11.667 13 -15c0 -6.66699 -6.83301 -18.167 -20.5 -34.5s-32.167 -34.833 -55.5 -55.5c-34 -28.667 -78.333 -56.667 -133 -84l-10 -22l-9 -23l-10 -22c-16 -34 -26.333 -56.667 -31 -68l-32 -82l-27 -65c-9.33301 -22 -14 -39 -14 -51
c0 -19.333 8 -29 24 -29c18 0 40 9.66699 66 29c14.667 10.667 24.167 17.334 28.5 20.001s8.5 4 12.5 4c10.667 0 16 -5.33301 16 -16c0 -14 -19 -34.667 -57 -62c-57.333 -44.667 -106.666 -67 -147.999 -67c-42 0 -63 19 -63 57c0 10.667 2.33301 24 7 40
s13.334 40.333 26.001 73zM1491 676.001l-33 -73.999l-70 -151l164 10c66 0 121.167 4 165.5 12s90.166 21 137.499 39c48 122.667 81.5 219.167 100.5 289.5s28.5 132.166 28.5 185.499c0 116 -47.667 214.333 -143 295c-39.333 -30 -72.666 -62 -99.999 -96
s-55.333 -77.667 -84 -131c-11.333 -23.333 -28.5 -61 -51.5 -113s-40.833 -92.333 -53.5 -121l-30 -71zM1317 723.002l-34.998 -78.0039c-13.333 -31.333 -29.333 -65.166 -48 -101.499s-37.334 -70.166 -56.001 -101.499l-11 -16l72 10l51 8l84 181
c101.333 225.333 179 381 233 467s120.333 159 199 219c-8 6.66699 -20.833 15.834 -38.5 27.501s-36.834 22.167 -57.501 31.5c-66.667 -53.333 -131.667 -132.333 -195 -237c-38 -67.333 -81 -152.666 -129 -255.999l-34 -78zM1253 370.998l-14.0039 0.00292969l-76 -6
l-39 -7c-95.333 -162 -203.666 -282.667 -324.999 -362c8 -31.333 22.333 -61.333 43 -90c58.667 27.333 107.334 57.666 146.001 90.999s81.334 82.666 128.001 147.999c19.333 27.333 42.333 62.166 69 104.499s49.334 82.833 68.001 121.5zM1055 342.001
c-80.667 -20.667 -145.666 -56.168 -194.999 -106.501s-74 -105.5 -74 -165.5l4 -37c42.667 26 88.167 67.333 136.5 124s91.166 118.334 128.499 185.001zM1049 1432c-164 -27.333 -301.668 -94.667 -413.001 -202s-167 -226 -167 -356c0 -90 27.333 -164.333 82 -223
s123 -88 205 -88c122.667 0 229.334 50.833 320.001 152.5s136 221.5 136 359.5c0 70 -19 142.333 -57 217c-23.333 44 -49.333 81.667 -78 113zM1982 1783l15.998 -4l66 -22l35 -6c12 0 21.5 2 28.5 6s19.167 14.333 36.5 31c7.33301 6.66699 14.333 10 21 10
c9.33301 0 14 -5 14 -15c0 -8 -13 -25.667 -39 -53c-20.667 -23.333 -37 -39 -49 -47s-26.333 -12 -43 -12c-15.333 0 -27.666 1.33301 -36.999 4s-36 11.667 -80 27c-28.667 9.33301 -49 14 -61 14c-20.667 0 -42.667 -9.66699 -66 -29c-9.33301 -6.66699 -18 -12 -26 -16
c-1.33301 0 -2.66602 -0.666992 -3.99902 -2l-13 12c0 8 10.333 23.667 31 47c42.667 45.333 79 68 109 68c6.66699 0 15.5 -1.33301 26.5 -4s22.5 -5.66699 34.5 -9z" />
    <glyph glyph-name="Egrave" unicode="&#xc8;" horiz-adv-x="1523" 
d="M849 1409l-0.00292969 41.002c-118.667 -71.333 -186.334 -181.333 -203.001 -330c56 10 100.333 15 133 15c93.333 0 170 -21.833 230 -65.5s90 -99.167 90 -166.5c0 -57.333 -20.833 -106.166 -62.5 -146.499s-92.5 -60.5 -152.5 -60.5
c-139.333 0 -244.666 74.667 -315.999 224c-52.667 -36 -95.5 -87.333 -128.5 -154s-49.5 -138.334 -49.5 -215.001c0 -131.333 43 -244 129 -338s189.333 -141 310 -141c86 0 158 27.333 216 82s92.333 127 103 217c6.66699 54.667 21.667 82 45 82c26 0 39 -15.667 39 -47
c0 -26 -6.16699 -55.833 -18.5 -89.5s-29.5 -65.5 -51.5 -95.5c-39.333 -57.333 -93.5 -103.666 -162.5 -138.999s-140.167 -53 -213.5 -53c-135.333 0 -248.166 45.667 -338.499 137s-135.5 206.666 -135.5 345.999c0 178.667 82 326 246 442c-8 30 -12 61.667 -12 95
c-110.667 -56 -197 -135 -259 -237s-93 -214.333 -93 -337c0 -162.667 57.333 -297.834 172 -405.501s257.334 -161.5 428.001 -161.5c148.667 0 278.334 51.833 389.001 155.5s166 225.167 166 364.5c0 40.667 -3.66699 76.334 -11 107.001l-6 45c0 39.333 17.333 59 52 59
c42 0 63 -32 63 -96c0 -192.667 -73 -357.334 -219 -494.001s-322.333 -205 -529 -205c-182.667 0 -331.334 54 -446.001 162s-172 248.667 -172 422c0 139.333 41 267 123 383s196.667 207.333 344 274c13.333 92 45 171 95 237s122 125 216 177
c22 65.333 60.667 117.5 116 156.5s119 58.5 191 58.5c96 0 177 -29.667 243 -89s99 -131.333 99 -216s-27 -154.334 -81 -209.001c-20.667 -23.333 -40 -35 -58 -35c-13.333 0 -20 7 -20 21l6 22l6 49c0 64.667 -33.5 121.5 -100.5 170.5s-144.167 73.5 -231.5 73.5
c-35.333 0 -75.666 -6.66699 -120.999 -20l-6 -41c0 -40 11.667 -67.333 35 -82c10.667 -8 19.667 -16.333 27 -25c1.33301 -4 0 -8 -4 -12c-10 -9.33301 -21 -14 -33 -14c-22 0 -40.5 9.5 -55.5 28.5s-22.5 43.5 -22.5 73.5zM643.997 1079l0.000976562 -39.001l4 -45
c45.333 12.667 85.666 19 120.999 19c52 0 97.5 -11.667 136.5 -35s58.5 -50.666 58.5 -81.999c0 -30 -14.333 -45 -43 -45c-12.667 0 -19 4 -19 12l2 8l2 19c0 20.667 -17.333 40.5 -52 59.5s-71 28.5 -109 28.5c-23.333 0 -53 -6 -89 -18
c50.667 -148 133.334 -222 248.001 -222c41.333 0 75.666 13 102.999 39s41 58 41 96c0 60.667 -29 111 -87 151s-132.333 60 -223 60c-38 0 -69.333 -2 -94 -6zM1427 1329c16 31.333 24 59.999 24 85.999c0 72.667 -29.333 134.834 -88 186.501s-129.667 77.5 -213 77.5
c-109.333 0 -186.333 -51.667 -231 -155c54.667 14.667 103 22 145 22c180 0 301 -72.333 363 -217zM1177 1931c10.667 0 18.666 -7.33105 23.999 -21.998c14 -54.667 40.667 -93 80 -115c14 -8 21 -15.333 21 -22c0 -12.667 -7.66699 -19 -23 -19
c-31.333 0 -62.666 10.333 -93.999 31c-20.667 12 -38.5 26.167 -53.5 42.5s-22.5 30.166 -22.5 41.499c0 9.33301 8.5 22.166 25.5 38.499s31.167 24.5 42.5 24.5z" />
    <glyph glyph-name="Eacute" unicode="&#xc9;" horiz-adv-x="1523" 
d="M849 1409l-0.00292969 41.002c-118.667 -71.333 -186.334 -181.333 -203.001 -330c56 10 100.333 15 133 15c93.333 0 170 -21.833 230 -65.5s90 -99.167 90 -166.5c0 -57.333 -20.833 -106.166 -62.5 -146.499s-92.5 -60.5 -152.5 -60.5
c-139.333 0 -244.666 74.667 -315.999 224c-52.667 -36 -95.5 -87.333 -128.5 -154s-49.5 -138.334 -49.5 -215.001c0 -131.333 43 -244 129 -338s189.333 -141 310 -141c86 0 158 27.333 216 82s92.333 127 103 217c6.66699 54.667 21.667 82 45 82c26 0 39 -15.667 39 -47
c0 -26 -6.16699 -55.833 -18.5 -89.5s-29.5 -65.5 -51.5 -95.5c-39.333 -57.333 -93.5 -103.666 -162.5 -138.999s-140.167 -53 -213.5 -53c-135.333 0 -248.166 45.667 -338.499 137s-135.5 206.666 -135.5 345.999c0 178.667 82 326 246 442c-8 30 -12 61.667 -12 95
c-110.667 -56 -197 -135 -259 -237s-93 -214.333 -93 -337c0 -162.667 57.333 -297.834 172 -405.501s257.334 -161.5 428.001 -161.5c148.667 0 278.334 51.833 389.001 155.5s166 225.167 166 364.5c0 40.667 -3.66699 76.334 -11 107.001l-6 45c0 39.333 17.333 59 52 59
c42 0 63 -32 63 -96c0 -192.667 -73 -357.334 -219 -494.001s-322.333 -205 -529 -205c-182.667 0 -331.334 54 -446.001 162s-172 248.667 -172 422c0 139.333 41 267 123 383s196.667 207.333 344 274c13.333 92 45 171 95 237s122 125 216 177
c22 65.333 60.667 117.5 116 156.5s119 58.5 191 58.5c96 0 177 -29.667 243 -89s99 -131.333 99 -216s-27 -154.334 -81 -209.001c-20.667 -23.333 -40 -35 -58 -35c-13.333 0 -20 7 -20 21l6 22l6 49c0 64.667 -33.5 121.5 -100.5 170.5s-144.167 73.5 -231.5 73.5
c-35.333 0 -75.666 -6.66699 -120.999 -20l-6 -41c0 -40 11.667 -67.333 35 -82c10.667 -8 19.667 -16.333 27 -25c1.33301 -4 0 -8 -4 -12c-10 -9.33301 -21 -14 -33 -14c-22 0 -40.5 9.5 -55.5 28.5s-22.5 43.5 -22.5 73.5zM643.997 1079l0.000976562 -39.001l4 -45
c45.333 12.667 85.666 19 120.999 19c52 0 97.5 -11.667 136.5 -35s58.5 -50.666 58.5 -81.999c0 -30 -14.333 -45 -43 -45c-12.667 0 -19 4 -19 12l2 8l2 19c0 20.667 -17.333 40.5 -52 59.5s-71 28.5 -109 28.5c-23.333 0 -53 -6 -89 -18
c50.667 -148 133.334 -222 248.001 -222c41.333 0 75.666 13 102.999 39s41 58 41 96c0 60.667 -29 111 -87 151s-132.333 60 -223 60c-38 0 -69.333 -2 -94 -6zM1427 1329c16 31.333 24 59.999 24 85.999c0 72.667 -29.333 134.834 -88 186.501s-129.667 77.5 -213 77.5
c-109.333 0 -186.333 -51.667 -231 -155c54.667 14.667 103 22 145 22c180 0 301 -72.333 363 -217zM1330 1931c11.333 0 27.666 -10.998 48.999 -32.998c12.667 -12 19 -22 19 -30c0 -10 -7.83301 -23.833 -23.5 -41.5s-33.167 -31.834 -52.5 -42.501
c-31.333 -20.667 -62.666 -31 -93.999 -31c-15.333 0 -23 6.33301 -23 19c0 6.66699 7 14 21 22c42 23.333 68.667 61.666 80 114.999c4 14.667 12 22 24 22z" />
    <glyph glyph-name="Ecircumflex" unicode="&#xca;" horiz-adv-x="1523" 
d="M849 1409l-0.00292969 41.002c-118.667 -71.333 -186.334 -181.333 -203.001 -330c56 10 100.333 15 133 15c93.333 0 170 -21.833 230 -65.5s90 -99.167 90 -166.5c0 -57.333 -20.833 -106.166 -62.5 -146.499s-92.5 -60.5 -152.5 -60.5
c-139.333 0 -244.666 74.667 -315.999 224c-52.667 -36 -95.5 -87.333 -128.5 -154s-49.5 -138.334 -49.5 -215.001c0 -131.333 43 -244 129 -338s189.333 -141 310 -141c86 0 158 27.333 216 82s92.333 127 103 217c6.66699 54.667 21.667 82 45 82c26 0 39 -15.667 39 -47
c0 -26 -6.16699 -55.833 -18.5 -89.5s-29.5 -65.5 -51.5 -95.5c-39.333 -57.333 -93.5 -103.666 -162.5 -138.999s-140.167 -53 -213.5 -53c-135.333 0 -248.166 45.667 -338.499 137s-135.5 206.666 -135.5 345.999c0 178.667 82 326 246 442c-8 30 -12 61.667 -12 95
c-110.667 -56 -197 -135 -259 -237s-93 -214.333 -93 -337c0 -162.667 57.333 -297.834 172 -405.501s257.334 -161.5 428.001 -161.5c148.667 0 278.334 51.833 389.001 155.5s166 225.167 166 364.5c0 40.667 -3.66699 76.334 -11 107.001l-6 45c0 39.333 17.333 59 52 59
c42 0 63 -32 63 -96c0 -192.667 -73 -357.334 -219 -494.001s-322.333 -205 -529 -205c-182.667 0 -331.334 54 -446.001 162s-172 248.667 -172 422c0 139.333 41 267 123 383s196.667 207.333 344 274c13.333 92 45 171 95 237s122 125 216 177
c22 65.333 60.667 117.5 116 156.5s119 58.5 191 58.5c96 0 177 -29.667 243 -89s99 -131.333 99 -216s-27 -154.334 -81 -209.001c-20.667 -23.333 -40 -35 -58 -35c-13.333 0 -20 7 -20 21l6 22l6 49c0 64.667 -33.5 121.5 -100.5 170.5s-144.167 73.5 -231.5 73.5
c-35.333 0 -75.666 -6.66699 -120.999 -20l-6 -41c0 -40 11.667 -67.333 35 -82c10.667 -8 19.667 -16.333 27 -25c1.33301 -4 0 -8 -4 -12c-10 -9.33301 -21 -14 -33 -14c-22 0 -40.5 9.5 -55.5 28.5s-22.5 43.5 -22.5 73.5zM643.997 1079l0.000976562 -39.001l4 -45
c45.333 12.667 85.666 19 120.999 19c52 0 97.5 -11.667 136.5 -35s58.5 -50.666 58.5 -81.999c0 -30 -14.333 -45 -43 -45c-12.667 0 -19 4 -19 12l2 8l2 19c0 20.667 -17.333 40.5 -52 59.5s-71 28.5 -109 28.5c-23.333 0 -53 -6 -89 -18
c50.667 -148 133.334 -222 248.001 -222c41.333 0 75.666 13 102.999 39s41 58 41 96c0 60.667 -29 111 -87 151s-132.333 60 -223 60c-38 0 -69.333 -2 -94 -6zM1427 1329c16 31.333 24 59.999 24 85.999c0 72.667 -29.333 134.834 -88 186.501s-129.667 77.5 -213 77.5
c-109.333 0 -186.333 -51.667 -231 -155c54.667 14.667 103 22 145 22c180 0 301 -72.333 363 -217zM1347 1909l96.002 -111l20 -29c0 -8 -12 -12 -36 -12h-37c-23.333 0 -42 8.33301 -56 25l-32 41c-12.667 13.333 -24.334 20 -35.001 20c-4 0 -17 -4.66699 -39 -14
l-113 -49l-43 -15c-4 0 -7.33301 1.5 -10 4.5s-4 5.16699 -4 6.5c0 8 13 21 39 39l149 104c15.333 10.667 25.666 17.5 30.999 20.5s12.333 4.5 21 4.5c8 0 14.333 -1.5 19 -4.5s14.667 -13.167 30 -30.5z" />
    <glyph glyph-name="Igrave" unicode="&#xcc;" horiz-adv-x="1640" 
d="M1407 754l104 285.997c19.333 53.333 34.166 85.166 44.499 95.499s47.5 32.5 111.5 66.5c-110.667 90 -234.667 162.333 -372 217s-264 82 -380 82c-162 0 -297.667 -46.333 -407 -139s-164 -208 -164 -346c0 -91.333 32 -169.833 96 -235.5s141.333 -98.5 232 -98.5
c57.333 0 120.666 17 189.999 51l12 2c2.66699 0 7 -3.33301 13 -10c0 -1.33301 0.666992 -2.66602 2 -3.99902c0 -9.33301 -16.333 -21.666 -49 -36.999c-70 -30 -144 -45 -222 -45c-109.333 0 -197 33.167 -263 99.5s-99 153.833 -99 262.5
c0 153.333 71.667 283.166 215 389.499s317.333 159.5 522 159.5c146 0 291.667 -28 437 -84s270 -132.333 374 -229c-53.333 -18 -92.666 -48.167 -117.999 -90.5s-79.333 -165.833 -162 -370.5l-11 -26l43 -2c67.333 0 125.333 32.667 174 98c6 8 10.667 12.667 14 14
s5.66602 2.66602 6.99902 3.99902c2.66699 0 6.66699 -3.33301 12 -10c0 -1.33301 0.666992 -2.66602 2 -3.99902c0 -15.333 -9.5 -34.5 -28.5 -57.5s-42.5 -43.833 -70.5 -62.5s-55.333 -32.667 -82 -42s-55 -14 -85 -14h-14l-35 -88
c-53.333 -135.333 -107 -243.666 -161 -324.999s-119.333 -152.666 -196 -213.999c-138.667 -110.667 -290 -166 -454 -166c-66 0 -129.667 8.83301 -191 26.5s-116.666 43.167 -165.999 76.5c-69.333 46 -104 87.667 -104 125c0 13.333 4.5 24.5 13.5 33.5
s20.167 13.5 33.5 13.5c15.333 0 28 -4.5 38 -13.5s31.167 -35.667 63.5 -80s77.5 -78.833 135.5 -103.5s121.667 -37 191 -37c143.333 0 274.5 55.667 393.5 167s215.833 270.666 290.5 477.999l39 109l-55 4h-45c-48 -177.333 -134.5 -326.5 -259.5 -447.5
s-254.833 -181.5 -389.5 -181.5c-52 0 -102.333 12.333 -151 37s-73 50.667 -73 78c0 22 11.667 33 35 33c12.667 0 24.334 -7.66699 35.001 -23c28.667 -35.333 54.667 -59.166 78 -71.499s53.333 -18.5 90 -18.5c116 0 228.667 56 338 168s187 252 233 420
c-90 0 -158.333 -37.667 -205 -113c-14.667 -24.667 -24.667 -37 -30 -37c-2.66699 0 -5.83398 2.16699 -9.50098 6.5s-5.5 7.16602 -5.5 8.49902c0 6.66699 5.66699 20.334 17 41.001c5.33301 9.33301 12 20 20 32c27.333 40 58.166 70.5 92.499 91.5
s78.833 37.167 133.5 48.5c2.66699 21.333 5.33398 46 8.00098 74s4 57 4 87c0 114.667 -34.167 211 -102.5 289s-153.166 117 -254.499 117c-73.333 0 -137.333 -28 -192 -84s-82 -122.333 -82 -199c0 -54.667 14 -100 42 -136s62.333 -54 103 -54h15l18 2
c10 0 15 -4 15 -12c1.33301 -7.33301 -5.5 -13.666 -20.5 -18.999s-34.833 -8 -59.5 -8c-52 0 -95.833 19.833 -131.5 59.5s-53.5 88.834 -53.5 147.501c0 92.667 38.333 172.5 115 239.5s168 100.5 274 100.5c112 0 205 -40.333 279 -121s111 -182.334 111 -305.001
c0 -44 -6.33301 -100.667 -19 -170h17zM1263 1931c11.333 0 19.666 -7.33105 24.999 -21.998c13.333 -54.667 40 -93 80 -115c13.333 -8 20 -15.333 20 -22c0 -12.667 -7.33301 -19 -22 -19c-31.333 0 -62.666 10.333 -93.999 31c-20.667 12 -38.5 26.167 -53.5 42.5
s-22.5 30.166 -22.5 41.499c0 9.33301 8.5 22.166 25.5 38.499s30.833 24.5 41.5 24.5z" />
    <glyph glyph-name="Iacute" unicode="&#xcd;" horiz-adv-x="1640" 
d="M1407 754l104 285.997c19.333 53.333 34.166 85.166 44.499 95.499s47.5 32.5 111.5 66.5c-110.667 90 -234.667 162.333 -372 217s-264 82 -380 82c-162 0 -297.667 -46.333 -407 -139s-164 -208 -164 -346c0 -91.333 32 -169.833 96 -235.5s141.333 -98.5 232 -98.5
c57.333 0 120.666 17 189.999 51l12 2c2.66699 0 7 -3.33301 13 -10c0 -1.33301 0.666992 -2.66602 2 -3.99902c0 -9.33301 -16.333 -21.666 -49 -36.999c-70 -30 -144 -45 -222 -45c-109.333 0 -197 33.167 -263 99.5s-99 153.833 -99 262.5
c0 153.333 71.667 283.166 215 389.499s317.333 159.5 522 159.5c146 0 291.667 -28 437 -84s270 -132.333 374 -229c-53.333 -18 -92.666 -48.167 -117.999 -90.5s-79.333 -165.833 -162 -370.5l-11 -26l43 -2c67.333 0 125.333 32.667 174 98c6 8 10.667 12.667 14 14
s5.66602 2.66602 6.99902 3.99902c2.66699 0 6.66699 -3.33301 12 -10c0 -1.33301 0.666992 -2.66602 2 -3.99902c0 -15.333 -9.5 -34.5 -28.5 -57.5s-42.5 -43.833 -70.5 -62.5s-55.333 -32.667 -82 -42s-55 -14 -85 -14h-14l-35 -88
c-53.333 -135.333 -107 -243.666 -161 -324.999s-119.333 -152.666 -196 -213.999c-138.667 -110.667 -290 -166 -454 -166c-66 0 -129.667 8.83301 -191 26.5s-116.666 43.167 -165.999 76.5c-69.333 46 -104 87.667 -104 125c0 13.333 4.5 24.5 13.5 33.5
s20.167 13.5 33.5 13.5c15.333 0 28 -4.5 38 -13.5s31.167 -35.667 63.5 -80s77.5 -78.833 135.5 -103.5s121.667 -37 191 -37c143.333 0 274.5 55.667 393.5 167s215.833 270.666 290.5 477.999l39 109l-55 4h-45c-48 -177.333 -134.5 -326.5 -259.5 -447.5
s-254.833 -181.5 -389.5 -181.5c-52 0 -102.333 12.333 -151 37s-73 50.667 -73 78c0 22 11.667 33 35 33c12.667 0 24.334 -7.66699 35.001 -23c28.667 -35.333 54.667 -59.166 78 -71.499s53.333 -18.5 90 -18.5c116 0 228.667 56 338 168s187 252 233 420
c-90 0 -158.333 -37.667 -205 -113c-14.667 -24.667 -24.667 -37 -30 -37c-2.66699 0 -5.83398 2.16699 -9.50098 6.5s-5.5 7.16602 -5.5 8.49902c0 6.66699 5.66699 20.334 17 41.001c5.33301 9.33301 12 20 20 32c27.333 40 58.166 70.5 92.499 91.5
s78.833 37.167 133.5 48.5c2.66699 21.333 5.33398 46 8.00098 74s4 57 4 87c0 114.667 -34.167 211 -102.5 289s-153.166 117 -254.499 117c-73.333 0 -137.333 -28 -192 -84s-82 -122.333 -82 -199c0 -54.667 14 -100 42 -136s62.333 -54 103 -54h15l18 2
c10 0 15 -4 15 -12c1.33301 -7.33301 -5.5 -13.666 -20.5 -18.999s-34.833 -8 -59.5 -8c-52 0 -95.833 19.833 -131.5 59.5s-53.5 88.834 -53.5 147.501c0 92.667 38.333 172.5 115 239.5s168 100.5 274 100.5c112 0 205 -40.333 279 -121s111 -182.334 111 -305.001
c0 -44 -6.33301 -100.667 -19 -170h17zM1390 1931c11.333 0 27.999 -10.998 49.999 -32.998c12 -12 18 -22 18 -30c0 -10 -7.83301 -23.833 -23.5 -41.5s-33.167 -31.834 -52.5 -42.501c-31.333 -20.667 -62.666 -31 -93.999 -31c-15.333 0 -23 6.33301 -23 19
c0 6.66699 7 14 21 22c42 23.333 68.667 61.666 80 114.999c4 14.667 12 22 24 22z" />
    <glyph glyph-name="Ograve" unicode="&#xd2;" 
d="M696 -16c-56 -45.333 -114.005 -79.0029 -174.005 -101.003s-125.667 -33 -197 -33c-65.333 0 -124.666 11.667 -177.999 35s-80 50 -80 80c0 24.667 12.333 37 37 37c10.667 0 18 -1.33301 22 -4c20.667 -15.333 41.334 -30.333 62.001 -45
c56 -42.667 118.667 -64 188 -64c101.333 0 194.333 35 279 105c-135.333 48 -239.166 121.833 -311.499 221.5s-108.5 218.834 -108.5 357.501c0 145.333 40.333 280.333 121 405s186.334 216.334 317.001 275.001c144.667 272 340.667 408 588 408
c157.333 0 286.5 -57 387.5 -171s151.5 -259.667 151.5 -437c0 -269.333 -103.167 -516.666 -309.5 -741.999s-433.166 -338 -680.499 -338c-35.333 0 -73.333 3.66699 -114 11zM873.995 917.997l17.998 -221.997c2.66699 -18.667 4 -41 4 -67v-78
c0 -109.333 -10.167 -201.833 -30.5 -277.5s-55.166 -148.5 -104.499 -218.5c49.333 -10.667 92.333 -16 129 -16c105.333 0 207.833 28.667 307.5 86s185.334 137.5 257.001 240.5s128.667 220 171 351s63.5 258.167 63.5 381.5c0 147.333 -44 271.166 -132 371.499
s-197 150.5 -327 150.5c-154 0 -282.833 -64.833 -386.5 -194.5s-155.5 -291.5 -155.5 -485.5c0 -56 4 -118 12 -186l8 -70l10 -70l8 -69c7.33301 -54.667 11 -106 11 -154c0 -72 -8.16699 -125.167 -24.5 -159.5s-51.166 -69.833 -104.499 -106.5
c39.333 -24.667 78.666 -43.667 117.999 -57c44 60 74.833 120.667 92.5 182s26.5 137.666 26.5 228.999c0 18 -1.33301 48.5 -4 91.5s-4 65.167 -4 66.5l-8 102l-6 52c-2.66699 25.333 -5.16699 53.166 -7.5 83.499s-3.5 56.833 -3.5 79.5c0 140.667 26 252.667 78 336
c32.667 54.667 80.834 99.834 144.501 135.501s128.167 53.5 193.5 53.5c101.333 0 186.833 -37 256.5 -111s104.5 -164.667 104.5 -272c0 -108 -39 -204.333 -117 -289s-166.667 -127 -266 -127c-61.333 0 -92 17 -92 51c0 24.667 13.333 37 40 37
c10 0 29.667 -3.83301 59 -11.5s54.333 -11.5 75 -11.5c61.333 0 117.833 33.167 169.5 99.5s77.5 139.166 77.5 218.499c0 102.667 -33.333 188 -100 256s-151.334 102 -254.001 102c-95.333 0 -171 -34 -227 -102s-84 -162.333 -84 -283v-55c0 -18 1.33301 -39 4 -63z
M644.993 1180c-101.333 -36 -179.999 -99 -235.999 -189s-84 -197.667 -84 -323c0 -108 22.167 -207.833 66.5 -299.5s106.166 -166.167 185.499 -223.5c39.333 23.333 66.833 48.333 82.5 75s23.5 63.334 23.5 110.001c0 30 -6 81.667 -18 155l-37 174
c-17.333 89.333 -26 174.666 -26 255.999c0 84.667 14.333 173 43 265zM1326.99 1931c10.667 0 18.666 -7.33105 23.999 -21.998c14 -54.667 40.667 -93 80 -115c13.333 -8 20 -15.333 20 -22c0 -12.667 -7.33301 -19 -22 -19c-31.333 0 -62.666 10.333 -93.999 31
c-20.667 12 -38.5 26.167 -53.5 42.5s-22.5 30.166 -22.5 41.499c0 9.33301 8.5 22.166 25.5 38.499s31.167 24.5 42.5 24.5z" />
    <glyph glyph-name="Oacute" unicode="&#xd3;" 
d="M696 -16c-56 -45.333 -114.005 -79.0029 -174.005 -101.003s-125.667 -33 -197 -33c-65.333 0 -124.666 11.667 -177.999 35s-80 50 -80 80c0 24.667 12.333 37 37 37c10.667 0 18 -1.33301 22 -4c20.667 -15.333 41.334 -30.333 62.001 -45
c56 -42.667 118.667 -64 188 -64c101.333 0 194.333 35 279 105c-135.333 48 -239.166 121.833 -311.499 221.5s-108.5 218.834 -108.5 357.501c0 145.333 40.333 280.333 121 405s186.334 216.334 317.001 275.001c144.667 272 340.667 408 588 408
c157.333 0 286.5 -57 387.5 -171s151.5 -259.667 151.5 -437c0 -269.333 -103.167 -516.666 -309.5 -741.999s-433.166 -338 -680.499 -338c-35.333 0 -73.333 3.66699 -114 11zM873.995 917.997l17.998 -221.997c2.66699 -18.667 4 -41 4 -67v-78
c0 -109.333 -10.167 -201.833 -30.5 -277.5s-55.166 -148.5 -104.499 -218.5c49.333 -10.667 92.333 -16 129 -16c105.333 0 207.833 28.667 307.5 86s185.334 137.5 257.001 240.5s128.667 220 171 351s63.5 258.167 63.5 381.5c0 147.333 -44 271.166 -132 371.499
s-197 150.5 -327 150.5c-154 0 -282.833 -64.833 -386.5 -194.5s-155.5 -291.5 -155.5 -485.5c0 -56 4 -118 12 -186l8 -70l10 -70l8 -69c7.33301 -54.667 11 -106 11 -154c0 -72 -8.16699 -125.167 -24.5 -159.5s-51.166 -69.833 -104.499 -106.5
c39.333 -24.667 78.666 -43.667 117.999 -57c44 60 74.833 120.667 92.5 182s26.5 137.666 26.5 228.999c0 18 -1.33301 48.5 -4 91.5s-4 65.167 -4 66.5l-8 102l-6 52c-2.66699 25.333 -5.16699 53.166 -7.5 83.499s-3.5 56.833 -3.5 79.5c0 140.667 26 252.667 78 336
c32.667 54.667 80.834 99.834 144.501 135.501s128.167 53.5 193.5 53.5c101.333 0 186.833 -37 256.5 -111s104.5 -164.667 104.5 -272c0 -108 -39 -204.333 -117 -289s-166.667 -127 -266 -127c-61.333 0 -92 17 -92 51c0 24.667 13.333 37 40 37
c10 0 29.667 -3.83301 59 -11.5s54.333 -11.5 75 -11.5c61.333 0 117.833 33.167 169.5 99.5s77.5 139.166 77.5 218.499c0 102.667 -33.333 188 -100 256s-151.334 102 -254.001 102c-95.333 0 -171 -34 -227 -102s-84 -162.333 -84 -283v-55c0 -18 1.33301 -39 4 -63z
M644.993 1180c-101.333 -36 -179.999 -99 -235.999 -189s-84 -197.667 -84 -323c0 -108 22.167 -207.833 66.5 -299.5s106.166 -166.167 185.499 -223.5c39.333 23.333 66.833 48.333 82.5 75s23.5 63.334 23.5 110.001c0 30 -6 81.667 -18 155l-37 174
c-17.333 89.333 -26 174.666 -26 255.999c0 84.667 14.333 173 43 265zM1450.99 1931c11.333 0 27.999 -10.998 49.999 -32.998c12 -12 18 -22 18 -30c0 -10 -7.83301 -23.833 -23.5 -41.5s-33.167 -31.834 -52.5 -42.501c-31.333 -20.667 -62.666 -31 -93.999 -31
c-14.667 0 -22 6.33301 -22 19c0 6.66699 6.66699 14 20 22c42 23.333 68.667 61.666 80 114.999c4 14.667 12 22 24 22z" />
    <glyph glyph-name="Ocircumflex" unicode="&#xd4;" 
d="M696 -16c-56 -45.333 -114.005 -79.0029 -174.005 -101.003s-125.667 -33 -197 -33c-65.333 0 -124.666 11.667 -177.999 35s-80 50 -80 80c0 24.667 12.333 37 37 37c10.667 0 18 -1.33301 22 -4c20.667 -15.333 41.334 -30.333 62.001 -45
c56 -42.667 118.667 -64 188 -64c101.333 0 194.333 35 279 105c-135.333 48 -239.166 121.833 -311.499 221.5s-108.5 218.834 -108.5 357.501c0 145.333 40.333 280.333 121 405s186.334 216.334 317.001 275.001c144.667 272 340.667 408 588 408
c157.333 0 286.5 -57 387.5 -171s151.5 -259.667 151.5 -437c0 -269.333 -103.167 -516.666 -309.5 -741.999s-433.166 -338 -680.499 -338c-35.333 0 -73.333 3.66699 -114 11zM873.995 917.997l17.998 -221.997c2.66699 -18.667 4 -41 4 -67v-78
c0 -109.333 -10.167 -201.833 -30.5 -277.5s-55.166 -148.5 -104.499 -218.5c49.333 -10.667 92.333 -16 129 -16c105.333 0 207.833 28.667 307.5 86s185.334 137.5 257.001 240.5s128.667 220 171 351s63.5 258.167 63.5 381.5c0 147.333 -44 271.166 -132 371.499
s-197 150.5 -327 150.5c-154 0 -282.833 -64.833 -386.5 -194.5s-155.5 -291.5 -155.5 -485.5c0 -56 4 -118 12 -186l8 -70l10 -70l8 -69c7.33301 -54.667 11 -106 11 -154c0 -72 -8.16699 -125.167 -24.5 -159.5s-51.166 -69.833 -104.499 -106.5
c39.333 -24.667 78.666 -43.667 117.999 -57c44 60 74.833 120.667 92.5 182s26.5 137.666 26.5 228.999c0 18 -1.33301 48.5 -4 91.5s-4 65.167 -4 66.5l-8 102l-6 52c-2.66699 25.333 -5.16699 53.166 -7.5 83.499s-3.5 56.833 -3.5 79.5c0 140.667 26 252.667 78 336
c32.667 54.667 80.834 99.834 144.501 135.501s128.167 53.5 193.5 53.5c101.333 0 186.833 -37 256.5 -111s104.5 -164.667 104.5 -272c0 -108 -39 -204.333 -117 -289s-166.667 -127 -266 -127c-61.333 0 -92 17 -92 51c0 24.667 13.333 37 40 37
c10 0 29.667 -3.83301 59 -11.5s54.333 -11.5 75 -11.5c61.333 0 117.833 33.167 169.5 99.5s77.5 139.166 77.5 218.499c0 102.667 -33.333 188 -100 256s-151.334 102 -254.001 102c-95.333 0 -171 -34 -227 -102s-84 -162.333 -84 -283v-55c0 -18 1.33301 -39 4 -63z
M644.993 1180c-101.333 -36 -179.999 -99 -235.999 -189s-84 -197.667 -84 -323c0 -108 22.167 -207.833 66.5 -299.5s106.166 -166.167 185.499 -223.5c39.333 23.333 66.833 48.333 82.5 75s23.5 63.334 23.5 110.001c0 30 -6 81.667 -18 155l-37 174
c-17.333 89.333 -26 174.666 -26 255.999c0 84.667 14.333 173 43 265zM1475.99 1909l95.999 -111l21 -29c0 -8 -12.333 -12 -37 -12h-37c-23.333 0 -41.666 8.33301 -54.999 25l-33 41c-12 13.333 -23.667 20 -35 20c-4 0 -17 -4.66699 -39 -14l-112 -49l-43 -15
c-4.66699 0 -8.33398 1.5 -11.001 4.5s-4 5.16699 -4 6.5c0 8 13 21 39 39l150 104c14.667 10.667 24.834 17.5 30.501 20.5s12.5 4.5 20.5 4.5s14.333 -1.5 19 -4.5s14.667 -13.167 30 -30.5z" />
    </font>
</defs>
</svg>
